<svg width="290" height="7" viewBox="0 0 290 7" fill="none" xmlns="http://www.w3.org/2000/svg">
<path fill-rule="evenodd" clip-rule="evenodd" d="M0 5C0 5.82843 0.671573 6.5 1.5 6.5C5.09969 6.5 7.0357 5.65994 8.68771 4.84533C8.78148 4.7991 8.87349 4.75344 8.96412 4.70847L8.96546 4.7078C10.3417 4.0249 11.3995 3.5 13.444 3.5C15.4886 3.5 16.5464 4.0249 17.9226 4.7078L17.9226 4.70781C18.0137 4.75299 18.1061 4.79887 18.2004 4.84533C19.8524 5.65994 21.7884 6.5 25.3881 6.5C28.9877 6.5 30.9238 5.65994 32.5758 4.84533C32.67 4.79887 32.7625 4.75299 32.8535 4.7078C34.2297 4.0249 35.2875 3.5 37.3321 3.5C39.3767 3.5 40.4344 4.02489 41.8106 4.7078L41.8111 4.70803C41.902 4.75314 41.9943 4.79894 42.0884 4.84533C43.7404 5.65994 45.6764 6.5 49.2761 6.5C52.8758 6.5 54.8118 5.65994 56.4638 4.84533C56.5577 4.79902 56.6499 4.75329 56.7407 4.70825L56.7416 4.7078C58.1178 4.0249 59.1756 3.5 61.2201 3.5C63.2647 3.5 64.3225 4.0249 65.6987 4.7078C65.7898 4.75299 65.8822 4.79887 65.9765 4.84533C67.6285 5.65994 69.5645 6.5 73.1642 6.5C76.7639 6.5 78.6999 5.65994 80.3519 4.84533C80.4461 4.79887 80.5386 4.75299 80.6296 4.70781C82.0058 4.0249 83.0636 3.5 85.1082 3.5C87.1528 3.5 88.2106 4.02489 89.5868 4.7078C89.6778 4.75298 89.7703 4.79887 89.8645 4.84533C91.5165 5.65994 93.4526 6.5 97.0522 6.5C100.652 6.5 102.588 5.65994 104.24 4.84533C104.334 4.79887 104.427 4.75299 104.518 4.7078C105.894 4.0249 106.952 3.5 108.996 3.5C111.041 3.5 112.099 4.0249 113.475 4.7078L113.477 4.70908L113.482 4.71117C113.571 4.75527 113.661 4.80002 113.753 4.84533C115.405 5.65994 117.341 6.5 120.94 6.5C124.54 6.5 126.476 5.65994 128.128 4.84533C128.222 4.79887 128.315 4.75299 128.406 4.7078C129.782 4.0249 130.84 3.5 132.884 3.5C134.929 3.5 135.987 4.02489 137.363 4.7078C137.454 4.75298 137.546 4.79887 137.641 4.84533C139.293 5.65994 141.229 6.5 144.828 6.5C148.428 6.5 150.364 5.65994 152.016 4.84533C152.11 4.79887 152.203 4.75299 152.294 4.7078C153.67 4.0249 154.728 3.5 156.772 3.5C158.817 3.5 159.875 4.0249 161.251 4.7078L161.417 4.79037L161.529 4.84533C163.181 5.65994 165.117 6.5 168.716 6.5C172.316 6.5 174.252 5.65994 175.904 4.84533C175.998 4.79887 176.091 4.75299 176.182 4.70781C177.558 4.0249 178.616 3.5 180.66 3.5C182.705 3.5 183.763 4.02489 185.139 4.7078C185.23 4.75298 185.323 4.79887 185.417 4.84533C187.069 5.65994 189.005 6.5 192.604 6.5C196.204 6.5 198.14 5.65994 199.792 4.84533C199.885 4.79939 199.977 4.75402 200.067 4.70933L200.07 4.7078C201.446 4.0249 202.504 3.5 204.549 3.5C206.593 3.5 207.651 4.0249 209.027 4.7078C209.118 4.75299 209.211 4.79887 209.305 4.84533C210.957 5.65994 212.893 6.5 216.493 6.5C220.092 6.5 222.028 5.65994 223.68 4.84533L223.769 4.80132C223.833 4.76985 223.896 4.73866 223.958 4.7078C225.334 4.0249 226.392 3.5 228.437 3.5C230.481 3.5 231.539 4.02489 232.915 4.7078L233.041 4.77045C233.091 4.79523 233.142 4.82019 233.193 4.84533C234.845 5.65994 236.781 6.5 240.381 6.5C243.98 6.5 245.916 5.65994 247.568 4.84533C247.663 4.79887 247.755 4.75299 247.846 4.7078C249.222 4.0249 250.28 3.5 252.325 3.5C254.369 3.5 255.427 4.0249 256.803 4.7078C256.855 4.73353 256.907 4.75948 256.96 4.78564C257 4.80542 257.04 4.82532 257.081 4.84533C258.733 5.65994 260.669 6.5 264.269 6.5C267.868 6.5 269.804 5.65994 271.456 4.84533C271.551 4.79887 271.643 4.75299 271.734 4.70781C273.11 4.0249 274.168 3.5 276.213 3.5C278.257 3.5 279.315 4.02489 280.691 4.7078C280.782 4.75298 280.875 4.79887 280.969 4.84533C282.621 5.65994 284.557 6.5 288.157 6.5C288.985 6.5 289.657 5.82843 289.657 5C289.657 4.17157 288.985 3.5 288.157 3.5C285.16 3.5 283.686 2.84006 282.296 2.15467C282.199 2.10687 282.102 2.05845 282.004 2.00969C280.561 1.29205 278.969 0.5 276.213 0.5C273.456 0.5 271.864 1.29205 270.422 2.00969C270.324 2.05845 270.227 2.10687 270.13 2.15467C268.74 2.84006 267.265 3.5 264.269 3.5C261.272 3.5 259.798 2.84006 258.408 2.15467C258.311 2.10687 258.213 2.05845 258.115 2.00969C256.673 1.29205 255.081 0.5 252.325 0.5C249.568 0.5 247.976 1.29205 246.534 2.00969L246.53 2.01157C246.433 2.0597 246.337 2.10748 246.242 2.15467C244.852 2.84006 243.377 3.5 240.381 3.5C237.384 3.5 235.91 2.84006 234.52 2.15467C234.423 2.10687 234.325 2.05845 234.227 2.00969C232.785 1.29205 231.193 0.5 228.437 0.5C225.68 0.5 224.088 1.29205 222.646 2.00969L222.642 2.01157C222.545 2.0597 222.449 2.10748 222.353 2.15467C220.964 2.84006 219.489 3.5 216.493 3.5C213.496 3.5 212.022 2.84006 210.632 2.15467C210.535 2.10687 210.437 2.05845 210.339 2.00969C208.897 1.29205 207.305 0.5 204.549 0.5C201.792 0.5 200.2 1.29205 198.758 2.00969C198.66 2.05845 198.562 2.10687 198.465 2.15467C197.075 2.84006 195.601 3.5 192.604 3.5C189.608 3.5 188.133 2.84006 186.744 2.15467C186.647 2.10687 186.549 2.05845 186.451 2.00969C185.009 1.29205 183.417 0.5 180.66 0.5C177.904 0.5 176.312 1.29205 174.87 2.00969C174.772 2.05845 174.674 2.10687 174.577 2.15467C173.187 2.84006 171.713 3.5 168.716 3.5C165.72 3.5 164.245 2.84006 162.855 2.15467C162.759 2.10687 162.661 2.05845 162.563 2.00969C161.121 1.29205 159.529 0.5 156.772 0.5C154.016 0.5 152.424 1.29205 150.982 2.00969C150.884 2.05845 150.786 2.10687 150.689 2.15467C149.299 2.84006 147.825 3.5 144.828 3.5C141.832 3.5 140.357 2.84006 138.967 2.15467C138.87 2.10687 138.773 2.05845 138.675 2.00969C137.233 1.29205 135.641 0.5 132.884 0.5C130.128 0.5 128.536 1.29205 127.093 2.00969C126.995 2.05845 126.898 2.10687 126.801 2.15467C125.411 2.84006 123.937 3.5 120.94 3.5C117.943 3.5 116.469 2.84006 115.079 2.15467C114.984 2.10787 114.889 2.06048 114.793 2.01276L114.791 2.01157L114.787 2.00969C113.345 1.29205 111.753 0.5 108.996 0.5C106.24 0.5 104.648 1.29205 103.205 2.00969L103.204 2.01032L103.202 2.01163C103.105 2.05973 103.009 2.1075 102.913 2.15467C101.523 2.84006 100.049 3.5 97.0522 3.5C94.0554 3.5 92.5813 2.84006 91.1913 2.15467C91.0944 2.10687 90.9971 2.05845 90.8991 2.00969C89.4567 1.29205 87.8647 0.5 85.1082 0.5C82.3517 0.5 80.7597 1.29205 79.3174 2.00969C79.2194 2.05845 79.1221 2.10687 79.0251 2.15467C77.6352 2.84006 76.161 3.5 73.1642 3.5C70.1674 3.5 68.6932 2.84006 67.3032 2.15467C67.2063 2.10687 67.109 2.05845 67.011 2.00969C65.5686 1.29205 63.9767 0.5 61.2201 0.5C58.4636 0.5 56.8717 1.29205 55.4293 2.00969C55.3313 2.05845 55.234 2.10687 55.1371 2.15467C53.7471 2.84006 52.2729 3.5 49.2761 3.5C46.2793 3.5 44.8051 2.84006 43.4152 2.15467C43.3182 2.10687 43.2209 2.05845 43.1229 2.00969C41.6806 1.29205 40.0886 0.5 37.3321 0.5C34.5756 0.5 32.9836 1.29205 31.5412 2.00969C31.4432 2.05845 31.3459 2.10687 31.249 2.15467C29.859 2.84006 28.3849 3.5 25.3881 3.5C22.3912 3.5 20.9171 2.84006 19.5271 2.15467C19.4302 2.10687 19.3329 2.05845 19.2349 2.00969C17.7925 1.29205 16.2006 0.5 13.444 0.5C10.6875 0.5 9.09556 1.29205 7.65319 2.00969C7.55518 2.05845 7.45787 2.10687 7.36094 2.15467C5.97098 2.84006 4.49682 3.5 1.5 3.5C0.671573 3.5 0 4.17157 0 5Z" fill="#E0E0E0"/>
</svg>
