<svg width="27" height="27" viewBox="0 0 27 27" fill="none" xmlns="http://www.w3.org/2000/svg">
<g clip-path="url(#clip0)">
<path d="M26.6323 12.6121L18.5976 4.57738C18.1073 4.08716 17.3123 4.08716 16.8221 4.57738C16.3317 5.0677 16.3317 5.86254 16.8221 6.35286L22.7137 12.2444H1.25543C0.562132 12.2444 0 12.8066 0 13.4999C0 14.1931 0.562132 14.7553 1.25543 14.7553H22.7137L16.8223 20.6469C16.3319 21.1372 16.3319 21.9321 16.8223 22.4224C17.0673 22.6673 17.3887 22.7901 17.71 22.7901C18.0313 22.7901 18.3526 22.6673 18.5978 22.4224L26.6323 14.3876C27.1226 13.8973 27.1226 13.1025 26.6323 12.6121Z" fill="white"/>
</g>
<defs>
<clipPath id="clip0">
<rect width="27" height="27" fill="white" transform="matrix(-1 0 0 1 27 0)"/>
</clipPath>
</defs>
</svg>
