<svg width="78" height="35" viewBox="0 0 78 35" fill="none" xmlns="http://www.w3.org/2000/svg">
<path fill-rule="evenodd" clip-rule="evenodd" d="M19.5422 7C18.2679 2.94289 14.4776 0 10 0C4.47715 0 0 4.47715 0 10C0 12.9867 1.30939 15.6676 3.38544 17.5C1.30939 19.3324 0 22.0133 0 25C0 30.5228 4.47715 35 10 35C14.4776 35 18.2679 32.0571 19.5422 28H58.4578C59.7321 32.0571 63.5224 35 68 35C73.5229 35 78 30.5228 78 25C78 22.0133 76.6906 19.3324 74.6146 17.5C76.6906 15.6676 78 12.9867 78 10C78 4.47715 73.5229 0 68 0C63.5224 0 59.7321 2.94289 58.4578 7H19.5422Z" fill="#399B44"/>
</svg>
