<svg width="80" height="35" viewBox="0 0 80 35" fill="none" xmlns="http://www.w3.org/2000/svg">
<path d="M76.0285 17.2561C78.0628 15.4713 79.3365 12.9177 79.3365 10.0731C79.3366 4.6803 74.7492 0.341948 69.0898 0.342003C64.6177 0.342005 60.8198 3.00542 59.4194 6.89895L20.6744 6.90445C19.274 3.01092 15.4762 0.347493 11.004 0.347494C5.35047 0.342001 0.757319 4.69683 0.757319 10.0896C0.757317 12.9342 2.03095 15.4768 4.06525 17.2616C2.03095 19.0463 0.757256 21.6 0.763021 24.4391C0.763018 29.8319 5.35042 34.1702 11.0097 34.1702C15.482 34.1702 19.2739 31.5013 20.6745 27.6078L59.4137 27.6078C60.8142 31.5014 64.612 34.1647 69.0842 34.1648C74.7435 34.1647 79.3367 29.8099 79.3366 24.4172C79.3307 21.578 78.0629 19.0408 76.0285 17.2561Z" fill="#9B51E0"/>
</svg>
