<svg width="36" height="41" fill="none" xmlns="http://www.w3.org/2000/svg"><g filter="url(#filter0_d)"><path fill-rule="evenodd" clip-rule="evenodd" d="M18 31c7.732 0 14-6.268 14-14S25.732 3 18 3 4 9.268 4 17c0 4.758 2.373 8.96 6 11.49V36l5.267-5.267c.884.175 1.798.267 2.733.267z" fill="#fff"/></g><path d="M22.456 13.982c0 .569-.129 1.079-.387 1.53-.252.45-.726.925-1.424 1.424l-.668.483c-.398.287-.697.577-.896.87a1.896 1.896 0 00-.316.967h-2.347c.035-.598.202-1.131.5-1.6.306-.468.75-.908 1.337-1.318.627-.434 1.07-.815 1.327-1.143a1.77 1.77 0 00.387-1.107c0-.516-.17-.923-.51-1.222-.334-.299-.811-.448-1.433-.448-.591 0-1.09.173-1.494.519-.398.345-.633.802-.703 1.37l-2.505-.105c.158-1.19.648-2.115 1.468-2.777.82-.662 1.887-.993 3.2-.993 1.388 0 2.478.316 3.269.949.797.627 1.195 1.494 1.195 2.601zM16.348 23v-2.373h2.54V23h-2.54z" fill="#D9435D"/><defs><filter id="filter0_d" x="0" y="0" width="36" height="41" filterUnits="userSpaceOnUse" color-interpolation-filters="sRGB"><feFlood flood-opacity="0" result="BackgroundImageFix"/><feColorMatrix in="SourceAlpha" values="0 0 0 0 0 0 0 0 0 0 0 0 0 0 0 0 0 0 127 0"/><feOffset dy="1"/><feGaussianBlur stdDeviation="2"/><feColorMatrix values="0 0 0 0 0 0 0 0 0 0 0 0 0 0 0 0 0 0 0.1 0"/><feBlend in2="BackgroundImageFix" result="effect1_dropShadow"/><feBlend in="SourceGraphic" in2="effect1_dropShadow" result="shape"/></filter></defs></svg>