<svg width="14" height="14" viewBox="0 0 14 14" fill="none" xmlns="http://www.w3.org/2000/svg">
<path fill-rule="evenodd" clip-rule="evenodd" d="M3.125 0C3.40114 0 3.625 0.223858 3.625 0.5V2H10.5V0.5C10.5 0.223858 10.7239 0 11 0C11.2761 0 11.5 0.223858 11.5 0.5V2H12C13.1046 2 14 2.89543 14 4V12C14 13.1046 13.1046 14 12 14H2C0.89543 14 0 13.1046 0 12V4C0 2.89543 0.895431 2 2 2H2.625V0.5C2.625 0.223858 2.84886 0 3.125 0ZM10.5 3V3.5C10.5 3.77614 10.7239 4 11 4C11.2761 4 11.5 3.77614 11.5 3.5V3H12C12.5523 3 13 3.44772 13 4V12C13 12.5523 12.5523 13 12 13H2C1.44772 13 1 12.5523 1 12V4C1 3.44772 1.44772 3 2 3H2.625V3.5C2.625 3.77614 2.84886 4 3.125 4C3.40114 4 3.625 3.77614 3.625 3.5V3H10.5ZM3.125 6C2.84886 6 2.625 6.22386 2.625 6.5C2.625 6.77614 2.84886 7 3.125 7H10.875C11.1511 7 11.375 6.77614 11.375 6.5C11.375 6.22386 11.1511 6 10.875 6H3.125Z" fill="#979899"/>
</svg>
