<svg width="16" height="16" viewBox="0 0 16 16" fill="none" xmlns="http://www.w3.org/2000/svg">
<path d="M15.8983 7.68857C15.7554 7.49304 12.3496 2.90088 7.99992 2.90088C3.65019 2.90088 0.244313 7.49304 0.101531 7.68839C-0.0338438 7.87389 -0.0338438 8.12548 0.101531 8.31098C0.244313 8.50651 3.65019 13.0987 7.99992 13.0987C12.3496 13.0987 15.7554 8.50648 15.8983 8.31114C16.0339 8.12567 16.0339 7.87389 15.8983 7.68857ZM7.99992 12.0437C4.79588 12.0437 2.02085 8.99583 1.19938 7.99942C2.01979 7.00214 4.78901 3.95582 7.99992 3.95582C11.2038 3.95582 13.9787 7.0032 14.8005 8.00014C13.9801 8.99739 11.2108 12.0437 7.99992 12.0437Z" fill="#979899"/>
<path d="M8.00079 4.83496C6.25572 4.83496 4.83594 6.25475 4.83594 7.99981C4.83594 9.74488 6.25572 11.1647 8.00079 11.1647C9.74585 11.1647 11.1656 9.74488 11.1656 7.99981C11.1656 6.25475 9.74585 4.83496 8.00079 4.83496ZM8.00079 10.1097C6.83735 10.1097 5.89091 9.16322 5.89091 7.99981C5.89091 6.8364 6.83738 5.88993 8.00079 5.88993C9.16419 5.88993 10.1107 6.8364 10.1107 7.99981C10.1107 9.16322 9.16423 10.1097 8.00079 10.1097Z" fill="#979899"/>
</svg>
