<svg width="32" height="24" fill="none" xmlns="http://www.w3.org/2000/svg"><path d="M31.974 12.508L29.38 4.906a.494.494 0 00-.467-.334H21.98V.548a.494.494 0 00-.493-.493H.494A.494.494 0 000 .548v18.588a.494.494 0 00.494.493h1.68a4.696 4.696 0 004.674 4.316 4.696 4.696 0 004.674-4.317l7.944-.002a4.696 4.696 0 004.674 4.32 4.696 4.696 0 004.675-4.32h2.691a.494.494 0 00.494-.494v-6.465a.491.491 0 00-.026-.16zM6.848 21.345a2.093 2.093 0 01-2.09-2.09c0-1.152.937-2.09 2.09-2.09 1.152 0 2.09.938 2.09 2.09s-.938 2.09-2.09 2.09zm17.292 0a2.092 2.092 0 01-2.09-2.09c0-1.152.938-2.09 2.09-2.09 1.153 0 2.091.938 2.091 2.09s-.938 2.09-2.09 2.09zm1.928-7.85l-.67-2.034a.494.494 0 00-.469-.339l-3.147.003V7.702h5.122l1.907 5.792h-2.742z" fill="#3A1F5D"/></svg>