<svg width="48" height="48" fill="none" xmlns="http://www.w3.org/2000/svg"><g clip-path="url(#clip0)"><path d="M.872 35.004H3.51a5.278 5.278 0 0010.487 0h17.067a5.28 5.28 0 0010.487 0h5.569a.88.88 0 00.88-.88V9.209a.88.88 0 00-.88-.88H16.593a.88.88 0 00-.88.88v4.935H8.261a.88.88 0 00-.72.379l-4.813 6.888-1.882 2.64-.687.976a.879.879 0 00-.159.501v8.57a.88.88 0 00.872.906zm7.865 2.639a3.52 3.52 0 113.519-3.52 3.563 3.563 0 01-3.52 3.564v-.044zm27.553 0a3.52 3.52 0 113.52-3.52 3.563 3.563 0 01-3.52 3.564v-.044zm9.933-27.554v15.765H22.338a.88.88 0 100 1.76h23.885v5.63h-4.689a5.279 5.279 0 00-10.487 0H17.473V14.092h6.351a.88.88 0 000-1.76h-6.351v-2.243h28.75zM8.72 15.904h7.038v17.34h-1.76a5.278 5.278 0 00-10.486 0h-1.76V25.81l.264-.378h10.733a.88.88 0 00.88-.88v-6.51a.88.88 0 00-.88-.88H7.822l.897-1.258zM6.59 18.94h5.279v4.75h-8.63l3.351-4.75z" fill="#D9435D"/></g><defs><clipPath id="clip0"><path fill="#fff" d="M0 0h48v48H0z"/></clipPath></defs></svg>