<svg width="48" height="48" fill="none" xmlns="http://www.w3.org/2000/svg"><g clip-path="url(#clip0)" fill="#D9435D"><path d="M36.696 20.576c0-.009-.002-.018-.003-.026a1.08 1.08 0 00-.026-.131v-.002a1.077 1.077 0 00-.042-.12l-.014-.032a1.094 1.094 0 00-.042-.085l-.02-.035-.011-.02a1.13 1.13 0 00-.052-.073l-.01-.014a1.072 1.072 0 00-.086-.099l-.019-.016a1.094 1.094 0 00-.083-.073l-.022-.017a1.095 1.095 0 00-.12-.078L20.147 10.66l9.212-5.8 15.443 8.778-6.504 4.095a1.086 1.086 0 101.157 1.838l8.04-5.062a1.086 1.086 0 00-.043-1.863L29.867 2.65a1.086 1.086 0 00-1.116.025l-11.289 7.11-.007.003-5.641 3.553-.008.005L.51 20.459a1.085 1.085 0 00.042 1.863l17.586 9.996a1.084 1.084 0 001.115-.025l8.039-5.062a1.086 1.086 0 10-1.157-1.838l-7.49 4.716L3.203 21.33l9.211-5.801 16.471 9.362v12.4a1.086 1.086 0 001.665.919l5.648-3.557c.316-.199.508-.546.508-.919V20.704l-.002-.02c0-.035-.003-.071-.007-.108zm-5.64 14.749V24.261c0-.391-.21-.752-.55-.944l-16.008-9.1 3.564-2.244 15.443 8.778-1.352.852a1.086 1.086 0 101.157 1.838l1.223-.77v10.465l-3.477 2.189z"/><path d="M46.336 17.015l-8.04 5.062a1.086 1.086 0 101.158 1.838l8.039-5.062a1.086 1.086 0 10-1.157-1.838zM26.132 29.737l-7.489 4.716-17.02-9.675A1.086 1.086 0 10.55 26.666l17.585 9.996a1.084 1.084 0 001.115-.025l8.04-5.062a1.086 1.086 0 10-1.158-1.838zM46.336 21.359l-8.04 5.062a1.086 1.086 0 101.158 1.838l8.039-5.062a1.086 1.086 0 10-1.157-1.838z"/><path d="M26.132 34.08l-7.489 4.717-17.02-9.675A1.086 1.086 0 10.55 31.01l17.585 9.996a1.084 1.084 0 001.115-.025l8.04-5.062a1.086 1.086 0 10-1.158-1.838zM46.336 25.703l-8.04 5.062a1.086 1.086 0 101.158 1.838l8.039-5.062a1.086 1.086 0 10-1.157-1.838z"/><path d="M26.132 38.425l-7.489 4.715-17.02-9.674A1.086 1.086 0 00.55 35.354l17.585 9.996a1.084 1.084 0 001.115-.025l8.04-5.062a1.086 1.086 0 10-1.158-1.838z"/></g><defs><clipPath id="clip0"><path fill="#fff" d="M0 0h48v48H0z"/></clipPath></defs></svg>