<svg width="48" height="48" fill="none" xmlns="http://www.w3.org/2000/svg"><path d="M31.4 12.3a6.153 6.153 0 006.15-6.15A6.153 6.153 0 0031.4 0a6.153 6.153 0 00-6.15 6.15 6.153 6.153 0 006.15 6.15zm0-9.897a3.746 3.746 0 110 7.493 3.746 3.746 0 010-7.493zM17.218 12.3a6.153 6.153 0 006.15-6.15A6.153 6.153 0 0017.218 0a6.153 6.153 0 00-6.15 6.15 6.153 6.153 0 006.15 6.15zm0-9.897a3.746 3.746 0 110 7.493 3.746 3.746 0 010-7.493zM38.423 43.125V32.856a6.115 6.115 0 003.217-5.364v-7.817c0-3.364-2.736-6.1-6.1-6.1h-5.248a1.206 1.206 0 100 2.412h5.248a3.7 3.7 0 013.697 3.697v7.817c0 1.54-.97 2.933-2.422 3.463-.471.176-.785.627-.785 1.128v11.043a2.453 2.453 0 01-2.452 2.452h-5.551a1.206 1.206 0 100 2.413h5.551c2.668-.02 4.845-2.197 4.845-4.875z" fill="#D9435D"/><path d="M28.055 19.675c0-3.364-2.736-6.1-6.1-6.1h-9.494a6.107 6.107 0 00-6.1 6.1v7.817a6.115 6.115 0 003.216 5.364v10.27a4.86 4.86 0 004.855 4.854h5.552a4.86 4.86 0 004.854-4.855V32.856a6.115 6.115 0 003.217-5.364v-7.817zm-2.402 7.817c0 1.54-.971 2.932-2.423 3.462-.47.176-.785.627-.785 1.128v11.043a2.453 2.453 0 01-2.452 2.452h-5.55a2.453 2.453 0 01-2.453-2.452V32.092c0-.5-.314-.952-.784-1.128A3.697 3.697 0 018.783 27.5v-7.826a3.7 3.7 0 013.697-3.698h9.495a3.7 3.7 0 013.697 3.698v7.817h-.02z" fill="#D9435D"/></svg>