<svg width="48" height="48" fill="none" xmlns="http://www.w3.org/2000/svg"><path d="M43.993 16.453h-4.885V9.56a4.012 4.012 0 00-4.007-4.007H4.007A4.012 4.012 0 000 9.559v17.98a4.012 4.012 0 004.007 4.007h4.885v6.895a4.012 4.012 0 004.007 4.007h31.094A4.012 4.012 0 0048 38.441v-17.98a4.012 4.012 0 00-4.007-4.008zM2.29 9.56c0-.947.77-1.717 1.717-1.717h31.094c.947 0 1.718.77 1.718 1.717v1.599H2.288V9.559zm6.602 10.902v8.795H4.007A1.72 1.72 0 012.29 27.54V18.75h6.986a3.982 3.982 0 00-.384 1.71zm-6.602-4v-3.014h34.529v3.006h-23.92c-.077 0-.154.003-.23.008H2.289zm41.703 23.697H12.899a1.72 1.72 0 01-1.717-1.717v-17.98c0-.9.695-1.639 1.577-1.71h25.204c.042 0 .084-.003.125-.008h5.905c.947 0 1.717.77 1.717 1.718v17.98a1.72 1.72 0 01-1.717 1.717z" fill="#D9435D"/><path d="M31.894 23.932c-1.302 0-2.5.454-3.445 1.211a5.48 5.48 0 00-3.453-1.212 5.526 5.526 0 00-5.52 5.52 5.526 5.526 0 005.52 5.52 5.482 5.482 0 003.453-1.213 5.491 5.491 0 003.445 1.212 5.525 5.525 0 005.519-5.52 5.525 5.525 0 00-5.52-5.518zm-4.9 8.056a3.207 3.207 0 01-1.998.693 3.233 3.233 0 01-3.23-3.23 3.234 3.234 0 013.23-3.23c.738 0 1.435.247 1.999.693a5.482 5.482 0 00-.62 2.537c0 .914.224 1.776.62 2.537zm4.9.692a3.233 3.233 0 01-3.23-3.23c0-1.78 1.45-3.228 3.23-3.228s3.23 1.448 3.23 3.229c0 1.78-1.45 3.23-3.23 3.23z" fill="#D9435D"/></svg>