<svg width="20" height="20" viewBox="0 0 20 20" fill="none" xmlns="http://www.w3.org/2000/svg">
<path d="M7.35038 3.87347C7.35038 4.37747 7.35038 6.62706 7.35038 6.62706H5.33301V9.99417H7.35038V20H11.4945V9.99445H14.2754C14.2754 9.99445 14.5358 8.37995 14.6621 6.61465C14.3001 6.61465 11.5102 6.61465 11.5102 6.61465C11.5102 6.61465 11.5102 4.65577 11.5102 4.31242C11.5102 3.96833 11.962 3.50547 12.4086 3.50547C12.8543 3.50547 13.7951 3.50547 14.6665 3.50547C14.6665 3.04704 14.6665 1.46304 14.6665 0.000122082C13.5032 0.000122082 12.1799 0.000122082 11.5965 0.000122082C7.24795 -0.000110414 7.35038 3.37035 7.35038 3.87347Z" fill="#D9435D"/>
</svg>
