<svg width="16" height="14" viewBox="0 0 16 14" fill="none" xmlns="http://www.w3.org/2000/svg">
<path d="M2.65625 9.34375C3.15625 9.34375 3.53125 9.15625 3.84375 8.78125C4.09375 8.46875 4.21875 8.0625 4.21875 7.59375C4.21875 7.125 4.09375 6.65625 3.84375 6.15625C3.59375 5.65625 3.3125 5.25 2.9375 4.9375C2.5 4.59375 2.03125 4.40625 1.53125 4.40625C1.03125 4.40625 0.65625 4.625 0.375 5C0.125 5.34375 0 5.75 0 6.21875C0 6.6875 0.09375 7.15625 0.34375 7.65625C0.59375 8.15625 0.90625 8.53125 1.28125 8.84375C1.71875 9.1875 2.15625 9.34375 2.65625 9.34375ZM13.5312 12.6562C13.5312 11.9688 13.2188 11.2188 12.625 10.3438C12.0312 9.5 11.3125 8.78125 10.4688 8.21875C9.5625 7.59375 8.75 7.28125 8 7.28125C7.25 7.28125 6.40625 7.59375 5.53125 8.21875C4.65625 8.78125 3.9375 9.5 3.34375 10.3438C2.75 11.1875 2.46875 11.9688 2.46875 12.6562C2.46875 13.5625 3.03125 14 4.21875 14C4.53125 14 4.875 13.9688 5.25 13.875C5.4375 13.8125 5.75 13.7188 6.15625 13.5938C6.5625 13.4688 6.875 13.375 7.09375 13.3125C7.40625 13.25 7.71875 13.1875 8 13.1875C8.25 13.1875 8.5625 13.25 8.875 13.3125C9.0625 13.375 9.34375 13.4688 9.71875 13.5938C10.0938 13.7188 10.4062 13.8125 10.625 13.875C10.9375 13.9688 11.25 14 11.5625 14C12.1562 14 12.5938 13.9375 12.9062 13.75C13.3125 13.5625 13.5312 13.1875 13.5312 12.6562ZM5.6875 5.375C6.25 5.375 6.71875 5.125 7.0625 4.625C7.34375 4.21875 7.5 3.71875 7.5 3.125C7.5 2.6875 7.375 2.25 7.1875 1.75C6.96875 1.25 6.6875 0.84375 6.34375 0.53125C5.9375 0.1875 5.5 0 5 0C4.40625 0 3.9375 0.25 3.625 0.71875C3.3125 1.15625 3.1875 1.65625 3.1875 2.21875C3.1875 2.6875 3.28125 3.15625 3.5 3.65625C3.6875 4.15625 4 4.53125 4.375 4.84375C4.75 5.21875 5.1875 5.375 5.6875 5.375ZM8.5 3.125C8.5 3.71875 8.625 4.21875 8.9375 4.625C9.25 5.125 9.71875 5.375 10.3125 5.375C10.7812 5.375 11.2188 5.21875 11.625 4.84375C12 4.53125 12.2812 4.15625 12.5 3.65625C12.6875 3.15625 12.8125 2.6875 12.8125 2.21875C12.8125 1.65625 12.6562 1.15625 12.375 0.71875C12.0312 0.25 11.5625 0 11 0C10.5 0 10.0312 0.1875 9.65625 0.53125C9.28125 0.84375 9 1.25 8.8125 1.75C8.59375 2.25 8.5 2.6875 8.5 3.125ZM16 6.21875C16 5.75 15.875 5.34375 15.625 5C15.3125 4.625 14.9375 4.40625 14.4375 4.40625C13.9375 4.40625 13.5 4.59375 13.0625 4.9375C12.6875 5.25 12.375 5.65625 12.125 6.15625C11.875 6.65625 11.7812 7.125 11.7812 7.59375C11.7812 8.0625 11.9062 8.46875 12.1562 8.78125C12.4375 9.15625 12.8125 9.34375 13.3125 9.34375C13.8125 9.34375 14.2812 9.1875 14.7188 8.84375C15.0938 8.53125 15.375 8.15625 15.625 7.65625C15.875 7.15625 16 6.6875 16 6.21875Z" fill="#D9435D"/>
</svg>
