<svg width="18" height="17" viewBox="0 0 18 17" fill="none" xmlns="http://www.w3.org/2000/svg">
<path d="M15.5742 4.80469C16.2773 4.80469 16.875 5.08594 17.332 5.57812C17.7539 6.10547 18 6.73828 18 7.47656C18 8.07422 17.8242 8.67188 17.543 9.26953C17.2617 9.86719 16.875 10.3594 16.3828 10.7461C15.8203 11.168 15.2578 11.4141 14.625 11.4492C15.1875 12.3633 15.5039 13.1719 15.5039 13.9453C15.5039 14.7188 15.2227 15.2812 14.6602 15.6328C14.168 15.9844 13.5 16.125 12.6211 16.125C12.2695 16.125 11.8828 16.0898 11.4961 15.9844C11.25 15.9141 10.8984 15.8086 10.4766 15.668C9.77344 15.457 9.28125 15.3164 8.96484 15.3164C8.64844 15.3164 8.12109 15.457 7.41797 15.668L6.36328 15.9844C5.94141 16.0898 5.51953 16.125 5.13281 16.125C4.28906 16.125 3.62109 15.9492 3.16406 15.5273C2.70703 15.1055 2.49609 14.5781 2.49609 13.9453C2.49609 13.1719 2.77734 12.3633 3.33984 11.4492C2.70703 11.4141 2.14453 11.2031 1.65234 10.7812C1.125 10.3594 0.703125 9.86719 0.421875 9.26953C0.140625 8.67188 0 8.07422 0 7.47656C0 6.73828 0.210938 6.10547 0.667969 5.57812C1.08984 5.08594 1.6875 4.80469 2.42578 4.80469C2.8125 4.80469 3.19922 4.91016 3.58594 5.05078C3.375 4.52344 3.26953 3.99609 3.26953 3.46875C3.26953 2.625 3.51562 1.92188 4.00781 1.28906C4.5 0.691406 5.13281 0.375 5.94141 0.375C6.60938 0.375 7.24219 0.621094 7.80469 1.07812C8.29688 1.5 8.71875 2.0625 9 2.73047C9.28125 2.0625 9.66797 1.5 10.1953 1.07812C10.7578 0.621094 11.3555 0.375 12.0586 0.375C12.832 0.375 13.5 0.691406 13.9922 1.28906C14.4844 1.92188 14.7305 2.625 14.7305 3.46875C14.7305 3.99609 14.625 4.52344 14.4141 5.05078C14.7656 4.91016 15.1523 4.80469 15.5742 4.80469ZM12.0586 2.0625C11.5664 2.0625 11.1797 2.34375 10.8281 2.87109C10.4766 3.36328 10.3359 3.85547 10.3711 4.38281C10.3711 4.73438 10.4414 5.05078 10.6172 5.33203C10.7578 5.61328 11.0039 5.75391 11.3555 5.75391C11.7773 5.75391 12.1992 5.50781 12.5508 4.98047C12.8672 4.48828 13.043 3.99609 13.043 3.46875C13.043 3.11719 12.9375 2.76562 12.7617 2.48438C12.5859 2.20312 12.3398 2.0625 12.0586 2.0625ZM9 5.89453C8.64844 6.59766 8.19141 7.08984 7.55859 7.30078C6.92578 7.54688 6.29297 7.54688 5.66016 7.26562C5.87109 7.79297 5.97656 8.28516 5.97656 8.77734C7.03125 8.07422 8.01562 7.72266 9 7.72266C9.94922 7.72266 10.9688 8.07422 12.0234 8.77734C12.0234 8.28516 12.1289 7.79297 12.3398 7.26562C11.6719 7.54688 11.0391 7.54688 10.4062 7.30078C9.77344 7.08984 9.31641 6.59766 9 5.89453ZM5.94141 2.0625C5.625 2.0625 5.37891 2.20312 5.20312 2.48438C5.02734 2.76562 4.95703 3.11719 4.95703 3.46875C4.95703 3.99609 5.09766 4.48828 5.44922 4.98047C5.80078 5.50781 6.1875 5.75391 6.64453 5.75391C6.96094 5.75391 7.20703 5.61328 7.38281 5.33203C7.55859 5.05078 7.66406 4.73438 7.66406 4.38281C7.66406 3.85547 7.48828 3.36328 7.17188 2.87109C6.82031 2.34375 6.39844 2.0625 5.94141 2.0625ZM3.55078 9.76172C3.79688 9.76172 3.97266 9.69141 4.11328 9.48047C4.21875 9.30469 4.28906 9.05859 4.28906 8.77734C4.28906 8.28516 4.07812 7.79297 3.72656 7.26562C3.33984 6.77344 2.91797 6.49219 2.42578 6.49219C2.10938 6.49219 1.89844 6.66797 1.79297 6.94922C1.72266 7.125 1.6875 7.30078 1.6875 7.47656C1.6875 8.00391 1.86328 8.53125 2.25 9.02344C2.63672 9.51562 3.05859 9.76172 3.55078 9.76172ZM13.6406 14.2969C13.8516 14.1914 13.8867 13.875 13.7109 13.3477C13.5 12.8203 13.1836 12.2578 12.6914 11.6602C12.1289 11.0273 11.5664 10.5 10.9688 10.0781C10.2656 9.62109 9.59766 9.375 9 9.375C8.36719 9.375 7.73438 9.62109 7.03125 10.0781C6.39844 10.5 5.83594 10.9922 5.34375 11.625C4.85156 12.2227 4.5 12.7852 4.28906 13.2773C4.07812 13.8047 4.11328 14.1562 4.35938 14.2969C4.57031 14.4375 4.95703 14.4727 5.44922 14.4023C5.73047 14.3672 6.22266 14.2617 6.92578 14.0508C7.875 13.7695 8.54297 13.6289 8.96484 13.6289C9.38672 13.6289 10.0547 13.7695 10.9688 14.0508C11.6016 14.2617 12.0938 14.3672 12.4102 14.4023C12.9023 14.5078 13.2891 14.4727 13.6406 14.2969ZM14.4492 9.76172C14.9062 9.76172 15.3281 9.51562 15.7148 9.02344C16.1016 8.53125 16.3125 8.00391 16.3125 7.47656C16.3125 7.30078 16.2773 7.125 16.207 6.94922C16.0664 6.66797 15.8555 6.49219 15.5742 6.49219C15.082 6.49219 14.625 6.77344 14.2734 7.26562C13.8867 7.79297 13.7109 8.28516 13.7109 8.77734C13.7109 9.05859 13.7461 9.30469 13.8867 9.48047C13.9922 9.69141 14.168 9.76172 14.4492 9.76172Z" fill="#D9435D"/>
</svg>
