<svg width="22" height="14" viewBox="0 0 22 14" fill="none" xmlns="http://www.w3.org/2000/svg">
<path d="M13.3203 6.26562C13.3906 6.66406 13.4258 7.03906 13.4258 7.39062C13.4258 9.33594 12.8281 10.9297 11.6328 12.1719C10.4375 13.3906 8.87891 14 6.95703 14C5.08203 14 3.48828 13.3438 2.17578 12.0312C0.863281 10.7188 0.207031 9.125 0.207031 7.25C0.207031 5.375 0.863281 3.78125 2.17578 2.46875C3.48828 1.15625 5.08203 0.5 6.95703 0.5C8.71484 0.5 10.2148 1.08594 11.457 2.25781L9.62891 4.01562C8.92578 3.33594 8.03516 2.99609 6.95703 2.99609C6.20703 2.99609 5.50391 3.18359 4.84766 3.55859C4.21484 3.93359 3.71094 4.44922 3.33594 5.10547C2.96094 5.76172 2.77344 6.47656 2.77344 7.25C2.77344 8.42188 3.18359 9.42969 4.00391 10.2734C4.82422 11.0938 5.80859 11.5039 6.95703 11.5039C8.12891 11.5039 9.03125 11.1875 9.66406 10.5547C10.2969 9.92188 10.6719 9.27734 10.7891 8.62109H6.95703V6.26562H13.3203ZM19.8242 6.51172H21.793V8.48047H19.8242V10.4492H17.8555V8.48047H15.9219V6.51172H17.8555V4.54297H19.8242V6.51172Z" fill="#DB4437"/>
</svg>
