<svg width="20" height="20" viewBox="0 0 20 20" fill="none" xmlns="http://www.w3.org/2000/svg">
<g clip-path="url(#clip0)">
<path d="M9.01539 14.0872C7.46492 13.9255 6.06695 13.5437 4.87006 12.6076C4.72155 12.4911 4.56822 12.3788 4.4327 12.2488C3.90882 11.7456 3.85604 11.1694 4.27057 10.5755C4.6252 10.0674 5.2205 9.93144 5.83926 10.2232C5.95908 10.2798 6.07323 10.3504 6.18257 10.4262C8.41318 11.9589 11.4775 12.0012 13.7164 10.4951C13.9383 10.325 14.1754 10.1864 14.4502 10.1156C14.9845 9.97836 15.4829 10.1746 15.7696 10.6422C16.0972 11.1761 16.093 11.6972 15.6894 12.1118C15.0702 12.7473 14.3256 13.2071 13.4982 13.528C12.7158 13.8313 11.8589 13.984 11.0108 14.0854C11.1387 14.2246 11.1991 14.2931 11.2791 14.3736C12.4307 15.5307 13.5874 16.6829 14.7353 17.8436C15.1263 18.2391 15.208 18.7294 14.9927 19.1894C14.7573 19.6921 14.2303 20.0229 13.7135 19.9875C13.3861 19.9648 13.1308 19.8019 12.9039 19.5734C12.0348 18.6988 11.1494 17.8404 10.2979 16.9494C10.0502 16.6903 9.93096 16.7393 9.71228 16.9642C8.83797 17.8643 7.94942 18.7506 7.05563 19.6318C6.65429 20.0275 6.17671 20.0987 5.71128 19.8727C5.21652 19.6328 4.90169 19.1278 4.92599 18.6203C4.94275 18.277 5.11158 18.0147 5.34723 17.7795C6.48693 16.6415 7.62349 15.5005 8.76047 14.3606C8.83567 14.2848 8.90584 14.2043 9.01539 14.0872Z" fill="#D9435D"/>
<path d="M9.95946 10.1232C7.19346 10.1137 4.92536 7.82072 4.94149 5.05033C4.95741 2.24935 7.22697 -0.0078524 10.0202 -0.000102172C12.8191 0.00743859 15.0656 2.29711 15.0516 5.1272C15.0373 7.89194 12.7535 10.1328 9.95946 10.1232ZM12.4733 5.05703C12.4684 3.68147 11.3729 2.58638 10.0001 2.58512C8.61573 2.58366 7.51038 3.69864 7.52106 5.08677C7.53133 6.4571 8.63626 7.54444 10.0129 7.53941C11.3853 7.53459 12.4779 6.43238 12.4733 5.05703Z" fill="#D9435D"/>
</g>
<defs>
<clipPath id="clip0">
<rect width="20" height="20" fill="white"/>
</clipPath>
</defs>
</svg>
