<svg width="1246" height="6" viewBox="0 0 1246 6" fill="none" xmlns="http://www.w3.org/2000/svg">
<path fill-rule="evenodd" clip-rule="evenodd" d="M0 4.5C0 5.32843 0.671573 6 1.5 6C5.09969 6 7.0357 5.15994 8.68771 4.34533C8.78148 4.2991 8.87349 4.25344 8.96412 4.20847L8.96546 4.2078C10.3417 3.5249 11.3995 3 13.444 3C15.4886 3 16.5464 3.5249 17.9226 4.2078L17.9226 4.20781L17.9231 4.20804L17.9262 4.20957C18.0161 4.25419 18.1074 4.29947 18.2004 4.34533C19.8524 5.15994 21.7884 6 25.3881 6C28.9877 6 30.9238 5.15994 32.5758 4.34533C32.67 4.29887 32.7625 4.25299 32.8535 4.2078C34.2297 3.5249 35.2875 3 37.3321 3C39.3767 3 40.4344 3.52489 41.8106 4.2078L41.8111 4.20803C41.902 4.25314 41.9943 4.29894 42.0884 4.34533C43.7404 5.15994 45.6764 6 49.2761 6C52.8758 6 54.8118 5.15994 56.4638 4.34533C56.5577 4.29902 56.6499 4.25329 56.7407 4.20825L56.7416 4.2078C58.1178 3.5249 59.1756 3 61.2201 3C63.2647 3 64.3225 3.5249 65.6987 4.2078C65.7898 4.25299 65.8822 4.29887 65.9765 4.34533C67.6285 5.15994 69.5645 6 73.1642 6C76.7639 6 78.6999 5.15994 80.3519 4.34533C80.4461 4.29887 80.5386 4.25299 80.6296 4.20781C82.0058 3.5249 83.0636 3 85.1082 3C87.1528 3 88.2106 3.52489 89.5868 4.2078C89.6778 4.25298 89.7703 4.29887 89.8645 4.34533C91.5057 5.15462 93.4273 5.98902 96.9819 5.99989L97 6L97.0261 5.99999L97.0522 6L97.0704 5.99989C100.625 5.98902 102.546 5.15462 104.188 4.34533C104.282 4.29887 104.374 4.25299 104.465 4.2078C105.842 3.5249 106.899 3 108.944 3C110.989 3 112.046 3.5249 113.423 4.2078C113.514 4.25299 113.606 4.29887 113.7 4.34533C115.352 5.15994 117.288 6 120.888 6C124.488 6 126.424 5.15994 128.076 4.34533C128.168 4.29991 128.258 4.25504 128.347 4.21083L128.351 4.20912L128.354 4.2078C129.73 3.5249 130.788 3 132.832 3C134.877 3 135.934 3.52489 137.311 4.2078L137.313 4.20886C137.403 4.2537 137.495 4.29923 137.588 4.34533C139.24 5.15994 141.176 6 144.776 6C148.376 6 150.312 5.15994 151.964 4.34533C152.056 4.29991 152.146 4.25504 152.235 4.21083L152.239 4.20912L152.242 4.2078C153.618 3.5249 154.676 3 156.72 3C158.765 3 159.823 3.5249 161.199 4.2078L161.201 4.20908C161.292 4.25386 161.383 4.29931 161.476 4.34533C163.128 5.15994 165.064 6 168.664 6C172.264 6 174.2 5.15994 175.852 4.34533C175.946 4.29887 176.039 4.25299 176.13 4.20781C177.506 3.5249 178.564 3 180.608 3C182.653 3 183.711 3.52489 185.087 4.2078L185.089 4.20886C185.179 4.2537 185.271 4.29923 185.365 4.34533C187.017 5.15994 188.953 6 192.552 6C192.628 6 192.703 5.99433 192.776 5.9834C192.849 5.99433 192.924 6 193 6C196.6 6 198.536 5.15994 200.188 4.34533C200.282 4.29887 200.374 4.25299 200.465 4.2078C201.842 3.5249 202.899 3 204.944 3C206.989 3 208.046 3.5249 209.423 4.2078C209.514 4.25299 209.606 4.29887 209.7 4.34533C211.352 5.15994 213.288 6 216.888 6C220.488 6 222.424 5.15994 224.076 4.34533C224.163 4.3023 224.249 4.25976 224.333 4.21782L224.347 4.21083L224.351 4.20912L224.354 4.2078C225.73 3.5249 226.788 3 228.832 3C230.877 3 231.934 3.52489 233.311 4.2078L233.313 4.20886C233.403 4.2537 233.495 4.29923 233.588 4.34533C235.24 5.15994 237.176 6 240.776 6C244.376 6 246.312 5.15994 247.964 4.34533C248.051 4.3023 248.137 4.25976 248.221 4.21782L248.235 4.21083L248.239 4.20912L248.242 4.2078C249.618 3.5249 250.676 3 252.72 3C254.765 3 255.823 3.5249 257.199 4.2078C257.29 4.25299 257.382 4.29887 257.476 4.34533C259.128 5.15994 261.064 6 264.664 6C268.264 6 270.2 5.15994 271.852 4.34533C271.946 4.29887 272.039 4.25299 272.13 4.20781C273.506 3.5249 274.564 3 276.608 3C278.653 3 279.711 3.52489 281.087 4.2078L281.095 4.21204L281.105 4.21662C281.19 4.25895 281.276 4.30189 281.365 4.34533C282.898 5.10168 284.677 5.87997 287.805 5.98743C287.869 5.99572 287.934 6 288 6C288.093 6 288.185 5.99944 288.276 5.99833C288.367 5.99944 288.459 6 288.552 6C288.618 6 288.684 5.99572 288.747 5.98742C291.875 5.87997 293.654 5.10168 295.188 4.34533C295.279 4.30046 295.368 4.25612 295.456 4.21244L295.465 4.2078C296.842 3.5249 297.899 3 299.944 3C301.989 3 303.046 3.5249 304.423 4.2078L304.432 4.21224L304.586 4.28901L304.7 4.34533C306.352 5.15994 308.288 6 311.888 6C315.488 6 317.424 5.15994 319.076 4.34533L319.232 4.2682L319.354 4.2078C320.73 3.5249 321.788 3 323.832 3C325.877 3 326.934 3.52489 328.311 4.2078L328.331 4.21811L328.34 4.22214C328.421 4.26268 328.504 4.30377 328.588 4.34533C330.24 5.15994 332.176 6 335.776 6C339.376 6 341.312 5.15994 342.964 4.34533C343.058 4.29887 343.151 4.25299 343.242 4.2078C344.618 3.5249 345.676 3 347.72 3C349.765 3 350.823 3.5249 352.199 4.2078C352.29 4.25299 352.382 4.29887 352.476 4.34533C354.128 5.15994 356.064 6 359.664 6C363.264 6 365.2 5.15994 366.852 4.34533C366.946 4.29887 367.039 4.25299 367.13 4.20781C368.506 3.5249 369.564 3 371.608 3C373.653 3 374.711 3.52489 376.087 4.2078L376.095 4.21204C376.184 4.25586 376.273 4.30032 376.365 4.34533C378.017 5.15994 379.953 6 383.552 6C383.628 6 383.703 5.99433 383.776 5.9834C383.849 5.99433 383.924 6 384 6C387.6 6 389.536 5.15994 391.188 4.34533C391.272 4.3036 391.355 4.26235 391.438 4.22164L391.456 4.21244L391.465 4.2078C392.842 3.5249 393.899 3 395.944 3C397.989 3 399.046 3.5249 400.423 4.2078L400.432 4.21224C400.52 4.25599 400.609 4.30039 400.7 4.34533C402.352 5.15994 404.288 6 407.888 6C411.488 6 413.424 5.15994 415.076 4.34533C415.17 4.29887 415.262 4.25299 415.354 4.2078C416.73 3.5249 417.788 3 419.832 3C421.877 3 422.934 3.52489 424.311 4.2078C424.402 4.25298 424.494 4.29887 424.588 4.34533C426.24 5.15994 428.176 6 431.776 6C435.376 6 437.312 5.15994 438.964 4.34533C439.058 4.29887 439.151 4.25299 439.242 4.2078C440.618 3.5249 441.676 3 443.72 3C445.765 3 446.823 3.5249 448.199 4.2078L448.208 4.21225L448.347 4.28128L448.476 4.34533C450.128 5.15994 452.064 6 455.664 6C459.264 6 461.2 5.15994 462.852 4.34533L462.99 4.27715L463.13 4.20781C464.506 3.5249 465.564 3 467.608 3C469.653 3 470.711 3.52489 472.087 4.2078L472.169 4.24869L472.244 4.28595L472.365 4.34533C473.898 5.10168 475.677 5.87997 478.805 5.98743C478.869 5.99572 478.934 6 479 6C479.093 6 479.185 5.99944 479.276 5.99833C479.367 5.99944 479.459 6 479.552 6C479.618 6 479.684 5.99572 479.747 5.98742C482.875 5.87997 484.654 5.10168 486.188 4.34533L486.371 4.25464L486.465 4.2078C487.842 3.5249 488.899 3 490.944 3C492.989 3 494.046 3.5249 495.423 4.2078L495.432 4.21224L495.561 4.27651L495.7 4.34533C497.352 5.15994 499.288 6 502.888 6C506.488 6 508.424 5.15994 510.076 4.34533L510.199 4.28429L510.354 4.2078C511.73 3.5249 512.788 3 514.832 3C516.877 3 517.934 3.5249 519.311 4.2078L519.454 4.27904L519.588 4.34533C521.24 5.15994 523.176 6 526.776 6C530.376 6 532.312 5.15994 533.964 4.34533C534.058 4.29887 534.151 4.25299 534.242 4.2078C535.618 3.5249 536.676 3 538.72 3C540.765 3 541.823 3.5249 543.199 4.2078L543.356 4.28568L543.476 4.34533C545.128 5.15994 547.065 6 550.664 6C554.264 6 556.2 5.15994 557.852 4.34533C557.946 4.29887 558.039 4.25298 558.13 4.2078C559.506 3.52489 560.564 3 562.608 3C564.653 3 565.711 3.52489 567.087 4.2078C567.178 4.25298 567.27 4.29887 567.365 4.34533C569.017 5.15994 570.953 6 574.552 6C574.628 6 574.703 5.99433 574.776 5.9834C574.849 5.99433 574.924 6 575 6C578.6 6 580.536 5.15994 582.188 4.34533C582.282 4.29887 582.374 4.25299 582.465 4.2078C583.842 3.5249 584.899 3 586.944 3C588.989 3 590.046 3.5249 591.423 4.2078C591.514 4.25299 591.606 4.29887 591.7 4.34533C593.352 5.15994 595.288 6 598.888 6C602.488 6 604.424 5.15994 606.076 4.34533C606.17 4.29887 606.262 4.25299 606.354 4.2078C607.73 3.5249 608.788 3 610.832 3C612.877 3 613.934 3.52489 615.311 4.2078L615.479 4.29124L615.588 4.34533C617.24 5.15994 619.176 6 622.776 6C626.376 6 628.312 5.15994 629.964 4.34533L630.131 4.26264L630.242 4.2078C631.618 3.5249 632.676 3 634.72 3C636.765 3 637.823 3.5249 639.199 4.2078C639.29 4.25299 639.382 4.29887 639.476 4.34533C641.128 5.15994 643.065 6 646.664 6C650.264 6 652.2 5.15994 653.852 4.34533C653.946 4.29887 654.039 4.25299 654.13 4.20781C655.506 3.5249 656.564 3 658.608 3C660.653 3 661.711 3.52489 663.087 4.2078C663.178 4.25298 663.27 4.29887 663.365 4.34533C664.898 5.10168 666.677 5.87997 669.805 5.98743C669.869 5.99572 669.934 6 670 6C670.093 6 670.185 5.99944 670.276 5.99833L670.334 5.99896L670.436 5.99971L670.552 6C670.618 6 670.684 5.99572 670.747 5.98742C673.875 5.87997 675.654 5.10168 677.188 4.34533L677.296 4.29187L677.465 4.2078C678.842 3.5249 679.899 3 681.944 3C683.989 3 685.046 3.5249 686.423 4.2078L686.582 4.28663L686.7 4.34533C688.352 5.15994 690.288 6 693.888 6C697.488 6 699.424 5.15994 701.076 4.34533C701.17 4.29887 701.262 4.25299 701.354 4.2078C702.73 3.5249 703.788 3 705.832 3C707.877 3 708.934 3.52489 710.311 4.2078C710.402 4.25298 710.494 4.29887 710.588 4.34533C712.24 5.15994 714.176 6 717.776 6C721.376 6 723.312 5.15994 724.964 4.34533L725.117 4.26958L725.242 4.2078C726.618 3.5249 727.676 3 729.72 3C731.765 3 732.823 3.5249 734.199 4.2078C734.29 4.25299 734.382 4.29887 734.476 4.34533C736.128 5.15994 738.065 6 741.664 6C745.264 6 747.2 5.15994 748.852 4.34533C748.946 4.29887 749.039 4.25299 749.13 4.20781C750.506 3.5249 751.564 3 753.608 3C755.653 3 756.711 3.52489 758.087 4.2078C758.178 4.25298 758.27 4.29887 758.365 4.34533C760.017 5.15994 761.953 6 765.552 6C765.628 6 765.703 5.99433 765.776 5.9834C765.849 5.99433 765.924 6 766 6C769.6 6 771.536 5.15994 773.188 4.34533C773.282 4.29887 773.374 4.25299 773.465 4.2078C774.842 3.5249 775.899 3 777.944 3C779.989 3 781.046 3.5249 782.423 4.2078C782.514 4.25299 782.606 4.29887 782.7 4.34533C784.352 5.15994 786.288 6 789.888 6C793.488 6 795.424 5.15994 797.076 4.34533C797.17 4.29887 797.262 4.25299 797.354 4.2078C798.73 3.5249 799.788 3 801.832 3C803.877 3 804.934 3.52489 806.311 4.2078C806.402 4.25298 806.494 4.29887 806.588 4.34533C808.24 5.15994 810.176 6 813.776 6C817.376 6 819.312 5.15994 820.964 4.34533C821.058 4.29887 821.151 4.25299 821.242 4.2078C822.618 3.5249 823.676 3 825.72 3C827.765 3 828.823 3.5249 830.199 4.2078L830.335 4.27536L830.476 4.34533C832.128 5.15994 834.065 6 837.664 6C841.264 6 843.2 5.15994 844.852 4.34533L845.028 4.25846L845.13 4.20781C846.506 3.5249 847.564 3 849.608 3C851.653 3 852.711 3.52489 854.087 4.2078C854.178 4.25298 854.27 4.29887 854.365 4.34533C856.017 5.15994 857.953 6 861.552 6C861.628 6 861.703 5.99433 861.776 5.9834C861.849 5.99433 861.924 6 862 6C865.6 6 867.536 5.15994 869.188 4.34533L869.3 4.29001L869.465 4.2078C870.842 3.5249 871.899 3 873.944 3C875.989 3 877.046 3.5249 878.423 4.2078L878.537 4.26438L878.7 4.34533C880.352 5.15994 882.288 6 885.888 6C889.488 6 891.424 5.15994 893.076 4.34533C893.17 4.29887 893.262 4.25299 893.354 4.2078C894.73 3.5249 895.788 3 897.832 3C899.877 3 900.934 3.52489 902.311 4.2078C902.402 4.25298 902.494 4.29887 902.588 4.34533C904.24 5.15994 906.176 6 909.776 6C913.376 6 915.312 5.15994 916.964 4.34533C917.058 4.29887 917.151 4.25299 917.242 4.2078C918.618 3.5249 919.676 3 921.72 3C923.765 3 924.823 3.5249 926.199 4.2078C926.29 4.25299 926.382 4.29887 926.476 4.34533C928.128 5.15994 930.065 6 933.664 6C937.264 6 939.2 5.15994 940.852 4.34533L941.02 4.26221L941.13 4.20781C942.506 3.5249 943.564 3 945.608 3C947.653 3 948.711 3.52489 950.087 4.2078C950.178 4.25298 950.27 4.29887 950.365 4.34533C951.898 5.10168 953.677 5.87997 956.805 5.98743C956.869 5.99572 956.934 6 957 6C957.093 6 957.185 5.99944 957.276 5.99833L957.372 5.99929C957.432 5.99976 957.492 6 957.552 6C957.618 6 957.684 5.99572 957.747 5.98742C960.875 5.87997 962.654 5.10168 964.188 4.34533C964.282 4.29887 964.374 4.25299 964.465 4.2078C965.842 3.5249 966.899 3 968.944 3C970.989 3 972.046 3.5249 973.423 4.2078L973.519 4.25573L973.7 4.34533C975.352 5.15994 977.288 6 980.888 6C984.488 6 986.424 5.15994 988.076 4.34533C988.17 4.29887 988.262 4.25299 988.354 4.2078C989.73 3.5249 990.788 3 992.832 3C994.877 3 995.934 3.52489 997.311 4.2078L997.404 4.25386L997.588 4.34533C999.24 5.15994 1001.18 6 1004.78 6C1008.38 6 1010.31 5.15994 1011.96 4.34533C1012.06 4.29887 1012.15 4.25299 1012.24 4.2078C1013.62 3.5249 1014.68 3 1016.72 3C1018.76 3 1019.82 3.5249 1021.2 4.2078L1021.36 4.29006L1021.48 4.34533C1023.13 5.15994 1025.06 6 1028.66 6C1032.26 6 1034.2 5.15994 1035.85 4.34533C1035.95 4.29887 1036.04 4.25299 1036.13 4.20781C1037.51 3.5249 1038.56 3 1040.61 3C1042.65 3 1043.71 3.52489 1045.09 4.2078C1045.18 4.25298 1045.27 4.29887 1045.36 4.34533C1047.02 5.15994 1048.95 6 1052.55 6C1052.63 6 1052.7 5.99433 1052.78 5.9834C1052.85 5.99433 1052.92 6 1053 6C1056.6 6 1058.54 5.15994 1060.19 4.34533C1060.28 4.29887 1060.37 4.25299 1060.47 4.2078C1061.84 3.5249 1062.9 3 1064.94 3C1066.99 3 1068.05 3.5249 1069.42 4.2078L1069.44 4.21775C1069.53 4.25972 1069.61 4.30227 1069.7 4.34533C1071.35 5.15994 1073.29 6 1076.89 6C1080.49 6 1082.42 5.15994 1084.08 4.34533C1084.16 4.30227 1084.25 4.25972 1084.33 4.21775L1084.35 4.2078C1085.73 3.5249 1086.79 3 1088.83 3C1090.88 3 1091.93 3.52489 1093.31 4.2078C1093.4 4.25298 1093.49 4.29887 1093.59 4.34533C1095.24 5.15994 1097.18 6 1100.78 6C1104.38 6 1106.31 5.15994 1107.96 4.34533L1108.11 4.27386L1108.24 4.2078C1109.62 3.5249 1110.68 3 1112.72 3C1114.76 3 1115.82 3.5249 1117.2 4.2078L1117.22 4.21775C1117.3 4.25972 1117.39 4.30227 1117.48 4.34533C1119.13 5.15994 1121.06 6 1124.66 6C1128.26 6 1130.2 5.15994 1131.85 4.34533L1131.97 4.28794L1132.13 4.20781C1133.51 3.5249 1134.56 3 1136.61 3C1138.65 3 1139.71 3.52489 1141.09 4.2078C1141.18 4.25298 1141.27 4.29887 1141.36 4.34533C1142.9 5.10169 1144.68 5.87998 1147.8 5.98743C1147.87 5.99572 1147.93 6 1148 6C1148.09 6 1148.19 5.99944 1148.28 5.99833C1148.37 5.99944 1148.46 6 1148.55 6C1148.62 6 1148.68 5.99572 1148.75 5.98742C1151.88 5.87997 1153.65 5.10169 1155.19 4.34533L1155.31 4.28507L1155.47 4.2078C1156.84 3.5249 1157.9 3 1159.94 3C1161.99 3 1163.05 3.5249 1164.42 4.2078C1164.51 4.25299 1164.61 4.29887 1164.7 4.34533C1166.35 5.15994 1168.29 6 1171.89 6C1175.49 6 1177.42 5.15994 1179.08 4.34533L1179.25 4.26091L1179.35 4.2078C1180.73 3.5249 1181.79 3 1183.83 3C1185.88 3 1186.93 3.52489 1188.31 4.2078C1188.4 4.25298 1188.49 4.29887 1188.59 4.34533C1190.24 5.15994 1192.18 6 1195.78 6C1199.38 6 1201.31 5.15994 1202.96 4.34533C1203.05 4.30227 1203.14 4.25972 1203.22 4.21775L1203.24 4.2078C1204.62 3.5249 1205.68 3 1207.72 3C1209.76 3 1210.82 3.5249 1212.2 4.2078L1212.22 4.21775C1212.3 4.25972 1212.39 4.30227 1212.48 4.34533C1214.13 5.15994 1216.06 6 1219.66 6C1223.26 6 1225.2 5.15994 1226.85 4.34533C1226.95 4.29887 1227.04 4.25299 1227.13 4.20781C1228.51 3.5249 1229.56 3 1231.61 3C1233.65 3 1234.71 3.52489 1236.09 4.2078C1236.18 4.25298 1236.27 4.29887 1236.36 4.34533C1238.02 5.15994 1239.95 6 1243.55 6C1244.38 6 1245.05 5.32843 1245.05 4.5C1245.05 3.67157 1244.38 3 1243.55 3C1240.56 3 1239.08 2.34006 1237.69 1.65467C1237.59 1.60687 1237.5 1.55845 1237.4 1.50969C1235.96 0.792054 1234.36 0 1231.61 0C1228.85 0 1227.26 0.792054 1225.82 1.50969L1225.8 1.51639C1225.71 1.56288 1225.62 1.60906 1225.53 1.65467C1224.14 2.34006 1222.66 3 1219.66 3C1216.67 3 1215.19 2.34006 1213.8 1.65467C1213.71 1.60687 1213.61 1.55845 1213.51 1.50969C1212.07 0.792054 1210.48 0 1207.72 0C1204.96 0 1203.37 0.792054 1201.93 1.50969L1201.92 1.51638C1201.82 1.56288 1201.73 1.60905 1201.64 1.65467C1200.25 2.34006 1198.77 3 1195.78 3C1192.78 3 1191.31 2.34006 1189.92 1.65467C1189.82 1.60905 1189.73 1.56288 1189.64 1.51638L1189.62 1.50969C1188.18 0.792054 1186.59 0 1183.83 0C1181.08 0 1179.48 0.792055 1178.04 1.50969L1178.03 1.51638C1177.93 1.56288 1177.84 1.60905 1177.75 1.65467C1176.36 2.34006 1174.88 3 1171.89 3C1168.89 3 1167.42 2.34006 1166.03 1.65467C1165.93 1.60905 1165.84 1.56288 1165.75 1.51638L1165.73 1.50969C1164.29 0.792053 1162.7 0 1159.94 0C1157.19 0 1155.6 0.792053 1154.15 1.50969L1154.14 1.51638C1154.05 1.56288 1153.95 1.60905 1153.86 1.65467C1152.51 2.31867 1151.09 2.95879 1148.28 2.99809C1145.46 2.95879 1144.04 2.31867 1142.69 1.65467C1142.59 1.60687 1142.5 1.55845 1142.4 1.50969C1140.96 0.792054 1139.36 0 1136.61 0C1133.85 0 1132.26 0.792054 1130.82 1.50969C1130.72 1.55845 1130.62 1.60687 1130.53 1.65467C1129.14 2.34006 1127.66 3 1124.66 3C1121.67 3 1120.19 2.34006 1118.8 1.65467C1118.71 1.60905 1118.62 1.56288 1118.52 1.51638L1118.51 1.50969C1117.07 0.792054 1115.48 0 1112.72 0C1109.96 0 1108.37 0.792054 1106.93 1.50969L1106.92 1.51638C1106.82 1.56288 1106.73 1.60905 1106.64 1.65467C1105.25 2.34006 1103.77 3 1100.78 3C1097.78 3 1096.31 2.34006 1094.92 1.65467C1094.82 1.60905 1094.73 1.56288 1094.64 1.51638L1094.62 1.50969C1093.18 0.792054 1091.59 0 1088.83 0C1086.08 0 1084.48 0.792055 1083.04 1.50969L1083.03 1.51638L1082.84 1.60729L1082.75 1.65467C1081.36 2.34006 1079.88 3 1076.89 3C1073.89 3 1072.42 2.34006 1071.03 1.65467C1070.93 1.60687 1070.83 1.55845 1070.73 1.50969C1069.29 0.792053 1067.7 0 1064.94 0C1062.19 0 1060.6 0.792053 1059.15 1.50969L1059.02 1.57649L1058.86 1.65467C1057.47 2.34006 1056 3 1053 3C1052.92 3 1052.85 3.00567 1052.78 3.0166C1052.7 3.00567 1052.63 3 1052.55 3C1049.56 3 1048.08 2.34006 1046.69 1.65467C1046.6 1.60905 1046.51 1.56288 1046.41 1.51638L1046.4 1.50969C1044.96 0.792054 1043.36 0 1040.61 0C1037.85 0 1036.26 0.792054 1034.82 1.50969L1034.8 1.51639C1034.71 1.56288 1034.62 1.60906 1034.53 1.65467C1033.14 2.34006 1031.66 3 1028.66 3C1025.67 3 1024.19 2.34006 1022.8 1.65467C1022.72 1.61564 1022.64 1.5762 1022.56 1.5365L1022.55 1.52964L1022.52 1.51638L1022.51 1.50969C1021.07 0.792054 1019.48 0 1016.72 0C1013.96 0 1012.37 0.792054 1010.93 1.50969L1010.92 1.51638C1010.82 1.56288 1010.73 1.60905 1010.64 1.65467C1009.25 2.34006 1007.77 3 1004.78 3C1001.78 3 1000.31 2.34006 998.915 1.65467C998.818 1.60687 998.721 1.55845 998.623 1.50969C997.181 0.792054 995.589 0 992.832 0C990.076 0 988.484 0.792055 987.041 1.50969L987.028 1.51638C986.934 1.56288 986.841 1.60905 986.749 1.65467C985.359 2.34006 983.885 3 980.888 3C977.891 3 976.417 2.34006 975.027 1.65467C974.935 1.60905 974.842 1.56288 974.748 1.51638L974.735 1.50969C973.292 0.792053 971.701 0 968.944 0C966.188 0 964.596 0.792053 963.153 1.50969C963.055 1.55845 962.958 1.60687 962.861 1.65467C961.514 2.31867 960.089 2.95879 957.276 2.99809C954.464 2.95879 953.038 2.31867 951.691 1.65467C951.599 1.60905 951.506 1.56288 951.412 1.51638L951.399 1.50969C949.957 0.792054 948.365 0 945.608 0C942.852 0 941.26 0.792054 939.817 1.50969C939.719 1.55845 939.622 1.60687 939.525 1.65467C938.135 2.34006 936.661 3 933.664 3C930.667 3 929.193 2.34006 927.803 1.65467C927.724 1.61564 927.645 1.5762 927.565 1.5365L927.551 1.52964L927.524 1.51638L927.511 1.50969C926.069 0.792054 924.477 0 921.72 0C918.964 0 917.372 0.792054 915.929 1.50969L915.916 1.51638L915.889 1.52964L915.875 1.5365C915.796 1.5762 915.716 1.61564 915.637 1.65467C914.247 2.34006 912.773 3 909.776 3C906.779 3 905.305 2.34006 903.915 1.65467L903.765 1.58012L903.623 1.50969C902.181 0.792054 900.589 0 897.832 0C895.076 0 893.484 0.792055 892.041 1.50969L892.028 1.51638L892.001 1.52967L891.901 1.5795L891.749 1.65467C890.359 2.34006 888.885 3 885.888 3C882.891 3 881.417 2.34006 880.027 1.65467L879.867 1.57541L879.748 1.51638L879.735 1.50969C878.292 0.792053 876.701 0 873.944 0C871.188 0 869.596 0.792053 868.153 1.50969L868.023 1.57448L867.861 1.65467C866.471 2.34006 864.997 3 862 3C861.924 3 861.849 3.00567 861.776 3.0166C861.703 3.00567 861.628 3 861.552 3C858.555 3 857.081 2.34006 855.691 1.65467C855.594 1.60687 855.497 1.55845 855.399 1.50969C853.957 0.792054 852.365 0 849.608 0C846.852 0 845.26 0.792054 843.817 1.50969L843.804 1.51639L843.797 1.51993L843.767 1.53483C843.686 1.57509 843.605 1.61509 843.525 1.65467C842.135 2.34006 840.661 3 837.664 3C834.667 3 833.193 2.34006 831.803 1.65467C831.706 1.60687 831.609 1.55845 831.511 1.50969C830.069 0.792054 828.477 0 825.72 0C822.964 0 821.372 0.792054 819.929 1.50969L819.916 1.51638L819.889 1.52964L819.875 1.5365L819.846 1.55119C819.776 1.58593 819.706 1.62046 819.637 1.65467C818.247 2.34006 816.773 3 813.776 3C810.779 3 809.305 2.34006 807.915 1.65467L807.79 1.5927L807.636 1.51638L807.623 1.50969C806.181 0.792054 804.589 0 801.832 0C799.076 0 797.484 0.792055 796.041 1.50969L796.028 1.51638L796.001 1.52967L795.987 1.53659L795.871 1.5943L795.749 1.65467C794.359 2.34006 792.885 3 789.888 3C786.891 3 785.417 2.34006 784.027 1.65467C783.93 1.60687 783.833 1.55845 783.735 1.50969C782.292 0.792053 780.701 0 777.944 0C775.188 0 773.596 0.792053 772.153 1.50969L772.14 1.51638L771.972 1.59998L771.861 1.65467C770.471 2.34006 768.997 3 766 3C765.924 3 765.849 3.00567 765.776 3.0166C765.703 3.00567 765.628 3 765.552 3C762.555 3 761.081 2.34006 759.691 1.65467C759.629 1.62381 759.566 1.5927 759.503 1.5614L759.412 1.51638L759.399 1.50969C757.957 0.792054 756.365 0 753.608 0C750.852 0 749.26 0.792054 747.817 1.50969L747.804 1.51639L747.797 1.51993C747.706 1.56523 747.615 1.61021 747.525 1.65467C746.135 2.34006 744.661 3 741.664 3C738.667 3 737.193 2.34006 735.803 1.65467L735.689 1.59827L735.551 1.52964L735.524 1.51638L735.511 1.50969C734.069 0.792054 732.477 0 729.72 0C726.964 0 725.372 0.792054 723.929 1.50969L723.916 1.51638L723.889 1.52964L723.875 1.5365L723.846 1.55119C723.776 1.58593 723.706 1.62046 723.637 1.65467C722.247 2.34006 720.773 3 717.776 3C714.779 3 713.305 2.34006 711.915 1.65467C711.818 1.60687 711.721 1.55845 711.623 1.50969C710.181 0.792054 708.589 0 705.832 0C703.076 0 701.484 0.792055 700.041 1.50969C699.943 1.55845 699.846 1.60687 699.749 1.65467C698.359 2.34006 696.885 3 693.888 3C690.891 3 689.417 2.34006 688.027 1.65467C687.93 1.60687 687.833 1.55845 687.735 1.50969C686.292 0.792053 684.701 0 681.944 0C679.188 0 677.596 0.792053 676.153 1.50969L676.14 1.51638L676.113 1.52971C676.029 1.5717 675.945 1.61341 675.861 1.65467C674.514 2.31867 673.089 2.95879 670.276 2.99809C667.464 2.95879 666.038 2.31867 664.691 1.65467C664.608 1.61339 664.524 1.57166 664.439 1.52964L664.412 1.51638L664.399 1.50969C662.957 0.792054 661.365 0 658.608 0C655.852 0 654.26 0.792054 652.817 1.50969L652.804 1.51639C652.71 1.56288 652.618 1.60906 652.525 1.65467C651.135 2.34006 649.661 3 646.664 3C643.667 3 642.193 2.34006 640.803 1.65467C640.706 1.60687 640.609 1.55845 640.511 1.50969C639.069 0.792054 637.477 0 634.72 0C631.964 0 630.372 0.792054 628.929 1.50969L628.916 1.51638L628.889 1.52964L628.777 1.58561L628.637 1.65467C627.247 2.34006 625.773 3 622.776 3C619.779 3 618.305 2.34006 616.915 1.65467C616.818 1.60687 616.721 1.55845 616.623 1.50969C615.181 0.792054 613.589 0 610.832 0C608.076 0 606.484 0.792055 605.041 1.50969L605.028 1.51638C604.934 1.56288 604.841 1.60905 604.749 1.65467C603.359 2.34006 601.885 3 598.888 3C595.891 3 594.417 2.34006 593.027 1.65467C592.943 1.61341 592.859 1.5717 592.775 1.52971L592.748 1.51638L592.735 1.50969C591.292 0.792053 589.701 0 586.944 0C584.188 0 582.596 0.792053 581.153 1.50969C581.055 1.55845 580.958 1.60687 580.861 1.65467C579.471 2.34006 577.997 3 575 3C574.924 3 574.849 3.00567 574.776 3.0166C574.703 3.00567 574.628 3 574.552 3C571.555 3 570.081 2.34006 568.691 1.65467C568.599 1.60908 568.506 1.56293 568.413 1.51646L568.399 1.50969C566.957 0.792054 565.365 0 562.608 0C559.852 0 558.26 0.792054 556.817 1.50969C556.719 1.55845 556.622 1.60687 556.525 1.65467C555.135 2.34006 553.661 3 550.664 3C547.667 3 546.193 2.34006 544.803 1.65467C544.731 1.61929 544.66 1.58357 544.587 1.54763L544.563 1.53579L544.525 1.51646L544.511 1.50969C543.069 0.792054 541.477 0 538.72 0C535.964 0 534.372 0.792054 532.929 1.50969L532.916 1.51638C532.822 1.56288 532.73 1.60905 532.637 1.65467C531.247 2.34006 529.773 3 526.776 3C523.779 3 522.305 2.34006 520.915 1.65467C520.831 1.61339 520.748 1.57166 520.663 1.52964L520.636 1.51638L520.623 1.50969C519.181 0.792054 517.589 0 514.832 0C512.076 0 510.484 0.792053 509.041 1.50969L509.028 1.51617C508.935 1.56274 508.842 1.60898 508.749 1.65467C507.359 2.34006 505.885 3 502.888 3C499.891 3 498.417 2.34006 497.027 1.65467C496.93 1.60687 496.833 1.55845 496.735 1.50969C495.293 0.792054 493.701 0 490.944 0C488.188 0 486.596 0.792053 485.153 1.50969L485.14 1.51617C485.047 1.56274 484.954 1.60898 484.861 1.65467C483.514 2.31867 482.089 2.95879 479.276 2.99809C476.464 2.95879 475.038 2.31867 473.691 1.65467C473.594 1.60687 473.497 1.55845 473.399 1.50969C471.957 0.792054 470.365 0 467.608 0C464.852 0 463.26 0.792054 461.817 1.50969L461.804 1.51617C461.711 1.56274 461.618 1.60898 461.525 1.65467C460.135 2.34006 458.661 3 455.664 3C452.667 3 451.193 2.34006 449.803 1.65467C449.711 1.60898 449.618 1.56274 449.524 1.51617L449.511 1.50969C448.069 0.792054 446.477 0 443.72 0C440.964 0 439.372 0.792054 437.929 1.50969C437.831 1.55845 437.734 1.60687 437.637 1.65467C436.247 2.34006 434.773 3 431.776 3C428.779 3 427.305 2.34006 425.915 1.65467C425.818 1.60687 425.721 1.55845 425.623 1.50969C424.181 0.792054 422.589 0 419.832 0C417.076 0 415.484 0.792055 414.041 1.50969L414.038 1.51153L414.031 1.51502C413.936 1.56198 413.842 1.60861 413.749 1.65467C412.359 2.34006 410.885 3 407.888 3C404.891 3 403.417 2.34006 402.027 1.65467C401.934 1.60898 401.841 1.56274 401.748 1.51617L401.735 1.50969C400.293 0.792053 398.701 0 395.944 0C393.188 0 391.596 0.792053 390.153 1.50969L390.14 1.51617C390.047 1.56274 389.954 1.60898 389.861 1.65467C388.471 2.34006 386.997 3 384 3C383.924 3 383.849 3.00567 383.776 3.0166C383.703 3.00567 383.628 3 383.552 3C380.555 3 379.081 2.34006 377.691 1.65467C377.594 1.60687 377.497 1.55845 377.399 1.50969C375.957 0.792054 374.365 0 371.608 0C368.852 0 367.26 0.792054 365.817 1.50969L365.804 1.51617C365.711 1.56274 365.618 1.60898 365.525 1.65467C364.135 2.34006 362.661 3 359.664 3C356.667 3 355.193 2.34006 353.803 1.65467C353.711 1.60898 353.618 1.56274 353.524 1.51617L353.511 1.50969C352.069 0.792054 350.477 0 347.72 0C344.964 0 343.372 0.792054 341.929 1.50969L341.926 1.51153L341.919 1.51506L341.915 1.51703L341.907 1.52098C341.816 1.56592 341.727 1.61056 341.637 1.65467C340.247 2.34006 338.773 3 335.776 3C332.779 3 331.305 2.34006 329.915 1.65467C329.823 1.60898 329.73 1.56274 329.636 1.51617L329.623 1.50969C328.181 0.792054 326.589 0 323.832 0C321.076 0 319.484 0.792055 318.041 1.50969L318.038 1.51153L318.031 1.51502C317.936 1.56198 317.842 1.60861 317.749 1.65467C316.359 2.34006 314.885 3 311.888 3C308.891 3 307.417 2.34006 306.027 1.65467C305.934 1.60898 305.841 1.56274 305.748 1.51617L305.735 1.50969C304.293 0.792053 302.701 0 299.944 0C297.188 0 295.596 0.792053 294.153 1.50969L294.14 1.51617C294.047 1.56274 293.954 1.60898 293.861 1.65467C292.514 2.31867 291.089 2.95879 288.276 2.99809C285.464 2.95879 284.038 2.31867 282.691 1.65467C282.594 1.60687 282.497 1.55845 282.399 1.50969C280.957 0.792054 279.365 0 276.608 0C273.852 0 272.26 0.792054 270.817 1.50969L270.804 1.51617C270.711 1.56274 270.618 1.60898 270.525 1.65467C269.135 2.34006 267.661 3 264.664 3C261.667 3 260.193 2.34006 258.803 1.65467C258.706 1.60687 258.609 1.55845 258.511 1.50969C257.069 0.792054 255.477 0 252.72 0C249.964 0 248.372 0.792054 246.929 1.50969C246.831 1.55845 246.734 1.60687 246.637 1.65467C245.247 2.34006 243.773 3 240.776 3C237.779 3 236.305 2.34006 234.915 1.65467C234.818 1.60687 234.721 1.55845 234.623 1.50969C233.181 0.792054 231.589 0 228.832 0C226.076 0 224.484 0.792055 223.041 1.50969L223.037 1.51157C222.941 1.5597 222.845 1.60748 222.749 1.65467C221.359 2.34006 219.885 3 216.888 3C213.891 3 212.417 2.34006 211.027 1.65467C210.93 1.60687 210.833 1.55845 210.735 1.50969C209.292 0.792053 207.701 0 204.944 0C202.188 0 200.596 0.792053 199.153 1.50969C199.055 1.55845 198.958 1.60687 198.861 1.65467C197.471 2.34006 195.997 3 193 3C192.924 3 192.849 3.00567 192.776 3.0166C192.703 3.00567 192.628 3 192.552 3C189.555 3 188.081 2.34006 186.691 1.65467C186.596 1.60747 186.5 1.55968 186.403 1.51154L186.399 1.50969C184.957 0.792054 183.365 0 180.608 0C177.852 0 176.26 0.792054 174.817 1.50969L174.814 1.51157C174.717 1.5597 174.621 1.60748 174.525 1.65467C173.135 2.34006 171.661 3 168.664 3C165.667 3 164.193 2.34006 162.803 1.65467C162.711 1.60935 162.619 1.56349 162.526 1.5173L162.515 1.51154L162.511 1.50969C161.069 0.792054 159.477 0 156.72 0C153.964 0 152.372 0.792054 150.929 1.50969L150.926 1.51157C150.829 1.5597 150.733 1.60748 150.637 1.65467C149.247 2.34006 147.773 3 144.776 3C141.779 3 140.305 2.34006 138.915 1.65467C138.818 1.60687 138.721 1.55845 138.623 1.50969C137.181 0.792054 135.589 0 132.832 0C130.076 0 128.484 0.792055 127.041 1.50969L127.037 1.51157L127.035 1.51268L127.034 1.51351C126.938 1.56098 126.843 1.60812 126.749 1.65467C125.359 2.34006 123.885 3 120.888 3C117.891 3 116.417 2.34006 115.027 1.65467C114.93 1.60687 114.833 1.55845 114.735 1.50969C113.292 0.792053 111.701 0 108.944 0C106.188 0 104.596 0.792053 103.153 1.50969C103.055 1.55845 102.958 1.60687 102.861 1.65467C101.475 2.33806 100.005 2.99616 97.0261 2.99998C94.0468 2.99616 92.5772 2.33806 91.1913 1.65467C91.0944 1.60687 90.9971 1.55845 90.8991 1.50969C89.4567 0.792054 87.8647 0 85.1082 0C82.3517 0 80.7597 0.792054 79.3174 1.50969C79.2194 1.55845 79.1221 1.60687 79.0251 1.65467C77.6352 2.34006 76.161 3 73.1642 3C70.1674 3 68.6932 2.34006 67.3032 1.65467C67.2063 1.60687 67.109 1.55845 67.011 1.50969C65.5686 0.792054 63.9767 0 61.2201 0C58.4636 0 56.8717 0.792054 55.4293 1.50969C55.3313 1.55845 55.234 1.60687 55.1371 1.65467C53.7471 2.34006 52.2729 3 49.2761 3C46.2793 3 44.8051 2.34006 43.4152 1.65467C43.3182 1.60687 43.2209 1.55845 43.1229 1.50969C41.6806 0.792054 40.0886 0 37.3321 0C34.5756 0 32.9836 0.792055 31.5412 1.50969C31.4432 1.55845 31.3459 1.60687 31.249 1.65467C29.859 2.34006 28.3849 3 25.3881 3C22.3912 3 20.9171 2.34006 19.5271 1.65467C19.4302 1.60687 19.3329 1.55845 19.2349 1.50969C17.7925 0.792053 16.2006 0 13.444 0C10.6875 0 9.09556 0.792053 7.65319 1.50969C7.55518 1.55845 7.45787 1.60687 7.36094 1.65467C5.97098 2.34006 4.49682 3 1.5 3C0.671573 3 0 3.67157 0 4.5Z" fill="#E0E0E0"/>
</svg>
