<svg width="16" height="19" viewBox="0 0 16 19" fill="none" xmlns="http://www.w3.org/2000/svg">
<path d="M11.0391 10.9375C11.8828 10.9375 12.6562 11.1484 13.3945 11.5703C14.0977 11.9922 14.6953 12.5898 15.1172 13.293C15.5391 14.0312 15.75 14.8047 15.75 15.6484V16.5625C15.75 17.0547 15.5742 17.4414 15.2578 17.7578C14.9062 18.1094 14.5195 18.25 14.0625 18.25H1.6875C1.19531 18.25 0.808594 18.1094 0.492188 17.7578C0.140625 17.4414 0 17.0547 0 16.5625V15.6484C0 14.8047 0.210938 14.0312 0.632812 13.293C1.05469 12.5898 1.61719 11.9922 2.35547 11.5703C3.05859 11.1484 3.86719 10.9375 4.71094 10.9375C4.99219 10.9375 5.41406 11.043 5.90625 11.1836C6.22266 11.2891 6.50391 11.3594 6.71484 11.3945C7.06641 11.4648 7.45312 11.5 7.875 11.5C8.29688 11.5 8.68359 11.4648 9.03516 11.3945C9.24609 11.3594 9.49219 11.2891 9.84375 11.1836C10.3359 11.043 10.7227 10.9375 11.0391 10.9375ZM14.0625 16.5625V15.6484C14.0625 14.8398 13.7461 14.1367 13.1484 13.5391C12.5508 12.9414 11.8477 12.625 11.0391 12.625C10.8984 12.625 10.6523 12.6953 10.3359 12.7656C9.49219 13.0469 8.64844 13.1875 7.875 13.1875C7.10156 13.1875 6.25781 13.0469 5.41406 12.7656C5.0625 12.6953 4.81641 12.625 4.71094 12.625C3.86719 12.625 3.16406 12.9414 2.56641 13.5391C1.96875 14.1367 1.6875 14.8398 1.6875 15.6484V16.5625H14.0625ZM7.875 10.375C6.96094 10.375 6.11719 10.1641 5.34375 9.70703C4.57031 9.25 3.9375 8.61719 3.48047 7.84375C3.02344 7.07031 2.8125 6.22656 2.8125 5.3125C2.8125 4.39844 3.02344 3.55469 3.48047 2.78125C3.9375 2.00781 4.57031 1.41016 5.34375 0.953125C6.11719 0.496094 6.96094 0.25 7.875 0.25C8.78906 0.25 9.63281 0.496094 10.4062 0.953125C11.1797 1.41016 11.7773 2.00781 12.2344 2.78125C12.6914 3.55469 12.9375 4.39844 12.9375 5.3125C12.9375 6.22656 12.6914 7.07031 12.2344 7.84375C11.7773 8.61719 11.1797 9.25 10.4062 9.70703C9.63281 10.1641 8.78906 10.375 7.875 10.375ZM7.875 1.9375C6.92578 1.9375 6.11719 2.28906 5.48438 2.92188C4.81641 3.58984 4.5 4.39844 4.5 5.3125C4.5 6.26172 4.81641 7.07031 5.48438 7.70312C6.11719 8.37109 6.92578 8.6875 7.875 8.6875C8.78906 8.6875 9.59766 8.37109 10.2656 7.70312C10.8984 7.07031 11.25 6.26172 11.25 5.3125C11.25 4.39844 10.8984 3.58984 10.2656 2.92188C9.59766 2.28906 8.78906 1.9375 7.875 1.9375Z" fill="#D9435D"/>
</svg>
