<svg width="24" height="24" fill="none" xmlns="http://www.w3.org/2000/svg"><g clip-path="url(#clip0)"><path d="M12 0C5.374 0 .002 5.373.002 12s5.372 12 12 12c6.627 0 12-5.373 12-12S18.628 0 12 0zm0 18.636a1.56 1.56 0 01-1.56-1.56h3.12a1.56 1.56 0 01-1.56 1.56zm5.272-3.124c0 .577-.468.615-1.044.615H7.774c-.577 0-1.044-.038-1.044-.615v-.1c0-.414.244-.77.594-.938l.331-2.86a4.348 4.348 0 013.452-4.254V6.25a.894.894 0 011.788 0v1.11a4.347 4.347 0 013.452 4.254l.332 2.86c.35.17.593.524.593.939v.099z" fill="#3A1F5D"/></g><defs><clipPath id="clip0"><path fill="#fff" d="M0 0h24v24H0z"/></clipPath></defs></svg>