<svg width="38" height="38" fill="none" xmlns="http://www.w3.org/2000/svg"><g clip-path="url(#clip0)" fill="#D9435D"><path d="M18.289 3.248l17.373 18.94 1.546-1.184L19.325 1.507a1.435 1.435 0 00-2.108.018L0 21.017l1.57 1.159L18.29 3.248z"/><path d="M18.141 5.42L5.097 20.19l2.578 13.426h20.773L32.24 20.19 18.69 5.416a.361.361 0 00-.55.005zm-4.236 10.35c1.165-.555 2.806.216 3.666 1.722.859 1.505.612 3.177-.553 3.732-1.165.555-2.806-.216-3.665-1.722-.86-1.505-.612-3.176.552-3.731zM9.639 23.48c-.86-1.506-.612-3.177.552-3.732 1.165-.555 2.807.215 3.666 1.722.859 1.505.612 3.176-.552 3.731-1.165.555-2.806-.215-3.666-1.721zm17.59-3.732c1.165.555 1.413 2.226.553 3.732-.86 1.506-2.5 2.276-3.665 1.721-1.165-.555-1.413-2.226-.553-3.731.86-1.507 2.5-2.277 3.666-1.722zm-7.378-2.255c.86-1.506 2.501-2.277 3.665-1.721 1.165.555 1.413 2.226.553 3.731-.859 1.506-2.501 2.277-3.666 1.722-1.164-.556-1.412-2.227-.552-3.732zm2.91 7.906c0 .194-.022.381-.06.565 1.134.113 1.588 1.374 1.588 2.44 0 1.143-1.013 2.07-2.264 2.07-1.12 0-1.763-.123-3.106-.764-.26.06-1.974.764-3.105.764-1.25 0-2.264-.927-2.264-2.07 0-1.106.522-2.397 1.719-2.452a2.784 2.784 0 01-.058-.553c0-1.687 1.928-3.45 3.774-3.45 1.847 0 3.775 1.763 3.775 3.45z"/></g><defs><clipPath id="clip0"><path fill="#fff" d="M0 0h38v38H0z"/></clipPath></defs></svg>