<svg width="20" height="20" viewBox="0 0 20 20" fill="none" xmlns="http://www.w3.org/2000/svg">
<g clip-path="url(#clip0)">
<path d="M19.894 14.3054C19.8698 14.2532 19.8472 14.2099 19.8262 14.1752C19.4792 13.5503 18.8161 12.7832 17.8373 11.8738L17.8166 11.8529L17.8063 11.8427L17.7958 11.8323H17.7853C17.341 11.4088 17.0597 11.124 16.9419 10.9782C16.7264 10.7005 16.6781 10.4195 16.7959 10.1346C16.8791 9.91945 17.1918 9.465 17.7331 8.77068C18.0178 8.40271 18.2433 8.10779 18.4099 7.8856C19.611 6.28883 20.1317 5.26848 19.9719 4.82413L19.9099 4.72029C19.8682 4.65778 19.7606 4.60059 19.5872 4.54844C19.4135 4.49639 19.1914 4.48778 18.9206 4.52247L15.9217 4.54318C15.8731 4.52597 15.8037 4.52757 15.7134 4.54844C15.6231 4.5693 15.5779 4.57977 15.5779 4.57977L15.5257 4.60584L15.4843 4.63717C15.4496 4.65789 15.4114 4.69433 15.3697 4.74641C15.3282 4.79831 15.2936 4.85922 15.2658 4.92863C14.9393 5.76862 14.5681 6.54961 14.1515 7.27155C13.8946 7.70203 13.6587 8.07511 13.4433 8.391C13.2281 8.70678 13.0476 8.93944 12.9019 9.08857C12.756 9.23785 12.6244 9.35745 12.5061 9.44779C12.3881 9.53817 12.298 9.57635 12.2355 9.56239C12.173 9.54842 12.1141 9.53456 12.0583 9.5207C11.9612 9.45818 11.8831 9.37317 11.8242 9.26557C11.765 9.15798 11.7252 9.02256 11.7044 8.85941C11.6836 8.69616 11.6714 8.55575 11.6679 8.43768C11.6646 8.31977 11.6661 8.15298 11.6732 7.93779C11.6804 7.72249 11.6836 7.57682 11.6836 7.50045C11.6836 7.23661 11.6888 6.95026 11.6991 6.64134C11.7096 6.33242 11.7181 6.08765 11.7252 5.90733C11.7323 5.72683 11.7356 5.53586 11.7356 5.33453C11.7356 5.1332 11.7233 4.97531 11.6991 4.86071C11.6752 4.74626 11.6385 4.63517 11.5901 4.52746C11.5414 4.41987 11.4701 4.33664 11.3766 4.27755C11.2829 4.21854 11.1664 4.17171 11.0278 4.13692C10.6598 4.05365 10.1912 4.00861 9.62185 4.0016C8.33069 3.98774 7.50105 4.07112 7.13311 4.25162C6.98733 4.32789 6.85541 4.43209 6.73746 4.5639C6.61247 4.71668 6.59504 4.80006 6.68527 4.81377C7.10186 4.87618 7.39677 5.02546 7.57035 5.26147L7.6329 5.38654C7.68155 5.47677 7.73013 5.63652 7.77875 5.86557C7.8273 6.09462 7.85863 6.34799 7.87241 6.62555C7.90706 7.1324 7.90706 7.56628 7.87241 7.92721C7.83765 8.28829 7.80483 8.56939 7.7735 8.77071C7.74217 8.97204 7.69534 9.13518 7.6329 9.2601C7.57035 9.38506 7.52873 9.46143 7.50787 9.48915C7.48704 9.51687 7.46968 9.53434 7.4559 9.5412C7.36566 9.57577 7.27182 9.59339 7.17469 9.59339C7.07742 9.59339 6.95947 9.54473 6.82065 9.4475C6.68188 9.35026 6.53785 9.2167 6.38856 9.04659C6.23928 8.87645 6.07093 8.63868 5.88342 8.33326C5.69606 8.02784 5.50166 7.66687 5.30033 7.25036L5.13376 6.94829C5.02963 6.75397 4.88739 6.47101 4.70689 6.09968C4.52628 5.72821 4.36664 5.36889 4.22786 5.02178C4.17238 4.876 4.08904 4.76501 3.97799 4.68864L3.92587 4.65731C3.89122 4.62959 3.8356 4.60015 3.7593 4.56879C3.68289 4.53746 3.60316 4.51499 3.51978 4.50117L0.666572 4.52188C0.375011 4.52188 0.177184 4.58794 0.073018 4.71986L0.0313299 4.78226C0.0105041 4.81702 0 4.87253 0 4.94894C0 5.02531 0.0208258 5.11905 0.0625139 5.23003C0.47903 6.20896 0.931983 7.15305 1.42137 8.06245C1.91076 8.97186 2.33603 9.70441 2.69692 10.2594C3.05789 10.8149 3.42583 11.3391 3.80073 11.8319C4.17563 12.3248 4.42379 12.6407 4.54521 12.7794C4.66677 12.9185 4.76225 13.0224 4.83166 13.0918L5.09204 13.3417C5.25865 13.5083 5.5033 13.7079 5.82612 13.9404C6.14901 14.1731 6.50648 14.4021 6.89871 14.6279C7.291 14.8534 7.74739 15.0373 8.2681 15.1796C8.78875 15.3221 9.2955 15.3792 9.78842 15.3516H10.986C11.2288 15.3307 11.4128 15.2543 11.5379 15.1225L11.5793 15.0703C11.6072 15.0289 11.6333 14.9645 11.6573 14.8779C11.6817 14.7911 11.6938 14.6955 11.6938 14.5915C11.6867 14.2931 11.7094 14.0241 11.7614 13.7846C11.8133 13.5452 11.8724 13.3647 11.9386 13.2431C12.0047 13.1217 12.0793 13.0192 12.1624 12.9361C12.2456 12.8528 12.3049 12.8024 12.3397 12.785C12.3743 12.7676 12.4019 12.7557 12.4227 12.7486C12.5893 12.6931 12.7854 12.7468 13.0112 12.9101C13.2369 13.0733 13.4486 13.2747 13.6465 13.5141C13.8444 13.7537 14.0821 14.0226 14.3597 14.321C14.6376 14.6196 14.8805 14.8415 15.0886 14.9875L15.2968 15.1125C15.4359 15.1959 15.6164 15.2722 15.8386 15.3416C16.0604 15.411 16.2547 15.4284 16.4215 15.3937L19.0872 15.3521C19.3509 15.3521 19.556 15.3084 19.7015 15.2218C19.8474 15.1351 19.934 15.0395 19.9619 14.9355C19.9898 14.8314 19.9913 14.7133 19.9672 14.5813C19.9425 14.4496 19.9182 14.3575 19.894 14.3054Z" fill="#D9435D"/>
</g>
<defs>
<clipPath id="clip0">
<rect width="20" height="20" fill="white"/>
</clipPath>
</defs>
</svg>
