<svg width="20" height="20" viewBox="0 0 20 20" fill="none" xmlns="http://www.w3.org/2000/svg">
<g clip-path="url(#clip0)">
<path d="M19.8292 6.22395C19.7179 4.89264 18.9241 3.21379 17.2928 3.15377C12.7375 2.84749 7.341 2.76376 2.70325 3.15377C1.26441 3.31503 0.278116 5.06763 0.170622 6.39894C-0.056874 9.19533 -0.056874 10.7867 0.170622 13.5831C0.279375 14.9144 1.24069 16.677 2.70576 16.862C7.3985 17.1683 12.7688 17.212 17.2953 16.862C18.7154 16.6157 19.7217 14.9144 19.8304 13.5831C20.0567 10.7854 20.0567 9.02034 19.8292 6.22395ZM7.49848 13.5381V6.36893L13.7488 9.95412L7.49848 13.5381Z" fill="#D9435D"/>
</g>
<defs>
<clipPath id="clip0">
<rect width="20" height="20" fill="white"/>
</clipPath>
</defs>
</svg>
