<?xml version="1.0" encoding="utf-8"?><svg width="187" height="10" fill="none" xmlns="http://www.w3.org/2000/svg" viewBox="0 0 187 10"><path d="M1.637 5.048c1.671-.988 3.732-1.354 5.339-2.377.486-.31-.038.436-.101.521-.575.777-1.115 1.589-1.71 2.35-.118.152-1.477 1.34-.665 1.837.919 0 1.184-.97 1.827-1.517.877-.747 1.788-1.775 2.88-2.203.8-.315 1.766-.478 2.504-.915.695-.412-.058.121-.274.33-.849.817-1.582 1.643-2.34 2.54C8.79 5.978 7.89 6.81 7.89 7.353c0 .06 2.564-1.293 2.779-1.408 1.943-1.042 3.723-2.254 5.906-2.76.244-.057 1.993-.445.822-.202-2.396.498-4.678 1.028-6.755 2.368-2.186 1.41 1.226.88 2.093.557 2.39-.888 4.749-1.731 7.186-2.486.788-.244 3.248-.512 2.422-.512-2.59 0-5.294 2.078-7.423 3.355-.653.392-2.267 1.14-.42 1.115 1.436-.02 2.569-.402 3.83-1.014 1.397-.679 2.84-1.274 4.26-1.902 1.243-.549 2.549-.889 3.821-1.353.55-.2 1.233-.622 1.829-.622.782 0-1.404.69-2.103 1.043-1.183.596-2.427 1.36-3.383 2.285-.893.865-2.067 1.913.246 1.27 2.507-.696 4.441-1.735 6.776-2.852 1.073-.513 2.23-.886 3.29-1.417 2.481-1.24-7.993 1.448-7.23 4.114.281.986 4.534-1.305 4.69-1.39 1.471-.797 3.366-1.556 4.57-2.76.203-.203-.605-.061-.86.073-.853.451-2.972 4.043-2.656 4.12.85.206 1.504-.231 2.108-.61 1.989-1.245 3.958-2.348 6.144-3.217.22-.088 1.05-.425.374-.147-.998.411-2.034.788-3.053 1.143-1.54.537-3.072.98-4.397 1.975-.176.132-.636.472.223-.059 1.726-1.066 2.307-1.393 4.21-2.144 1.324-.523 2.71-.814 4.06-1.244.287-.091-.544.265-.796.43a13.63 13.63 0 0 0-3.08 2.77c-.31.38-.543.752-.686 1.216-.032.104-.253.317-.146.292.84-.194 1.734-.823 2.495-1.197a60.922 60.922 0 0 1 4.708-2.076c.125-.048 3.291-1.064 3.291-1.28 0-.175-1.471-.074-1.59-.063-1.646.14-3.195.793-4.608 1.618-.732.427-1.654 1.107-1.5 2.075.17 1.062 1.125.92 1.912.612 2.171-.846 4.277-2.039 6.326-3.144.558-.302 2.06-.847 1.508-1.161-.686-.393-2.998 1.576-3.474 1.956-.142.113-2.505 2.36-2.139 2.596.283.182 1.4-.358 1.59-.439 1.349-.568 2.52-1.426 3.767-2.175.309-.186 3.986-2.505 4.206-2.286.07.07-.184.071-.275.11a7.236 7.236 0 0 0-.969.494 15.07 15.07 0 0 0-2.523 1.901c-.624.59-2.048.956-2.048 1.926 0 .588 1.438-.438 1.518-.494 1.554-1.083 3.134-1.22 4.809-2.108.927-.492 2.179-.651 3.025-1.244.213-.149-.8 1.096-.941 1.308-.463.693-1.156 1.752-1.307 2.587-.046.252.435-.273.63-.439.822-.7 1.636-1.4 2.514-2.03.099-.07 2.034-1.455 1.637-1.508-1.349-.18-2.6.811-3.538 1.646-.167.148-2.122 2.042-1.143 2.12 1.65.132 3.14-1.113 4.416-1.983 1.19-.812 2.698-1.575 3.739-2.578.246-.238-.128-.146-.238-.092-.926.457-1.725 1.221-2.432 1.957-.951.99-1.615 2.255-2.578 3.218-.168.168-.562.229-.768.073-1.125-.856.355-4.307-2.23-3.273-.697.278-3.673 3.144-2.066 3.803 1.142.468 2.695.109 3.775-.33 3.092-1.253 6.02-2.87 9.16-4.022.64-.234.896-.17.201-.384-.685-.21-1.046-.55-1.791-.164-1.526.79-2.703 2.166-3.968 3.3-.561.503-1.06 1.102.064.869 2.734-.568 5.28-2.193 7.899-3.145.014-.005 1.974-.61 1.974-.777 0-.162-2.45 1.586-2.614 1.728a38.145 38.145 0 0 0-2.194 2.03c-.044.043-.76.746-.165.493 2.167-.924 3.926-2.733 5.979-3.876.295-.165 1.05-.604.439-.037-1.294 1.201-2.911 1.94-3.456 3.662-.216.682.566.285.823.128.991-.605 1.878-.446 2.76-1.194l3.913-3.31c.509-.429-.017.434-.146.568-1.067 1.108-2.097 2.31-2.898 3.63-.622 1.024.824.088 1.106-.092 1.65-1.058 3.255-2.26 4.81-3.456 1.003-.772-.231.326-.522.759-.332.494-1.83 2.69-1.527 3.373.163.365 1.956-1.61 1.984-1.636 1.22-1.127 2.603-2.583 4.141-3.282.391-.178-.643.569-.96.86-.882.808-1.604 1.724-2.33 2.669-.726.943 1.79-.67 2.029-.796.68-.356 2.583-1.007 2.998-1.773.163-.302-.685-.144-1.024-.092-1.701.264-3.375.694-5.064 1.024-.208.04-1.723.357-.567.073 1.288-.316 2.552-.722 3.84-1.042.852-.212 2.754-.995 3.656-.713.205.064-.345.257-.53.366-.63.37-.922.539-1.536.987-.924.676-1.938 1.443-2.578 2.414-.09.136-.545.875-.018.75 1.024-.246 1.997-.973 2.852-1.537 1.396-.92 2.754-1.897 4.15-2.815 1.508-.991-1.468.759-1.791 1.042-.229.2-2.194 2.73-2.103 2.724.647-.042 1.493-.723 2.011-1.024 1.371-.794 2.755-1.554 4.15-2.304.582-.312 1.037-.696.184-.128a14.21 14.21 0 0 0-2.688 2.304c-.288.32-1.2 1.144-.786 1.024 1.136-.329 2.274-1.037 3.29-1.609 1.075-.604 2.17-1.247 3.127-2.03.364-.296.084-.273-.2-.127-1.333.68-2.546 1.741-3.657 2.724-.57.504-2.149 1.867-1.39 1.81.945-.07 2.095-.906 2.87-1.371 1.102-.66 2.137-1.424 3.292-1.993.646-.32 1.268-.708 1.865-1.024.283-.15.405-.303-.064-.082-1.768.832-2.81 1.584-3.663 3.36-.546 1.138.329 1.187 1.097.64 2.104-1.496 2.798-2.361 4.714-4.074.072-.064.306-.232.247-.155-.125.162-.845.996-.869 1.024-.576.67-1.173 1.32-1.7 2.03-.12.162-.844.984-.1.713 1.434-.525 2.721-1.66 3.949-2.533.67-.476 2.787-1.49 1.965-1.49-.572 0-1.388.71-1.755 1.051-.99.923-.888 2.085-1.487 3.3-.03.06-.52 1.111.01.823 1.9-1.032 2.477-2.93 4.219-4.223.294-.218 1.189-.85.878-.658-.962.594-1.78 1.466-2.505 2.322-.011.012-1.052 1.165-.75 1.371.323.22 1.437-.741 1.628-.878 1.393-.998 5.568-3.998 4.15-3.035-1.295.88-3.528 2.542-3.638 4.297-.03.483.795-.553 1.17-.86.96-.785 1.918-1.557 2.962-2.23.655-.423 2.662-1.626 1.993-1.225-.638.383-1.197.881-1.737 1.39-.819.77-1.693 1.577-2.34 2.504-.086.123-.459.68 0 .53 1.608-.526 3.07-1.727 4.598-2.459.763-.365 1.714-.688 2.258-1.38.053-.068.118-.284.037-.256-.252.088-.82.54-.933.63-.421.335-3.388 2.817-2.944 3.594.105.182 5.275-3.799 5.696-4.096.661-.467 1.174-.79.457.073-.69.831-1.417 1.631-2.121 2.45-.323.376-2.017 1.873-.576 1.152 1.976-.988 3.591-2.62 5.439-3.812.089-.057 1.446-.83 1.116-.704-1.398.533-3.138 2.155-3.721 3.529-.157.37-.282.98.311.603 1.11-.704 2.167-1.485 3.291-2.176.619-.38 1.763-.853 2.176-1.517.348-.56-.987.89-1.372 1.426-.364.507-1.862 2.45-1.426 3.2.227.389 3.064-2.076 3.2-2.176a30.522 30.522 0 0 1 3.73-2.34c.317-.17.485-.385.018-.202-1.844.727-3.248 2.949-4.114 4.626-.741 1.436 1.312-.572 1.609-.804 1.585-1.24 6.388-4.892 4.772-3.694-1.73 1.284-3.444 2.124-4.479 4.041-.718 1.33 1.357.565 1.554.42 1.786-1.306 3.728-2.582 5.75-3.492.132-.059.451-.336.311-.301-.697.174-1.356.765-1.838 1.261-.753.777-1.399 1.694-1.965 2.615-.293.475.086.292.384.146 2.172-1.06 4.092-2.61 6.271-3.684.276-.136 1.082-.57.786-.485-1.126.322-2.155 1.094-3.025 1.847-.791.683-1.527 1.463-2.057 2.368-.032.053-.119.214-.101.155.075-.245.158-.417.293-.658.245-.438 3.018-3.772 2.815-3.94-1.227-1.023-3.786 1.079-4.571 1.755-.72.62-1.395 1.334-2.175 1.883-.47.331.85-.773 1.298-1.133 1.321-1.065 2.632-1.804 4.296-2.176 1.052-.235 2.126-.316 3.2-.366.751-.034 1.277-.119.512.585-.957.881-1.929 1.733-2.797 2.706-.2.225-1.315 1.28-1.28 1.664.013.148.247-.165.365-.256a85.77 85.77 0 0 0 1.006-.786c1.092-.866 2.191-1.705 3.346-2.487.119-.08 1.3-.86 1.518-1.005.139-.093.453-.438.42-.274-.054.272-.903.925-1.06 1.097-.798.869-3.167 3.38-2.121 2.834 1.691-.883 3.051-2.458 4.644-3.52.043-.029.922-.7.228-.293-.93.547-1.723 1.405-2.468 2.167-.241.246-3.009 3.267-1.106 1.975 1.655-1.125 3.03-2.642 4.644-3.83.13-.097-.247.21-.357.328-.911.993-1.754 2.08-2.541 3.173-.334.463.288.9.821.694 1.008-.39.487-.617 1.263-1.334 1.143-1.056 3.957-4.788 3.109-3.483-.703 1.081-2.372 2.217-2.569 3.547-.071.479.585-.015.585.146 0 .38-.132.396 0 .759.199.548 1.233-.313 1.252-.339.781-1.022 1.436-2.127 2.24-3.135.275-.346 1.021-1.396.905-.97-.315 1.157-1.399 2.53-1.399 3.73 0 .536.917-.559 1.326-.904 1.149-.973 2.342-1.972 3.337-3.109.048-.055.127-.246.064-.21-.241.138-.604.475-.768.63-.771.73-1.367 1.544-1.911 2.45-.356.595-1.281 2.102-.037.943.67-.624 1.284-1.302 1.902-1.975.351-.383.979-1.079 1.353-1.481.152-.164.351-.662.475-.475.161.241-2.413 3.75-2.632 4.26-.293.68.4.233.639.055.912-.68 1.605-1.669 2.359-2.505.565-.628 1.158-1.377 1.828-1.902.604-.472-.826 1.291-1.206 1.956a12.218 12.218 0 0 0-.969 2.213c-.13.384-.203.515.146.128 1.126-1.248 4.852-4.638 3.529-3.602-1.091.853-2.041 2.5-2.066 3.913-.011.61.733-.367.749-.384 1.103-1.14 2.22-2.258 3.456-3.255.238-.192.98-.712.786-.475-.695.85-1.473 1.607-2.13 2.496-.109.147-1.171 1.384-1.015 1.736.048.108.243-.031.339-.1.427-.308.923-.784 1.289-1.125 1.273-1.184 2.565-2.4 4.113-3.227.131-.07-.969.85-.969.85-.857.796-1.638 1.645-2.294 2.615-.255.376-1.031 1.1-.594 1.225.225.065 1.298-1.111 1.353-1.16 1.462-1.33 2.946-2.658 4.196-4.197.582-.716-.135.398-.247.585-.744 1.248-1.506 2.475-2.267 3.712-.954 1.55 1.682-1.018 1.956-1.29.946-.938 3.705-3.804 2.925-2.724-1.019 1.415-2.362 2.943-2.852 4.644-.455 1.584 1.829-1.211 1.938-1.334.885-1.001 3.656-3.897 2.779-2.89-1.032 1.188-1.783 2.682-2.285 4.17-.196.58-.137.617.366.128.92-.896 1.812-1.82 2.724-2.725.373-.37.757-.722 1.143-1.078.234-.217-.517.388-.713.64-.728.932-1.428 2.008-1.893 3.099-.287.674.116.46.448.128 1.05-1.05 1.969-2.228 3.063-3.237.026-.024 1.335-1.168.795-.393-.742 1.067-1.398 2.137-1.966 3.31-.01.022-1.07 1.91-.274 1.28 1.856-1.471 7.081-6.293 5.321-4.709-1.159 1.044-2.096 2.378-2.916 3.694-.228.364-.8 1.453-.448 1.207 1.769-1.24 3.036-3.083 4.772-4.361.79-.583-.271.801-.284.823-.495.832-1.028 1.708-1.38 2.614-.206.529.371-.05.439-.11.834-.736 1.609-1.523 2.486-2.212.437-.342 1.744-1.373 1.298-1.042-.737.547-1.233 1.533-1.682 2.304-.296.51-1.263 1.47-.694 1.627.619.17 2.025-1.516 2.267-1.755 1.108-1.095 2.117-2.36 3.309-3.365.32-.27.015.304 0 .33-.749 1.299-2.56 2.094-2.56 3.675 0 2.222 6.568-5.76 5.449-3.84-.254.435-.755.848-1.061 1.234-.776.983-1.357 2.079-2.084 3.09-.169.236-.057-1.203-.475-1.362-.656-.249-2.077.441-1.911-.521.123-.71.634-.573 1.006-1.088.487-.675 1.256-1.09 1.737-1.755.902-1.25-2.886 1.244-4.014 2.294-.944.88-.088-1.323.028-1.618.669-1.703-1.104.559-1.445.978-.65.802-.327.356-.192-.246.363-1.62-2.259 1.493-2.121 1.499.462.02 1.556-.715 1.975-.878a123.07 123.07 0 0 1 3.2-1.206c.941-.337 1.872-.408 2.87-.293.83.096-.504 2.812-.621 3.09-.395.94-.201 1.107.621.31.887-.857 1.668-1.818 2.523-2.705.066-.068.516-.555.11-.073-.543.644-1.1 1.3-1.499 2.047-.305.57.115.212.347-.018.644-.636 1.323-1.298 1.884-2.011.946-1.204-3.811 4.669-2.524 3.84 1.713-1.103 2.666-3.161 4.334-4.352.892-.637.185.205-.092.512-.77.854-1.525 1.71-2.212 2.633-.345.463-.689.872.11.128a179.64 179.64 0 0 0 3.053-2.926c.068-.066.279-.257.219-.182-.278.348-.579.677-.859 1.023-.109.135-1.931 2.421-1.481 2.56.718.222 2.102-1.617 2.505-2.03a13.6 13.6 0 0 1 1.079-1.023c.164-.139.54-.58.53-.366-.031.645-1.462 2.013-1.81 2.505-.155.218-1.545 1.809-1.371 2.194.122.271 4.2-4.06 4.369-4.242" stroke="#60C1A4" stroke-width="2" stroke-linecap="round" stroke-linejoin="round"/></svg>