<?xml version="1.0" encoding="utf-8"?><svg width="80" height="35" fill="none" xmlns="http://www.w3.org/2000/svg" viewBox="0 0 80 35"><path d="M76.028 17.256c2.035-1.785 3.308-4.338 3.308-7.183C79.337 4.68 74.75.342 69.09.342c-4.472 0-8.27 2.663-9.67 6.557l-38.746.005c-1.4-3.893-5.198-6.557-9.67-6.557C5.35.342.757 4.697.757 10.09c0 2.844 1.274 5.387 3.308 7.172C2.031 19.046.757 21.6.763 24.439c0 5.393 4.587 9.731 10.247 9.731 4.472 0 8.264-2.669 9.664-6.562h38.74c1.4 3.893 5.198 6.557 9.67 6.557 5.66 0 10.253-4.355 10.253-9.748-.006-2.839-1.274-5.376-3.309-7.16z" fill="#9B51E0"/></svg>