<?xml version="1.0" encoding="utf-8"?><svg width="14" height="14" fill="none" xmlns="http://www.w3.org/2000/svg" viewBox="0 0 14 14"><path fill-rule="evenodd" clip-rule="evenodd" d="M3.125 0a.5.5 0 0 1 .5.5V2H10.5V.5a.5.5 0 0 1 1 0V2h.5a2 2 0 0 1 2 2v8a2 2 0 0 1-2 2H2a2 2 0 0 1-2-2V4a2 2 0 0 1 2-2h.625V.5a.5.5 0 0 1 .5-.5zM10.5 3v.5a.5.5 0 0 0 1 0V3h.5a1 1 0 0 1 1 1v8a1 1 0 0 1-1 1H2a1 1 0 0 1-1-1V4a1 1 0 0 1 1-1h.625v.5a.5.5 0 0 0 1 0V3H10.5zM3.125 6a.5.5 0 0 0 0 1h7.75a.5.5 0 0 0 0-1h-7.75z" fill="#494A4C"/></svg>