<?xml version="1.0" encoding="utf-8"?><svg width="16" height="14" fill="none" xmlns="http://www.w3.org/2000/svg" viewBox="0 0 16 14"><path d="M2.656 9.344c.5 0 .875-.188 1.188-.563.25-.312.375-.719.375-1.187 0-.469-.125-.938-.375-1.438s-.531-.906-.906-1.218c-.438-.344-.907-.532-1.407-.532S.656 4.625.375 5C.125 5.344 0 5.75 0 6.219c0 .468.094.937.344 1.437.25.5.562.875.937 1.188.438.344.875.5 1.375.5zm10.875 3.312c0-.687-.312-1.437-.906-2.312a8.2 8.2 0 0 0-2.156-2.125C9.563 7.594 8.75 7.28 8 7.28c-.75 0-1.594.313-2.469.938a7.87 7.87 0 0 0-2.187 2.125c-.594.844-.875 1.625-.875 2.312 0 .906.562 1.344 1.75 1.344.312 0 .656-.031 1.031-.125.188-.063.5-.156.906-.281.407-.125.719-.219.938-.281.312-.063.625-.126.906-.126.25 0 .563.063.875.126l.844.28c.375.126.687.22.906.282.313.094.625.125.938.125.593 0 1.03-.063 1.343-.25.406-.188.625-.563.625-1.094zM5.687 5.375c.563 0 1.032-.25 1.375-.75.282-.406.438-.906.438-1.5 0-.438-.125-.875-.313-1.375-.218-.5-.5-.906-.843-1.219C5.937.187 5.5 0 5 0c-.594 0-1.063.25-1.375.719-.313.437-.438.937-.438 1.5 0 .469.094.937.313 1.437.188.5.5.875.875 1.188.375.375.813.531 1.313.531zM8.5 3.125c0 .594.125 1.094.438 1.5.312.5.78.75 1.374.75.47 0 .907-.156 1.313-.531.375-.313.656-.688.875-1.188.188-.5.313-.969.313-1.437 0-.563-.157-1.063-.438-1.5C12.031.25 11.562 0 11 0c-.5 0-.969.188-1.344.531a2.855 2.855 0 0 0-.844 1.219c-.218.5-.312.938-.312 1.375zM16 6.219c0-.469-.125-.875-.375-1.219-.313-.375-.688-.594-1.188-.594s-.937.188-1.374.532a3.729 3.729 0 0 0-.938 1.218c-.25.5-.344.969-.344 1.438 0 .468.125.875.375 1.187.281.375.656.563 1.156.563.5 0 .97-.156 1.407-.5.375-.313.656-.688.906-1.188S16 6.688 16 6.22z" fill="#D9435D"/></svg>