<?xml version="1.0" encoding="utf-8"?><svg width="20" height="21" fill="none" xmlns="http://www.w3.org/2000/svg" viewBox="0 0 20 21"><path d="M19.883 18.82a.444.444 0 0 1 .117.313c0 .156-.04.273-.117.351l-.899.86a.477.477 0 0 1-.351.156c-.156 0-.235-.04-.313-.156l-4.765-4.727a.444.444 0 0 1-.117-.312v-.547a8.805 8.805 0 0 1-2.461 1.484 7.988 7.988 0 0 1-2.852.508c-1.484 0-2.852-.352-4.102-1.094a7.543 7.543 0 0 1-2.93-2.93C.353 11.477 0 10.11 0 8.626s.352-2.813 1.094-4.063c.703-1.25 1.68-2.226 2.93-2.968C5.273.89 6.64.5 8.124.5s2.813.39 4.063 1.094a8.315 8.315 0 0 1 2.968 2.968c.703 1.25 1.094 2.579 1.094 4.063a7.717 7.717 0 0 1-.547 2.852c-.351.937-.82 1.757-1.445 2.46h.547c.117 0 .234.04.312.118l4.766 4.765zM8.125 14.875a6.332 6.332 0 0 0 3.125-.82 6.113 6.113 0 0 0 2.266-2.305c.546-.938.859-1.992.859-3.125 0-1.094-.313-2.148-.86-3.125a6.297 6.297 0 0 0-2.265-2.266c-.977-.546-2.031-.859-3.125-.859A6.154 6.154 0 0 0 5 3.235 6.113 6.113 0 0 0 2.695 5.5a6.332 6.332 0 0 0-.82 3.125c0 1.133.273 2.188.82 3.125A5.941 5.941 0 0 0 5 14.055c.938.547 1.992.82 3.125.82z" fill="#494A4C"/></svg>