<?xml version="1.0" encoding="utf-8"?><svg width="22" height="14" fill="none" xmlns="http://www.w3.org/2000/svg" viewBox="0 0 22 14"><path d="M13.32 6.266c.07.398.106.773.106 1.125 0 1.945-.598 3.539-1.793 4.78C10.438 13.392 8.879 14 6.957 14c-1.875 0-3.469-.656-4.781-1.969C.863 10.72.207 9.125.207 7.25c0-1.875.656-3.469 1.969-4.781C3.488 1.156 5.082.5 6.957.5c1.758 0 3.258.586 4.5 1.758L9.629 4.016c-.703-.68-1.594-1.02-2.672-1.02-.75 0-1.453.188-2.11.563a4.164 4.164 0 00-1.511 1.546 4.248 4.248 0 00-.563 2.145c0 1.172.41 2.18 1.23 3.023.821.82 1.806 1.23 2.954 1.23 1.172 0 2.074-.316 2.707-.948.633-.633 1.008-1.278 1.125-1.934H6.957V6.266h6.363zm6.504.246h1.969V8.48h-1.969v1.97h-1.969V8.48h-1.933V6.512h1.933V4.543h1.97v1.969z" fill="#DB4437"/></svg>