<?xml version="1.0" encoding="utf-8"?><svg width="110" height="23" fill="none" xmlns="http://www.w3.org/2000/svg" viewBox="0 0 110 23"><g clip-path="url(#aqclip0)" fill-rule="evenodd" clip-rule="evenodd" fill="#999"><path d="M22.406 18.232c1.201-3.626 2.34-6.016 3.571-9.486.43-1.205.8-1.893.668-2.567-.216-1.102-.98-1.42-1.741-.452a5.967 5.967 0 0 0-.337.483c-.477.75-.872 1.503-1.386 2.368-1.578 2.657-2.795 6.118-3.594 7.302-1.096 1.627-2.59 1.318-3.055-.319-1.211.837-2.683-.059-2.633-1.579.044-1.316.41-3.024.604-4.372.24-1.676.716-5.911.678-8.224-.004-.268-.031-.501-.1-.692-.284-.78-1.113-.892-1.812-.423-.415.279-.725.844-.918 1.554-.295 1.079-.414 2.222-.554 3.364-.093.749-1.408 7.564-1.71 8.14-.962 1.839-4.298-1.285-6.786-1.969-2.715-.746-4.432.6-2.418 1.768 1.377.797 5.85 4.174 6.97 5.319.268.274.339.293.6.537.394.366.661.72 1.064 1.073 2.517 2.207 6.941 3.233 10.259 1.584.672-.335.853-.487 1.329-.96.788-.784.974-1.462 1.301-2.45zM69.856 13.066l1.096-5.13c1.592-.036 4.226-.436 3.065 2.908-.83 2.391-2.403 2.24-4.161 2.222zm-5.75 9.375l3.63.004 1.494-6.66c1.993-.24 2.049 1.09 2.345 2.538l.814 4.124 3.665-.01-.892-4.22c-.216-1.025-.682-1.883-1.083-2.276-.24-.237-.47-.375-.752-.563.583-.348 1.037-.5 1.502-.762.752-.426 1.451-1.008 2.157-2.179.857-1.422 1.291-3.625.422-5.265-.873-1.648-2.261-1.992-4.78-1.99-2.282 0-4.568-.013-6.85.002l-.55 2.726 1.968.015-3.09 14.516zM98.143 22.45l3.193-.006 1.135-4.83c1.382-.117 1.524.582 1.812 1.981l.587 2.854 3.339-.03-.463-2.182c-.5-2.053-.288-2.413-1.57-3.714l3.821-5.284-3.45.023c-.861 1.12-1.607 2.494-2.38 3.637l-1.07.013c-.066-.964 1.766-7.809 2.04-9.732l-5.32.005-.506 2.739 1.915.002c-.318 2.3-3.068 13.345-3.083 14.523zM27.07 22.453l9.245-.032.685-2.856.29-1.62h-3.007l-.388 1.755-2.405.002L34.629 5.18l-5.766.056-.689 2.689 2.116-.003-3.219 14.532z"/><path d="M80.429 19.005c-.197-.708-.08-1.482.196-2.52.292-1.097 1.154-2.947 2.603-2.5 1.12.346 1.192 3.555-.003 5.247-.923 1.307-2.312 1.517-2.796-.227zm-1.01 3.71c.28.104.619.189 1.064.232 2.945.29 4.62-1.179 5.52-2.309.83-1.045.962-1.423 1.302-2.67.472-1.726.763-3.69-.367-5.143-1.204-1.55-3.623-2.07-5.93-1.141-1.8.725-3.12 2.188-3.787 4.191-.339 1.018-.549 2.23-.437 3.366.164 1.651 1.001 2.872 2.636 3.475zM41.84 16.772c.17-1.204.775-2.546 1.923-2.775.928-.185 1.211.44 1.082 1.197-.057.333-.238.654-.54.94-.557.529-1.419.68-2.465.638zm-3.405 3.989c.133.329.285.575.718 1.034 2.17 2.302 5.74.712 7.416.155l-.537-2.338c-1.505.5-3.707 1.55-4.302-.615 2.477.18 4.672-.555 5.888-2.616 3.059-5.188-4.567-7.03-7.825-2.891-1.146 1.456-1.74 2.98-1.763 4.976-.01.949.05 1.412.405 2.295zM56.449 13.486c-.321.64-.653 1.514-.367 2.548.508 1.84 3.289 2.11 3.628 2.94.643 1.577-2.355 1.764-4.076.467l-.41.606c-.094.214-.15.38-.244.601-.166.393-.325.784-.511 1.118.898 1.095 3.65 1.402 5.393 1.044 2.103-.433 3.312-2.063 3.407-4.063.043-.908-.156-1.378-.995-2.095-.74-.631-1.595-.807-2.259-1.233-.38-.244-.48-.308-.445-.746.062-.806.722-.771 1.749-.74L61.1 15.13l2.343-.012 1.54-4.53-2.89.025-.133.676c-1.447-.07-3.07-.058-4.264.75-.699.474-.879.712-1.248 1.447zM89.796 22.056c.326.273.784.53 1.46.728.757.22 1.66.24 2.488.136.558-.069.965-.172 1.328-.266a10.17 10.17 0 0 0 1.29-.443c.185-.074.384-.155.608-.247l-.548-2.326c-1.055.311-4.769 2.143-4.373-1.995.227-2.38 1.014-3.959 3.748-3.646l-.201 1.135 2.334-.025 1.545-4.514-2.846-.001-.22.782c-3.265-.3-5.027.563-6.43 2.354-1.12 1.427-1.636 3.5-1.473 5.583.08 1.03.449 2.04 1.29 2.745z"/><path d="M48.621 22.452l3.175.006 1.864-8.546 1.762.012.904-2.64-2.055.002.7-3.362h-2.813l-1.065 3.36-1.672-.002-.547 2.628 1.437-.007-1.69 8.55zM16.68 14.225c.607-1.261 1.037-3.096 1.183-4.248.143-1.127-.193-1.574-1.427-1.779-.333-.055-.67-.012-.966.206-.45.334-.41.92-.568 1.884-.33 2.016-.96 4.154-.065 4.85.942.732 1.49-.181 1.842-.913zM19.22 15.415c.996-1.556 2.228-4.29 1.592-5.204-.505-.724-1.934-1.106-2.36.052-.336.914-.651 2.311-.9 3.11-.265.852-.704 1.997-.338 2.594.648 1.054 1.597.087 2.005-.552zM56.215 9.712l2.293-.008 1.652-4.51-2.969-.015-.976 4.533z"/></g><defs><clipPath id="aqclip0"><path fill="#fff" d="M0 0h110v23H0z"/></clipPath></defs></svg>