<?xml version="1.0" encoding="utf-8"?><svg width="20" height="20" fill="none" xmlns="http://www.w3.org/2000/svg" viewBox="0 0 20 20"><g clip-path="url(#arclip0)" fill="#D9435D"><path d="M9.015 14.087c-1.55-.162-2.948-.543-4.145-1.48-.148-.116-.302-.228-.437-.358-.524-.503-.577-1.08-.162-1.674.354-.508.95-.644 1.568-.352.12.057.234.127.344.203 2.23 1.533 5.294 1.575 7.533.07.222-.171.46-.31.734-.38.535-.138 1.033.059 1.32.526.327.534.323 1.055-.08 1.47-.62.635-1.364 1.095-2.192 1.416-.782.303-1.64.456-2.487.557.128.14.188.208.268.289 1.152 1.157 2.308 2.309 3.456 3.47.391.395.473.885.258 1.345-.236.503-.763.834-1.28.799-.327-.023-.582-.186-.81-.415-.868-.874-1.754-1.733-2.605-2.624-.248-.259-.367-.21-.586.015-.874.9-1.763 1.787-2.656 2.668-.402.395-.88.467-1.345.24-.494-.24-.81-.744-.785-1.252.017-.343.186-.605.421-.84 1.14-1.139 2.276-2.28 3.413-3.42.076-.075.146-.156.255-.273z"/><path d="M9.96 10.123c-2.767-.01-5.035-2.302-5.019-5.073A5.07 5.07 0 0 1 10.021 0c2.798.007 5.045 2.297 5.03 5.127-.014 2.765-2.297 5.006-5.092 4.996zm2.513-5.066A2.465 2.465 0 0 0 10 2.585a2.469 2.469 0 0 0-2.479 2.502 2.465 2.465 0 0 0 2.492 2.452 2.46 2.46 0 0 0 2.46-2.482z"/></g><defs><clipPath id="arclip0"><path fill="#fff" d="M0 0h20v20H0z"/></clipPath></defs></svg>