<?xml version="1.0" encoding="utf-8"?><svg width="1246" height="6" fill="none" xmlns="http://www.w3.org/2000/svg" viewBox="0 0 1246 6"><path fill-rule="evenodd" clip-rule="evenodd" d="M0 4.5A1.5 1.5 0 001.5 6c3.6 0 5.536-.84 7.188-1.655l.276-.137h.001C10.342 3.525 11.4 3 13.444 3s3.102.525 4.479 1.208l.003.002.274.135C19.852 5.16 21.788 6 25.388 6c3.6 0 5.536-.84 7.188-1.655l.277-.137C34.23 3.525 35.287 3 37.334 3c2.044 0 3.101.525 4.478 1.208l.277.137C43.74 5.16 45.676 6 49.276 6c3.6 0 5.536-.84 7.188-1.655l.277-.137C58.119 3.525 59.177 3 61.222 3c2.044 0 3.102.525 4.478 1.208l.278.137C67.627 5.16 69.564 6 73.163 6s5.536-.84 7.188-1.655l.278-.137C82.006 3.525 83.064 3 85.108 3c2.045 0 3.103.525 4.479 1.208l.278.137c1.64.81 3.562 1.644 7.117 1.655h.088c3.555-.011 5.476-.845 7.118-1.655l.277-.137C105.842 3.525 106.899 3 108.944 3s3.102.525 4.479 1.208l.277.137C115.352 5.16 117.288 6 120.888 6c3.6 0 5.536-.84 7.188-1.655l.271-.134.004-.002.003-.001C129.73 3.525 130.788 3 132.832 3c2.045 0 3.102.525 4.479 1.208h.002c.09.046.182.091.275.137C139.24 5.16 141.176 6 144.776 6c3.6 0 5.536-.84 7.188-1.655l.271-.134.004-.002.003-.001C153.618 3.525 154.676 3 156.72 3c2.045 0 3.103.525 4.479 1.208l.002.001.275.136C163.128 5.16 165.064 6 168.664 6c3.6 0 5.536-.84 7.188-1.655l.278-.137C177.506 3.525 178.564 3 180.608 3c2.045 0 3.103.525 4.479 1.208h.002c.09.046.182.091.276.137C187.017 5.16 188.953 6 192.552 6c.076 0 .151-.006.224-.017.073.011.148.017.224.017 3.6 0 5.536-.84 7.188-1.655l.277-.137C201.842 3.525 202.899 3 204.944 3s3.102.525 4.479 1.208l.277.137C211.352 5.16 213.288 6 216.888 6c3.6 0 5.536-.84 7.188-1.655l.257-.127.014-.007.004-.002.003-.001C225.73 3.525 226.788 3 228.832 3c2.045 0 3.102.525 4.479 1.208h.002c.09.046.182.091.275.137C235.24 5.16 237.176 6 240.776 6c3.6 0 5.536-.84 7.188-1.655l.257-.127.014-.007.004-.002.003-.001C249.618 3.525 250.676 3 252.72 3c2.045 0 3.103.525 4.479 1.208l.277.137C259.128 5.16 261.064 6 264.664 6c3.6 0 5.536-.84 7.188-1.655l.278-.137C273.506 3.525 274.564 3 276.608 3c2.045 0 3.103.525 4.479 1.208l.008.004.01.005.26.128c1.533.757 3.312 1.535 6.44 1.642.064.009.129.013.195.013.093 0 .185 0 .276-.002l.276.002c.066 0 .132-.004.195-.013 3.128-.107 4.907-.885 6.441-1.642l.268-.133.009-.004C296.842 3.525 297.899 3 299.944 3s3.102.525 4.479 1.208l.009.004.154.077.114.056C306.352 5.16 308.288 6 311.888 6c3.6 0 5.536-.84 7.188-1.655l.156-.077.122-.06C320.73 3.525 321.788 3 323.832 3c2.045 0 3.102.525 4.479 1.208l.02.01.009.004.248.123C330.24 5.16 332.176 6 335.776 6c3.6 0 5.536-.84 7.188-1.655l.278-.137C344.618 3.525 345.676 3 347.72 3c2.045 0 3.103.525 4.479 1.208l.277.137C354.128 5.16 356.064 6 359.664 6c3.6 0 5.536-.84 7.188-1.655l.278-.137C368.506 3.525 369.564 3 371.608 3c2.045 0 3.103.525 4.479 1.208l.008.004.27.133C378.017 5.16 379.953 6 383.552 6c.076 0 .151-.006.224-.017.073.011.148.017.224.017 3.6 0 5.536-.84 7.188-1.655l.25-.123.018-.01.009-.004C392.842 3.525 393.899 3 395.944 3s3.102.525 4.479 1.208l.009.004.268.133C402.352 5.16 404.288 6 407.888 6c3.6 0 5.536-.84 7.188-1.655l.278-.137C416.73 3.525 417.788 3 419.832 3c2.045 0 3.102.525 4.479 1.208l.277.137C426.24 5.16 428.176 6 431.776 6c3.6 0 5.536-.84 7.188-1.655l.278-.137C440.618 3.525 441.676 3 443.72 3c2.045 0 3.103.525 4.479 1.208l.009.004.139.07.129.063C450.128 5.16 452.064 6 455.664 6c3.6 0 5.536-.84 7.188-1.655l.138-.068.14-.07C464.506 3.526 465.564 3 467.608 3c2.045 0 3.103.525 4.479 1.208l.082.04.075.038.121.06c1.533.756 3.312 1.534 6.44 1.641.064.009.129.013.195.013.093 0 .185 0 .276-.002l.276.002c.066 0 .132-.004.195-.013 3.128-.107 4.907-.885 6.441-1.642l.183-.09.094-.047C487.842 3.525 488.899 3 490.944 3s3.102.525 4.479 1.208l.009.004.129.065.139.068C497.352 5.16 499.288 6 502.888 6c3.6 0 5.536-.84 7.188-1.655l.123-.06.155-.077C511.73 3.525 512.788 3 514.832 3c2.045 0 3.102.525 4.479 1.208l.143.071.134.066C521.24 5.16 523.176 6 526.776 6c3.6 0 5.536-.84 7.188-1.655l.278-.137C535.618 3.525 536.676 3 538.72 3c2.045 0 3.103.525 4.479 1.208l.157.078.12.06C545.128 5.16 547.065 6 550.664 6c3.6 0 5.536-.84 7.188-1.655l.278-.137C559.506 3.525 560.564 3 562.608 3c2.045 0 3.103.525 4.479 1.208l.278.137C569.017 5.16 570.953 6 574.552 6c.076 0 .151-.006.224-.017.073.011.148.017.224.017 3.6 0 5.536-.84 7.188-1.655l.277-.137C583.842 3.525 584.899 3 586.944 3s3.102.525 4.479 1.208l.277.137C593.352 5.16 595.288 6 598.888 6c3.6 0 5.536-.84 7.188-1.655l.278-.137C607.73 3.525 608.788 3 610.832 3c2.045 0 3.102.525 4.479 1.208l.168.083.109.054C617.24 5.16 619.176 6 622.776 6c3.6 0 5.536-.84 7.188-1.655l.167-.082.111-.055C631.618 3.525 632.676 3 634.72 3c2.045 0 3.103.525 4.479 1.208l.277.137C641.128 5.16 643.065 6 646.664 6c3.6 0 5.536-.84 7.188-1.655l.278-.137C655.506 3.525 656.564 3 658.608 3c2.045 0 3.103.525 4.479 1.208l.278.137c1.533.757 3.312 1.535 6.44 1.642.064.009.129.013.195.013.093 0 .185 0 .276-.002l.058.001h.102l.116.001c.066 0 .132-.004.195-.013 3.128-.107 4.907-.885 6.441-1.642l.108-.053.169-.084C678.842 3.525 679.899 3 681.944 3s3.102.525 4.479 1.208l.159.079.118.058C688.352 5.16 690.288 6 693.888 6c3.6 0 5.536-.84 7.188-1.655l.278-.137C702.73 3.525 703.788 3 705.832 3c2.045 0 3.102.525 4.479 1.208l.277.137C712.24 5.16 714.176 6 717.776 6c3.6 0 5.536-.84 7.188-1.655l.153-.075.125-.062C726.618 3.525 727.676 3 729.72 3c2.045 0 3.103.525 4.479 1.208l.277.137C736.128 5.16 738.065 6 741.664 6c3.6 0 5.536-.84 7.188-1.655l.278-.137C750.506 3.525 751.564 3 753.608 3c2.045 0 3.103.525 4.479 1.208l.278.137C760.017 5.16 761.953 6 765.552 6c.076 0 .151-.006.224-.017.073.011.148.017.224.017 3.6 0 5.536-.84 7.188-1.655l.277-.137C774.842 3.525 775.899 3 777.944 3s3.102.525 4.479 1.208l.277.137C784.352 5.16 786.288 6 789.888 6c3.6 0 5.536-.84 7.188-1.655l.278-.137C798.73 3.525 799.788 3 801.832 3c2.045 0 3.102.525 4.479 1.208l.277.137C808.24 5.16 810.176 6 813.776 6c3.6 0 5.536-.84 7.188-1.655l.278-.137C822.618 3.525 823.676 3 825.72 3c2.045 0 3.103.525 4.479 1.208l.136.067.141.07C832.128 5.16 834.065 6 837.664 6c3.6 0 5.536-.84 7.188-1.655l.176-.087.102-.05C846.506 3.525 847.564 3 849.608 3c2.045 0 3.103.525 4.479 1.208l.278.137C856.017 5.16 857.953 6 861.552 6c.076 0 .151-.006.224-.017.073.011.148.017.224.017 3.6 0 5.536-.84 7.188-1.655l.112-.055.165-.082C870.842 3.525 871.899 3 873.944 3s3.102.525 4.479 1.208l.114.056.163.081C880.352 5.16 882.288 6 885.888 6c3.6 0 5.536-.84 7.188-1.655l.278-.137C894.73 3.525 895.788 3 897.832 3c2.045 0 3.102.525 4.479 1.208l.277.137C904.24 5.16 906.176 6 909.776 6c3.6 0 5.536-.84 7.188-1.655l.278-.137C918.618 3.525 919.676 3 921.72 3c2.045 0 3.103.525 4.479 1.208l.277.137C928.128 5.16 930.065 6 933.664 6c3.6 0 5.536-.84 7.188-1.655l.168-.083.11-.054C942.506 3.525 943.564 3 945.608 3c2.045 0 3.103.525 4.479 1.208l.278.137c1.533.757 3.312 1.535 6.44 1.642.064.009.129.013.195.013.093 0 .185 0 .276-.002l.096.001.18.001c.066 0 .132-.004.195-.013 3.128-.107 4.907-.885 6.441-1.642l.277-.137C965.842 3.525 966.899 3 968.944 3s3.102.525 4.479 1.208l.096.048.181.09C975.352 5.16 977.288 6 980.888 6c3.6 0 5.536-.84 7.188-1.655l.278-.137C989.73 3.525 990.788 3 992.832 3c2.045 0 3.102.525 4.479 1.208l.093.046.184.091C999.24 5.16 1001.18 6 1004.78 6s5.53-.84 7.18-1.655c.1-.046.19-.092.28-.137 1.38-.683 2.44-1.208 4.48-1.208 2.04 0 3.1.525 4.48 1.208l.16.082.12.055c1.65.815 3.58 1.655 7.18 1.655 3.6 0 5.54-.84 7.19-1.655.1-.046.19-.092.28-.137 1.38-.683 2.43-1.208 4.48-1.208 2.04 0 3.1.525 4.48 1.208.09.045.18.09.27.137 1.66.815 3.59 1.655 7.19 1.655.08 0 .15-.006.23-.017.07.011.14.017.22.017 3.6 0 5.54-.84 7.19-1.655.09-.046.18-.092.28-.137 1.37-.683 2.43-1.208 4.47-1.208 2.05 0 3.11.525 4.48 1.208l.02.01c.09.042.17.084.26.127 1.65.815 3.59 1.655 7.19 1.655 3.6 0 5.53-.84 7.19-1.655.08-.043.17-.085.25-.127l.02-.01c1.38-.683 2.44-1.208 4.48-1.208 2.05 0 3.1.525 4.48 1.208.09.045.18.09.28.137 1.65.815 3.59 1.655 7.19 1.655 3.6 0 5.53-.84 7.18-1.655l.15-.071.13-.066c1.38-.683 2.44-1.208 4.48-1.208 2.04 0 3.1.525 4.48 1.208l.02.01c.08.042.17.084.26.127 1.65.815 3.58 1.655 7.18 1.655 3.6 0 5.54-.84 7.19-1.655l.12-.057.16-.08c1.38-.683 2.43-1.208 4.48-1.208 2.04 0 3.1.525 4.48 1.208.09.045.18.09.27.137 1.54.757 3.32 1.535 6.44 1.642.07.009.13.013.2.013.09 0 .19 0 .28-.002l.27.002c.07 0 .13-.004.2-.013 3.13-.107 4.9-.885 6.44-1.642l.12-.06.16-.077c1.37-.683 2.43-1.208 4.47-1.208 2.05 0 3.11.525 4.48 1.208.09.045.19.09.28.137 1.65.815 3.59 1.655 7.19 1.655 3.6 0 5.53-.84 7.19-1.655l.17-.084.1-.053c1.38-.683 2.44-1.208 4.48-1.208 2.05 0 3.1.525 4.48 1.208.09.045.18.09.28.137 1.65.815 3.59 1.655 7.19 1.655 3.6 0 5.53-.84 7.18-1.655.09-.043.18-.085.26-.127l.02-.01c1.38-.683 2.44-1.208 4.48-1.208 2.04 0 3.1.525 4.48 1.208l.02.01c.08.042.17.084.26.127 1.65.815 3.58 1.655 7.18 1.655 3.6 0 5.54-.84 7.19-1.655.1-.046.19-.092.28-.137 1.38-.683 2.43-1.208 4.48-1.208 2.04 0 3.1.525 4.48 1.208.09.045.18.09.27.137 1.66.815 3.59 1.655 7.19 1.655a1.499 1.499 0 100-3c-2.99 0-4.47-.66-5.86-1.345-.1-.048-.19-.097-.29-.145-1.44-.718-3.04-1.51-5.79-1.51-2.76 0-4.35.792-5.79 1.51l-.02.006-.27.139c-1.39.685-2.87 1.345-5.87 1.345-2.99 0-4.47-.66-5.86-1.345-.09-.048-.19-.097-.29-.145-1.44-.718-3.03-1.51-5.79-1.51-2.76 0-4.35.792-5.79 1.51l-.01.006c-.1.047-.19.093-.28.139-1.39.685-2.87 1.345-5.86 1.345-3 0-4.47-.66-5.86-1.345a6.23 6.23 0 01-.28-.139l-.02-.006c-1.44-.718-3.03-1.51-5.79-1.51-2.75 0-4.35.792-5.79 1.51l-.01.006c-.1.047-.19.093-.28.139-1.39.685-2.87 1.345-5.86 1.345-3 0-4.47-.66-5.86-1.345a6.23 6.23 0 01-.28-.139l-.02-.006c-1.44-.718-3.03-1.51-5.79-1.51-2.75 0-4.34.792-5.79 1.51l-.01.006c-.09.047-.19.093-.28.139-1.35.664-2.77 1.304-5.58 1.343-2.82-.04-4.24-.68-5.59-1.343-.1-.048-.19-.097-.29-.145-1.44-.718-3.04-1.51-5.79-1.51-2.76 0-4.35.792-5.79 1.51-.1.048-.2.097-.29.145-1.39.685-2.87 1.345-5.87 1.345-2.99 0-4.47-.66-5.86-1.345-.09-.046-.18-.092-.28-.139l-.01-.006c-1.44-.718-3.03-1.51-5.79-1.51-2.76 0-4.35.792-5.79 1.51l-.01.006c-.1.047-.19.093-.28.139-1.39.685-2.87 1.345-5.86 1.345-3 0-4.47-.66-5.86-1.345a6.23 6.23 0 01-.28-.139l-.02-.006c-1.44-.718-3.03-1.51-5.79-1.51-2.75 0-4.35.792-5.79 1.51l-.01.006-.19.091-.09.048c-1.39.685-2.87 1.345-5.86 1.345-3 0-4.47-.66-5.86-1.345l-.3-.145c-1.44-.718-3.03-1.51-5.79-1.51-2.75 0-4.34.792-5.79 1.51l-.13.066-.16.079C1057.47 2.34 1056 3 1053 3c-.08 0-.15.006-.22.017-.08-.011-.15-.017-.23-.017-2.99 0-4.47-.66-5.86-1.345-.09-.046-.18-.092-.28-.139l-.01-.006c-1.44-.718-3.04-1.51-5.79-1.51-2.76 0-4.35.792-5.79 1.51l-.02.006-.27.139c-1.39.685-2.87 1.345-5.87 1.345-2.99 0-4.47-.66-5.86-1.345l-.24-.119-.01-.006-.03-.014-.01-.006c-1.44-.718-3.03-1.51-5.79-1.51-2.76 0-4.35.792-5.79 1.51l-.01.006c-.1.047-.19.093-.28.139-1.39.685-2.87 1.345-5.86 1.345-3 0-4.47-.66-5.865-1.345l-.292-.145C997.181.792 995.589 0 992.832 0c-2.756 0-4.348.792-5.791 1.51l-.013.006-.279.139C985.359 2.34 983.885 3 980.888 3s-4.471-.66-5.861-1.345l-.279-.139-.013-.006C973.292.792 971.701 0 968.944 0c-2.756 0-4.348.792-5.791 1.51l-.292.145c-1.347.664-2.772 1.304-5.585 1.343-2.812-.04-4.238-.68-5.585-1.343l-.279-.139-.013-.006C949.957.792 948.365 0 945.608 0c-2.756 0-4.348.792-5.791 1.51l-.292.145C938.135 2.34 936.661 3 933.664 3s-4.471-.66-5.861-1.345l-.238-.119-.014-.006-.027-.014-.013-.006C926.069.792 924.477 0 921.72 0c-2.756 0-4.348.792-5.791 1.51l-.013.006-.027.014-.014.006-.238.119C914.247 2.34 912.773 3 909.776 3s-4.471-.66-5.861-1.345l-.15-.075-.142-.07C902.181.792 900.589 0 897.832 0c-2.756 0-4.348.792-5.791 1.51l-.013.006-.027.014-.1.05-.152.075C890.359 2.34 888.885 3 885.888 3s-4.471-.66-5.861-1.345l-.16-.08-.119-.059-.013-.006C878.292.792 876.701 0 873.944 0c-2.756 0-4.348.792-5.791 1.51l-.13.064-.162.08C866.471 2.34 864.997 3 862 3c-.076 0-.151.006-.224.017a1.514 1.514 0 00-.224-.017c-2.997 0-4.471-.66-5.861-1.345l-.292-.145C853.957.792 852.365 0 849.608 0c-2.756 0-4.348.792-5.791 1.51l-.013.006-.007.004-.03.015-.242.12C842.135 2.34 840.661 3 837.664 3s-4.471-.66-5.861-1.345l-.292-.145C830.069.792 828.477 0 825.72 0c-2.756 0-4.348.792-5.791 1.51l-.013.006-.027.014-.014.006-.029.015-.209.104C818.247 2.34 816.773 3 813.776 3s-4.471-.66-5.861-1.345l-.125-.062-.154-.077-.013-.006C806.181.792 804.589 0 801.832 0c-2.756 0-4.348.792-5.791 1.51l-.013.006-.027.014-.014.007-.116.057-.122.06C794.359 2.34 792.885 3 789.888 3s-4.471-.66-5.861-1.345l-.292-.145C782.292.792 780.701 0 777.944 0c-2.756 0-4.348.792-5.791 1.51l-.013.006-.168.084-.111.055C770.471 2.34 768.997 3 766 3c-.076 0-.151.006-.224.017a1.514 1.514 0 00-.224-.017c-2.997 0-4.471-.66-5.861-1.345l-.188-.094-.091-.045-.013-.006C757.957.792 756.365 0 753.608 0c-2.756 0-4.348.792-5.791 1.51l-.013.006-.007.004-.272.135C746.135 2.34 744.661 3 741.664 3s-4.471-.66-5.861-1.345l-.114-.057-.138-.068-.027-.014-.013-.006C734.069.792 732.477 0 729.72 0c-2.756 0-4.348.792-5.791 1.51l-.013.006-.027.014-.014.006-.029.015-.209.104C722.247 2.34 720.773 3 717.776 3s-4.471-.66-5.861-1.345l-.292-.145C710.181.792 708.589 0 705.832 0c-2.756 0-4.348.792-5.791 1.51l-.292.145C698.359 2.34 696.885 3 693.888 3s-4.471-.66-5.861-1.345l-.292-.145C686.292.792 684.701 0 681.944 0c-2.756 0-4.348.792-5.791 1.51l-.013.006-.027.014-.252.125c-1.347.664-2.772 1.304-5.585 1.343-2.812-.04-4.238-.68-5.585-1.343a116.71 116.71 0 00-.252-.125l-.027-.014-.013-.006C662.957.792 661.365 0 658.608 0c-2.756 0-4.348.792-5.791 1.51l-.013.006-.279.139C651.135 2.34 649.661 3 646.664 3s-4.471-.66-5.861-1.345l-.292-.145C639.069.792 637.477 0 634.72 0c-2.756 0-4.348.792-5.791 1.51l-.013.006-.027.014-.112.056-.14.069C627.247 2.34 625.773 3 622.776 3s-4.471-.66-5.861-1.345l-.292-.145C615.181.792 613.589 0 610.832 0c-2.756 0-4.348.792-5.791 1.51l-.013.006-.279.139C603.359 2.34 601.885 3 598.888 3s-4.471-.66-5.861-1.345a40.325 40.325 0 01-.252-.125l-.027-.014-.013-.006C591.292.792 589.701 0 586.944 0c-2.756 0-4.348.792-5.791 1.51l-.292.145C579.471 2.34 577.997 3 575 3c-.076 0-.151.006-.224.017a1.514 1.514 0 00-.224-.017c-2.997 0-4.471-.66-5.861-1.345a93.72 93.72 0 01-.278-.139l-.014-.006C566.957.792 565.365 0 562.608 0c-2.756 0-4.348.792-5.791 1.51l-.292.145C555.135 2.34 553.661 3 550.664 3s-4.471-.66-5.861-1.345l-.216-.107-.024-.012-.038-.02-.014-.006C543.069.792 541.477 0 538.72 0c-2.756 0-4.348.792-5.791 1.51l-.013.006-.279.139C531.247 2.34 529.773 3 526.776 3s-4.471-.66-5.861-1.345l-.252-.125-.027-.014-.013-.006C519.181.792 517.589 0 514.832 0c-2.756 0-4.348.792-5.791 1.51l-.013.006a41.03 41.03 0 01-.279.139C507.359 2.34 505.885 3 502.888 3s-4.471-.66-5.861-1.345l-.292-.145C495.293.792 493.701 0 490.944 0c-2.756 0-4.348.792-5.791 1.51l-.013.006a41.03 41.03 0 01-.279.139c-1.347.664-2.772 1.304-5.585 1.343-2.812-.04-4.238-.68-5.585-1.343l-.292-.145C471.957.792 470.365 0 467.608 0c-2.756 0-4.348.792-5.791 1.51l-.013.006a41.03 41.03 0 01-.279.139C460.135 2.34 458.661 3 455.664 3s-4.471-.66-5.861-1.345l-.279-.139-.013-.006C448.069.792 446.477 0 443.72 0c-2.756 0-4.348.792-5.791 1.51l-.292.145C436.247 2.34 434.773 3 431.776 3s-4.471-.66-5.861-1.345l-.292-.145C424.181.792 422.589 0 419.832 0c-2.756 0-4.348.792-5.791 1.51l-.003.002-.007.003-.282.14C412.359 2.34 410.885 3 407.888 3s-4.471-.66-5.861-1.345a41.03 41.03 0 01-.279-.139l-.013-.006C400.293.792 398.701 0 395.944 0c-2.756 0-4.348.792-5.791 1.51l-.013.006a41.03 41.03 0 01-.279.139C388.471 2.34 386.997 3 384 3c-.076 0-.151.006-.224.017a1.514 1.514 0 00-.224-.017c-2.997 0-4.471-.66-5.861-1.345l-.292-.145C375.957.792 374.365 0 371.608 0c-2.756 0-4.348.792-5.791 1.51l-.013.006a41.03 41.03 0 01-.279.139C364.135 2.34 362.661 3 359.664 3s-4.471-.66-5.861-1.345l-.279-.139-.013-.006C352.069.792 350.477 0 347.72 0c-2.756 0-4.348.792-5.791 1.51l-.003.002-.007.003-.004.002-.008.004-.27.134C340.247 2.34 338.773 3 335.776 3s-4.471-.66-5.861-1.345l-.279-.139-.013-.006C328.181.792 326.589 0 323.832 0c-2.756 0-4.348.792-5.791 1.51l-.003.002-.007.003-.282.14C316.359 2.34 314.885 3 311.888 3s-4.471-.66-5.861-1.345a41.03 41.03 0 01-.279-.139l-.013-.006C304.293.792 302.701 0 299.944 0c-2.756 0-4.348.792-5.791 1.51l-.013.006a41.03 41.03 0 01-.279.139c-1.347.664-2.772 1.304-5.585 1.343-2.812-.04-4.238-.68-5.585-1.343l-.292-.145C280.957.792 279.365 0 276.608 0c-2.756 0-4.348.792-5.791 1.51l-.013.006a41.03 41.03 0 01-.279.139C269.135 2.34 267.661 3 264.664 3s-4.471-.66-5.861-1.345l-.292-.145C257.069.792 255.477 0 252.72 0c-2.756 0-4.348.792-5.791 1.51l-.292.145C245.247 2.34 243.773 3 240.776 3s-4.471-.66-5.861-1.345l-.292-.145C233.181.792 231.589 0 228.832 0c-2.756 0-4.348.792-5.791 1.51l-.004.002-.288.143C221.359 2.34 219.885 3 216.888 3s-4.471-.66-5.861-1.345l-.292-.145C209.292.792 207.701 0 204.944 0c-2.756 0-4.348.792-5.791 1.51l-.292.145C197.471 2.34 195.997 3 193 3c-.076 0-.151.006-.224.017a1.514 1.514 0 00-.224-.017c-2.997 0-4.471-.66-5.861-1.345l-.288-.143-.004-.002C184.957.792 183.365 0 180.608 0c-2.756 0-4.348.792-5.791 1.51l-.003.002-.289.143C173.135 2.34 171.661 3 168.664 3s-4.471-.66-5.861-1.345l-.277-.138-.011-.005-.004-.002C161.069.792 159.477 0 156.72 0c-2.756 0-4.348.792-5.791 1.51l-.003.002-.289.143C149.247 2.34 147.773 3 144.776 3s-4.471-.66-5.861-1.345l-.292-.145C137.181.792 135.589 0 132.832 0c-2.756 0-4.348.792-5.791 1.51l-.004.002h-.002l-.001.002-.285.14C125.359 2.34 123.885 3 120.888 3s-4.471-.66-5.861-1.345l-.292-.145C113.292.792 111.701 0 108.944 0c-2.756 0-4.348.792-5.791 1.51l-.292.145c-1.386.683-2.856 1.341-5.835 1.345-2.98-.004-4.449-.662-5.835-1.345L90.9 1.51C89.457.792 87.865 0 85.11 0c-2.757 0-4.35.792-5.792 1.51l-.292.145C77.635 2.34 76.161 3 73.165 3c-2.998 0-4.472-.66-5.862-1.345l-.292-.145C65.569.792 63.977 0 61.221 0c-2.757 0-4.35.792-5.792 1.51l-.292.145C53.747 2.34 52.273 3 49.277 3c-2.998 0-4.472-.66-5.862-1.345l-.292-.145C41.68.792 40.089 0 37.333 0c-2.757 0-4.35.792-5.792 1.51l-.292.145C29.859 2.34 28.385 3 25.389 3c-2.998 0-4.472-.66-5.862-1.345l-.292-.145C17.793.792 16.2 0 13.444 0c-2.757 0-4.348.792-5.79 1.51l-.293.145C5.97 2.34 4.497 3 1.5 3A1.5 1.5 0 000 4.5z" fill="#E0E0E0"/></svg>