<?xml version="1.0" encoding="utf-8"?><svg width="16" height="19" fill="none" xmlns="http://www.w3.org/2000/svg" viewBox="0 0 16 19"><path d="M11.04 10.938c.843 0 1.616.21 2.355.632.703.422 1.3 1.02 1.722 1.723.422.738.633 1.512.633 2.355v.915c0 .492-.176.878-.492 1.195a1.593 1.593 0 01-1.195.492H1.687c-.492 0-.878-.14-1.195-.492C.141 17.44 0 17.055 0 16.563v-.915c0-.843.21-1.617.633-2.355.422-.703.984-1.3 1.722-1.723a4.55 4.55 0 012.356-.633c.281 0 .703.106 1.195.247.317.105.598.175.809.21.351.07.738.106 1.16.106.422 0 .809-.035 1.16-.105.211-.036.457-.106.809-.211.492-.141.879-.246 1.195-.246zm3.023 5.624v-.914c0-.808-.317-1.511-.915-2.109-.597-.598-1.3-.914-2.109-.914-.14 0-.387.07-.703.14a7.87 7.87 0 01-2.461.422c-.773 0-1.617-.14-2.46-.421-.353-.07-.599-.141-.704-.141-.844 0-1.547.316-2.145.914a2.869 2.869 0 00-.878 2.11v.914h12.374zm-6.188-6.187c-.914 0-1.758-.21-2.531-.668A5.256 5.256 0 013.48 7.844c-.457-.774-.667-1.617-.667-2.532 0-.914.21-1.757.667-2.53.458-.774 1.09-1.372 1.864-1.829a4.902 4.902 0 015.062 0 5.063 5.063 0 011.828 1.828 4.903 4.903 0 010 5.063c-.457.773-1.054 1.406-1.828 1.863-.773.457-1.617.668-2.531.668zm0-8.438a3.29 3.29 0 00-2.39.985 3.265 3.265 0 00-.985 2.39c0 .95.316 1.758.984 2.391.633.668 1.442.984 2.391.984.914 0 1.723-.316 2.39-.984a3.29 3.29 0 00.985-2.39c0-.915-.352-1.723-.984-2.391-.668-.633-1.477-.985-2.391-.985z" fill="#D9435D"/></svg>