<?xml version="1.0" encoding="utf-8"?><svg width="20" height="20" fill="none" xmlns="http://www.w3.org/2000/svg" viewBox="0 0 20 20"><g clip-path="url(#baclip0)"><path d="M19.894 14.305a1.36 1.36 0 00-.068-.13c-.347-.625-1.01-1.392-1.989-2.301l-.02-.021-.01-.01-.011-.01h-.01c-.445-.424-.726-.709-.844-.855-.216-.277-.264-.559-.146-.843.083-.216.396-.67.937-1.364.285-.368.51-.663.677-.885 1.201-1.597 1.722-2.618 1.562-3.062l-.062-.104c-.042-.062-.15-.12-.323-.172-.174-.052-.396-.06-.666-.026l-3 .021a.389.389 0 00-.208.005l-.135.032-.052.026-.042.031a.464.464 0 00-.114.11.716.716 0 00-.104.182c-.327.84-.698 1.62-1.114 2.343-.257.43-.493.803-.709 1.119a5.387 5.387 0 01-.541.698c-.146.149-.278.268-.396.359-.118.09-.208.128-.27.114a7.733 7.733 0 01-.178-.041.693.693 0 01-.234-.255 1.141 1.141 0 01-.12-.407 4.45 4.45 0 01-.036-.421 8.705 8.705 0 01.005-.5c.007-.216.01-.361.01-.438 0-.263.006-.55.016-.859l.026-.734c.007-.18.01-.371.01-.572 0-.202-.012-.36-.036-.474a1.62 1.62 0 00-.109-.334.561.561 0 00-.213-.25 1.203 1.203 0 00-.35-.14c-.367-.083-.836-.128-1.405-.135-1.291-.014-2.12.07-2.489.25-.146.076-.278.18-.396.312-.125.153-.142.236-.052.25.417.062.712.211.885.447l.063.126c.049.09.097.25.146.479.048.229.08.482.093.76.035.506.035.94 0 1.301-.034.361-.067.642-.098.844a1.689 1.689 0 01-.266.718.18.18 0 01-.052.052.78.78 0 01-.281.052c-.098 0-.216-.048-.354-.146a2.499 2.499 0 01-.432-.4 5.36 5.36 0 01-.506-.714A12.448 12.448 0 015.3 7.25l-.166-.302a25.963 25.963 0 01-.427-.848c-.18-.372-.34-.731-.48-1.078a.686.686 0 00-.249-.333l-.052-.032a.712.712 0 00-.167-.088 1.105 1.105 0 00-.24-.068l-2.852.02c-.292 0-.49.067-.594.199l-.042.062A.337.337 0 000 4.95c0 .076.02.17.063.281.416.979.869 1.923 1.358 2.832.49.91.915 1.642 1.276 2.197.36.556.729 1.08 1.104 1.573.375.493.623.809.744.947.122.14.217.243.287.313l.26.25c.167.166.411.366.734.598.323.233.68.462 1.073.688.392.225.848.41 1.37.552.52.142 1.027.2 1.52.172h1.197c.243-.021.427-.098.552-.23l.041-.052a.687.687 0 00.078-.192c.025-.087.037-.183.037-.287a3.429 3.429 0 01.067-.806c.052-.24.111-.42.178-.542a1.33 1.33 0 01.4-.458.691.691 0 01.084-.036c.166-.056.362-.002.588.161.226.163.438.365.636.604.197.24.435.509.713.807.278.299.52.52.729.667l.208.125c.139.083.32.16.542.229.221.069.416.086.583.052l2.665-.042c.264 0 .469-.044.614-.13.146-.087.233-.182.26-.287a.805.805 0 00.006-.354 1.311 1.311 0 00-.073-.276z" fill="#D9435D"/></g><defs><clipPath id="baclip0"><path fill="#fff" d="M0 0h20v20H0z"/></clipPath></defs></svg>