<?xml version="1.0" encoding="utf-8"?><svg width="20" height="20" fill="none" xmlns="http://www.w3.org/2000/svg" viewBox="0 0 20 20"><g clip-path="url(#bbclip0)"><path d="M19.83 6.224c-.112-1.331-.906-3.01-2.537-3.07-4.555-.307-9.952-.39-14.59 0C1.264 3.315.278 5.068.171 6.399c-.228 2.796-.228 4.388 0 7.184.108 1.331 1.07 3.094 2.535 3.279 4.693.306 10.063.35 14.59 0 1.42-.246 2.426-1.948 2.534-3.279.227-2.798.227-4.563 0-7.359zM7.497 13.538v-7.17l6.25 3.586-6.25 3.584z" fill="#D9435D"/></g><defs><clipPath id="bbclip0"><path fill="#fff" d="M0 0h20v20H0z"/></clipPath></defs></svg>