<?xml version="1.0" encoding="utf-8"?><svg viewBox="0 0 1246 52" xmlns="http://www.w3.org/2000/svg" xmlns:xlink="http://www.w3.org/1999/xlink"><style>:root>svg{display:none}:root>svg:target{display:block}</style><svg fill="none" viewBox="0 0 187 10" id="animal-bottom" xmlns="http://www.w3.org/2000/svg"><path d="M1.637 5.048c1.671-.988 3.732-1.354 5.339-2.377.486-.31-.038.436-.101.521-.575.777-1.115 1.589-1.71 2.35-.118.152-1.477 1.34-.665 1.837.919 0 1.184-.97 1.827-1.517.877-.747 1.788-1.775 2.88-2.203.8-.315 1.766-.478 2.504-.915.695-.412-.058.121-.274.33-.849.817-1.582 1.643-2.34 2.54C8.79 5.978 7.89 6.81 7.89 7.353c0 .06 2.564-1.293 2.779-1.408 1.943-1.042 3.723-2.254 5.906-2.76.244-.057 1.993-.445.822-.202-2.396.498-4.678 1.028-6.755 2.368-2.186 1.41 1.226.88 2.093.557 2.39-.888 4.749-1.731 7.186-2.486.788-.244 3.248-.512 2.422-.512-2.59 0-5.294 2.078-7.423 3.355-.653.392-2.267 1.14-.42 1.115 1.436-.02 2.569-.402 3.83-1.014 1.397-.679 2.84-1.274 4.26-1.902 1.243-.549 2.549-.889 3.821-1.353.55-.2 1.233-.622 1.829-.622.782 0-1.404.69-2.103 1.043-1.183.596-2.427 1.36-3.383 2.285-.893.865-2.067 1.913.246 1.27 2.507-.696 4.441-1.735 6.776-2.852 1.073-.513 2.23-.886 3.29-1.417 2.481-1.24-7.993 1.448-7.23 4.114.281.986 4.534-1.305 4.69-1.39 1.471-.797 3.366-1.556 4.57-2.76.203-.203-.605-.061-.86.073-.853.451-2.972 4.043-2.656 4.12.85.206 1.504-.231 2.108-.61 1.989-1.245 3.958-2.348 6.144-3.217.22-.088 1.05-.425.374-.147-.998.411-2.034.788-3.053 1.143-1.54.537-3.072.98-4.397 1.975-.176.132-.636.472.223-.059 1.726-1.066 2.307-1.393 4.21-2.144 1.324-.523 2.71-.814 4.06-1.244.287-.091-.544.265-.796.43a13.63 13.63 0 00-3.08 2.77c-.31.38-.543.752-.686 1.216-.032.104-.253.317-.146.292.84-.194 1.734-.823 2.495-1.197a60.922 60.922 0 014.708-2.076c.125-.048 3.291-1.064 3.291-1.28 0-.175-1.471-.074-1.59-.063-1.646.14-3.195.793-4.608 1.618-.732.427-1.654 1.107-1.5 2.075.17 1.062 1.125.92 1.912.612 2.171-.846 4.277-2.039 6.326-3.144.558-.302 2.06-.847 1.508-1.161-.686-.393-2.998 1.576-3.474 1.956-.142.113-2.505 2.36-2.139 2.596.283.182 1.4-.358 1.59-.439 1.349-.568 2.52-1.426 3.767-2.175.309-.186 3.986-2.505 4.206-2.286.07.07-.184.071-.275.11a7.236 7.236 0 00-.969.494 15.07 15.07 0 00-2.523 1.901c-.624.59-2.048.956-2.048 1.926 0 .588 1.438-.438 1.518-.494 1.554-1.083 3.134-1.22 4.809-2.108.927-.492 2.179-.651 3.025-1.244.213-.149-.8 1.096-.941 1.308-.463.693-1.156 1.752-1.307 2.587-.046.252.435-.273.63-.439.822-.7 1.636-1.4 2.514-2.03.099-.07 2.034-1.455 1.637-1.508-1.349-.18-2.6.811-3.538 1.646-.167.148-2.122 2.042-1.143 2.12 1.65.132 3.14-1.113 4.416-1.983 1.19-.812 2.698-1.575 3.739-2.578.246-.238-.128-.146-.238-.092-.926.457-1.725 1.221-2.432 1.957-.951.99-1.615 2.255-2.578 3.218-.168.168-.562.229-.768.073-1.125-.856.355-4.307-2.23-3.273-.697.278-3.673 3.144-2.066 3.803 1.142.468 2.695.109 3.775-.33 3.092-1.253 6.02-2.87 9.16-4.022.64-.234.896-.17.201-.384-.685-.21-1.046-.55-1.791-.164-1.526.79-2.703 2.166-3.968 3.3-.561.503-1.06 1.102.064.869 2.734-.568 5.28-2.193 7.899-3.145.014-.005 1.974-.61 1.974-.777 0-.162-2.45 1.586-2.614 1.728a38.145 38.145 0 00-2.194 2.03c-.044.043-.76.746-.165.493 2.167-.924 3.926-2.733 5.979-3.876.295-.165 1.05-.604.439-.037-1.294 1.201-2.911 1.94-3.456 3.662-.216.682.566.285.823.128.991-.605 1.878-.446 2.76-1.194l3.913-3.31c.509-.429-.017.434-.146.568-1.067 1.108-2.097 2.31-2.898 3.63-.622 1.024.824.088 1.106-.092 1.65-1.058 3.255-2.26 4.81-3.456 1.003-.772-.231.326-.522.759-.332.494-1.83 2.69-1.527 3.373.163.365 1.956-1.61 1.984-1.636 1.22-1.127 2.603-2.583 4.141-3.282.391-.178-.643.569-.96.86-.882.808-1.604 1.724-2.33 2.669-.726.943 1.79-.67 2.029-.796.68-.356 2.583-1.007 2.998-1.773.163-.302-.685-.144-1.024-.092-1.701.264-3.375.694-5.064 1.024-.208.04-1.723.357-.567.073 1.288-.316 2.552-.722 3.84-1.042.852-.212 2.754-.995 3.656-.713.205.064-.345.257-.53.366-.63.37-.922.539-1.536.987-.924.676-1.938 1.443-2.578 2.414-.09.136-.545.875-.018.75 1.024-.246 1.997-.973 2.852-1.537 1.396-.92 2.754-1.897 4.15-2.815 1.508-.991-1.468.759-1.791 1.042-.229.2-2.194 2.73-2.103 2.724.647-.042 1.493-.723 2.011-1.024 1.371-.794 2.755-1.554 4.15-2.304.582-.312 1.037-.696.184-.128a14.21 14.21 0 00-2.688 2.304c-.288.32-1.2 1.144-.786 1.024 1.136-.329 2.274-1.037 3.29-1.609 1.075-.604 2.17-1.247 3.127-2.03.364-.296.084-.273-.2-.127-1.333.68-2.546 1.741-3.657 2.724-.57.504-2.149 1.867-1.39 1.81.945-.07 2.095-.906 2.87-1.371 1.102-.66 2.137-1.424 3.292-1.993.646-.32 1.268-.708 1.865-1.024.283-.15.405-.303-.064-.082-1.768.832-2.81 1.584-3.663 3.36-.546 1.138.329 1.187 1.097.64 2.104-1.496 2.798-2.361 4.714-4.074.072-.064.306-.232.247-.155-.125.162-.845.996-.869 1.024-.576.67-1.173 1.32-1.7 2.03-.12.162-.844.984-.1.713 1.434-.525 2.721-1.66 3.949-2.533.67-.476 2.787-1.49 1.965-1.49-.572 0-1.388.71-1.755 1.051-.99.923-.888 2.085-1.487 3.3-.03.06-.52 1.111.01.823 1.9-1.032 2.477-2.93 4.219-4.223.294-.218 1.189-.85.878-.658-.962.594-1.78 1.466-2.505 2.322-.011.012-1.052 1.165-.75 1.371.323.22 1.437-.741 1.628-.878 1.393-.998 5.568-3.998 4.15-3.035-1.295.88-3.528 2.542-3.638 4.297-.03.483.795-.553 1.17-.86.96-.785 1.918-1.557 2.962-2.23.655-.423 2.662-1.626 1.993-1.225-.638.383-1.197.881-1.737 1.39-.819.77-1.693 1.577-2.34 2.504-.086.123-.459.68 0 .53 1.608-.526 3.07-1.727 4.598-2.459.763-.365 1.714-.688 2.258-1.38.053-.068.118-.284.037-.256-.252.088-.82.54-.933.63-.421.335-3.388 2.817-2.944 3.594.105.182 5.275-3.799 5.696-4.096.661-.467 1.174-.79.457.073-.69.831-1.417 1.631-2.121 2.45-.323.376-2.017 1.873-.576 1.152 1.976-.988 3.591-2.62 5.439-3.812.089-.057 1.446-.83 1.116-.704-1.398.533-3.138 2.155-3.721 3.529-.157.37-.282.98.311.603 1.11-.704 2.167-1.485 3.291-2.176.619-.38 1.763-.853 2.176-1.517.348-.56-.987.89-1.372 1.426-.364.507-1.862 2.45-1.426 3.2.227.389 3.064-2.076 3.2-2.176a30.522 30.522 0 013.73-2.34c.317-.17.485-.385.018-.202-1.844.727-3.248 2.949-4.114 4.626-.741 1.436 1.312-.572 1.609-.804 1.585-1.24 6.388-4.892 4.772-3.694-1.73 1.284-3.444 2.124-4.479 4.041-.718 1.33 1.357.565 1.554.42 1.786-1.306 3.728-2.582 5.75-3.492.132-.059.451-.336.311-.301-.697.174-1.356.765-1.838 1.261-.753.777-1.399 1.694-1.965 2.615-.293.475.086.292.384.146 2.172-1.06 4.092-2.61 6.271-3.684.276-.136 1.082-.57.786-.485-1.126.322-2.155 1.094-3.025 1.847-.791.683-1.527 1.463-2.057 2.368-.032.053-.119.214-.101.155.075-.245.158-.417.293-.658.245-.438 3.018-3.772 2.815-3.94-1.227-1.023-3.786 1.079-4.571 1.755-.72.62-1.395 1.334-2.175 1.883-.47.331.85-.773 1.298-1.133 1.321-1.065 2.632-1.804 4.296-2.176 1.052-.235 2.126-.316 3.2-.366.751-.034 1.277-.119.512.585-.957.881-1.929 1.733-2.797 2.706-.2.225-1.315 1.28-1.28 1.664.013.148.247-.165.365-.256a85.77 85.77 0 001.006-.786c1.092-.866 2.191-1.705 3.346-2.487.119-.08 1.3-.86 1.518-1.005.139-.093.453-.438.42-.274-.054.272-.903.925-1.06 1.097-.798.869-3.167 3.38-2.121 2.834 1.691-.883 3.051-2.458 4.644-3.52.043-.029.922-.7.228-.293-.93.547-1.723 1.405-2.468 2.167-.241.246-3.009 3.267-1.106 1.975 1.655-1.125 3.03-2.642 4.644-3.83.13-.097-.247.21-.357.328-.911.993-1.754 2.08-2.541 3.173-.334.463.288.9.821.694 1.008-.39.487-.617 1.263-1.334 1.143-1.056 3.957-4.788 3.109-3.483-.703 1.081-2.372 2.217-2.569 3.547-.071.479.585-.015.585.146 0 .38-.132.396 0 .759.199.548 1.233-.313 1.252-.339.781-1.022 1.436-2.127 2.24-3.135.275-.346 1.021-1.396.905-.97-.315 1.157-1.399 2.53-1.399 3.73 0 .536.917-.559 1.326-.904 1.149-.973 2.342-1.972 3.337-3.109.048-.055.127-.246.064-.21-.241.138-.604.475-.768.63-.771.73-1.367 1.544-1.911 2.45-.356.595-1.281 2.102-.037.943.67-.624 1.284-1.302 1.902-1.975.351-.383.979-1.079 1.353-1.481.152-.164.351-.662.475-.475.161.241-2.413 3.75-2.632 4.26-.293.68.4.233.639.055.912-.68 1.605-1.669 2.359-2.505.565-.628 1.158-1.377 1.828-1.902.604-.472-.826 1.291-1.206 1.956a12.218 12.218 0 00-.969 2.213c-.13.384-.203.515.146.128 1.126-1.248 4.852-4.638 3.529-3.602-1.091.853-2.041 2.5-2.066 3.913-.011.61.733-.367.749-.384 1.103-1.14 2.22-2.258 3.456-3.255.238-.192.98-.712.786-.475-.695.85-1.473 1.607-2.13 2.496-.109.147-1.171 1.384-1.015 1.736.048.108.243-.031.339-.1.427-.308.923-.784 1.289-1.125 1.273-1.184 2.565-2.4 4.113-3.227.131-.07-.969.85-.969.85-.857.796-1.638 1.645-2.294 2.615-.255.376-1.031 1.1-.594 1.225.225.065 1.298-1.111 1.353-1.16 1.462-1.33 2.946-2.658 4.196-4.197.582-.716-.135.398-.247.585-.744 1.248-1.506 2.475-2.267 3.712-.954 1.55 1.682-1.018 1.956-1.29.946-.938 3.705-3.804 2.925-2.724-1.019 1.415-2.362 2.943-2.852 4.644-.455 1.584 1.829-1.211 1.938-1.334.885-1.001 3.656-3.897 2.779-2.89-1.032 1.188-1.783 2.682-2.285 4.17-.196.58-.137.617.366.128.92-.896 1.812-1.82 2.724-2.725.373-.37.757-.722 1.143-1.078.234-.217-.517.388-.713.64-.728.932-1.428 2.008-1.893 3.099-.287.674.116.46.448.128 1.05-1.05 1.969-2.228 3.063-3.237.026-.024 1.335-1.168.795-.393-.742 1.067-1.398 2.137-1.966 3.31-.01.022-1.07 1.91-.274 1.28 1.856-1.471 7.081-6.293 5.321-4.709-1.159 1.044-2.096 2.378-2.916 3.694-.228.364-.8 1.453-.448 1.207 1.769-1.24 3.036-3.083 4.772-4.361.79-.583-.271.801-.284.823-.495.832-1.028 1.708-1.38 2.614-.206.529.371-.05.439-.11.834-.736 1.609-1.523 2.486-2.212.437-.342 1.744-1.373 1.298-1.042-.737.547-1.233 1.533-1.682 2.304-.296.51-1.263 1.47-.694 1.627.619.17 2.025-1.516 2.267-1.755 1.108-1.095 2.117-2.36 3.309-3.365.32-.27.015.304 0 .33-.749 1.299-2.56 2.094-2.56 3.675 0 2.222 6.568-5.76 5.449-3.84-.254.435-.755.848-1.061 1.234-.776.983-1.357 2.079-2.084 3.09-.169.236-.057-1.203-.475-1.362-.656-.249-2.077.441-1.911-.521.123-.71.634-.573 1.006-1.088.487-.675 1.256-1.09 1.737-1.755.902-1.25-2.886 1.244-4.014 2.294-.944.88-.088-1.323.028-1.618.669-1.703-1.104.559-1.445.978-.65.802-.327.356-.192-.246.363-1.62-2.259 1.493-2.121 1.499.462.02 1.556-.715 1.975-.878a123.07 123.07 0 013.2-1.206c.941-.337 1.872-.408 2.87-.293.83.096-.504 2.812-.621 3.09-.395.94-.201 1.107.621.31.887-.857 1.668-1.818 2.523-2.705.066-.068.516-.555.11-.073-.543.644-1.1 1.3-1.499 2.047-.305.57.115.212.347-.018.644-.636 1.323-1.298 1.884-2.011.946-1.204-3.811 4.669-2.524 3.84 1.713-1.103 2.666-3.161 4.334-4.352.892-.637.185.205-.092.512-.77.854-1.525 1.71-2.212 2.633-.345.463-.689.872.11.128a179.64 179.64 0 003.053-2.926c.068-.066.279-.257.219-.182-.278.348-.579.677-.859 1.023-.109.135-1.931 2.421-1.481 2.56.718.222 2.102-1.617 2.505-2.03a13.6 13.6 0 011.079-1.023c.164-.139.54-.58.53-.366-.031.645-1.462 2.013-1.81 2.505-.155.218-1.545 1.809-1.371 2.194.122.271 4.2-4.06 4.369-4.242" stroke="#60C1A4" stroke-width="2" stroke-linecap="round" stroke-linejoin="round"/></svg><svg fill="none" viewBox="0 0 27 27" id="arrow-pointing-to-right" xmlns="http://www.w3.org/2000/svg"><g clip-path="url(#abclip0)"><path d="M26.632 12.612l-8.034-8.035a1.256 1.256 0 00-1.776 1.776l5.892 5.891H1.255a1.256 1.256 0 000 2.511h21.459l-5.892 5.892a1.255 1.255 0 101.776 1.775l8.034-8.034c.49-.49.49-1.286 0-1.776z" fill="#fff"/></g><defs><clipPath id="abclip0"><path fill="#fff" transform="matrix(-1 0 0 1 27 0)" d="M0 0h27v27H0z"/></clipPath></defs></svg><svg fill="none" viewBox="0 0 80 35" id="bone-purple" xmlns="http://www.w3.org/2000/svg"><path d="M76.028 17.256c2.035-1.785 3.308-4.338 3.308-7.183C79.337 4.68 74.75.342 69.09.342c-4.472 0-8.27 2.663-9.67 6.557l-38.746.005c-1.4-3.893-5.198-6.557-9.67-6.557C5.35.342.757 4.697.757 10.09c0 2.844 1.274 5.387 3.308 7.172C2.031 19.046.757 21.6.763 24.439c0 5.393 4.587 9.731 10.247 9.731 4.472 0 8.264-2.669 9.664-6.562h38.74c1.4 3.893 5.198 6.557 9.67 6.557 5.66 0 10.253-4.355 10.253-9.748-.006-2.839-1.274-5.376-3.309-7.16z" fill="#9B51E0"/></svg><svg fill="none" viewBox="0 0 80 35" id="bone-red" xmlns="http://www.w3.org/2000/svg"><path d="M76.028 17.256c2.035-1.785 3.308-4.338 3.308-7.183C79.337 4.68 74.75.342 69.09.342c-4.472 0-8.27 2.663-9.67 6.557l-38.746.005c-1.4-3.893-5.198-6.557-9.67-6.557C5.35.342.757 4.697.757 10.09c0 2.844 1.274 5.387 3.308 7.172C2.031 19.046.757 21.6.763 24.439c0 5.393 4.587 9.731 10.247 9.731 4.472 0 8.264-2.669 9.664-6.562h38.74c1.4 3.893 5.198 6.557 9.67 6.557 5.66 0 10.253-4.355 10.253-9.748-.006-2.839-1.274-5.376-3.309-7.16z" fill="#D9435D"/></svg><svg fill="none" viewBox="0 0 68 5" id="breadcrumbs-bottom" xmlns="http://www.w3.org/2000/svg"><path d="M1 4c6.075 0 6.281-3 11-3s4.925 3 11 3 6.281-3 11-3 4.925 3 11 3 6.281-3 11-3 4.925 3 11 3" stroke="#D0C9D6" stroke-linecap="round" stroke-linejoin="round"/></svg><svg fill="none" viewBox="0 0 14 14" id="calendar-events" xmlns="http://www.w3.org/2000/svg"><path fill-rule="evenodd" clip-rule="evenodd" d="M3.125 0a.5.5 0 01.5.5V2H10.5V.5a.5.5 0 011 0V2h.5a2 2 0 012 2v8a2 2 0 01-2 2H2a2 2 0 01-2-2V4a2 2 0 012-2h.625V.5a.5.5 0 01.5-.5zM10.5 3v.5a.5.5 0 001 0V3h.5a1 1 0 011 1v8a1 1 0 01-1 1H2a1 1 0 01-1-1V4a1 1 0 011-1h.625v.5a.5.5 0 001 0V3H10.5zM3.125 6a.5.5 0 000 1h7.75a.5.5 0 000-1h-7.75z" fill="#494A4C"/></svg><svg fill="none" viewBox="0 0 18 17" id="fav" xmlns="http://www.w3.org/2000/svg"><path d="M15.574 4.805c.703 0 1.301.28 1.758.773.422.527.668 1.16.668 1.899 0 .597-.176 1.195-.457 1.793a4.024 4.024 0 01-1.16 1.476c-.563.422-1.125.668-1.758.703.563.914.879 1.723.879 2.496 0 .774-.281 1.336-.844 1.688-.492.351-1.16.492-2.039.492a4.29 4.29 0 01-1.125-.14c-.246-.07-.598-.176-1.02-.317-.703-.211-1.195-.352-1.511-.352-.317 0-.844.141-1.547.352l-1.055.316a5.09 5.09 0 01-1.23.141c-.844 0-1.512-.176-1.969-.598-.457-.421-.668-.949-.668-1.582 0-.773.281-1.582.844-2.496a2.746 2.746 0 01-1.688-.668C1.125 10.36.703 9.867.422 9.27A4.18 4.18 0 010 7.477c0-.739.21-1.372.668-1.899.422-.492 1.02-.773 1.758-.773.386 0 .773.105 1.16.246a4.232 4.232 0 01-.316-1.582c0-.844.246-1.547.738-2.18C4.5.691 5.133.375 5.94.375c.668 0 1.301.246 1.864.703.492.422.914.984 1.195 1.652.281-.667.668-1.23 1.195-1.652.563-.457 1.16-.703 1.864-.703.773 0 1.441.316 1.933.914.492.633.738 1.336.738 2.18 0 .527-.105 1.054-.316 1.582.352-.14.738-.246 1.16-.246zM12.06 2.063c-.493 0-.88.28-1.23.808-.352.492-.493.984-.458 1.512 0 .351.07.668.246.949.14.281.387.422.738.422.422 0 .844-.246 1.196-.774.316-.492.492-.984.492-1.511a1.89 1.89 0 00-.281-.985c-.176-.28-.422-.421-.703-.421zM9 5.894c-.352.703-.809 1.195-1.441 1.406-.633.246-1.266.246-1.899-.035.211.527.317 1.02.317 1.511C7.03 8.074 8.016 7.723 9 7.723c.95 0 1.969.351 3.023 1.054 0-.492.106-.984.317-1.511-.668.28-1.3.28-1.934.035C9.773 7.09 9.316 6.598 9 5.895zM5.941 2.063c-.316 0-.562.14-.738.421-.176.282-.246.633-.246.985 0 .527.14 1.02.492 1.511.352.528.739.774 1.196.774.316 0 .562-.14.738-.422.176-.281.281-.598.281-.95 0-.527-.176-1.019-.492-1.51-.352-.528-.774-.81-1.23-.81zm-2.39 7.699c.246 0 .422-.07.562-.282.106-.175.176-.421.176-.703 0-.492-.21-.984-.562-1.511-.387-.493-.809-.774-1.301-.774-.317 0-.528.176-.633.457a1.41 1.41 0 00-.105.528c0 .527.175 1.054.562 1.546.387.493.809.739 1.3.739zm10.09 4.535c.21-.106.246-.422.07-.95a6.337 6.337 0 00-1.02-1.687c-.562-.633-1.125-1.16-1.722-1.582-.703-.457-1.371-.703-1.969-.703-.633 0-1.266.246-1.969.703a7.02 7.02 0 00-1.687 1.547c-.492.598-.844 1.16-1.055 1.652-.21.528-.176.88.07 1.02.211.14.598.176 1.09.105.281-.035.774-.14 1.477-.351.949-.281 1.617-.422 2.039-.422.422 0 1.09.14 2.004.422.633.21 1.125.316 1.441.351.492.106.88.07 1.23-.105zm.808-4.535c.457 0 .88-.246 1.266-.739.387-.492.598-1.02.598-1.546a1.41 1.41 0 00-.106-.528c-.14-.281-.352-.457-.633-.457-.492 0-.949.281-1.3.774-.387.527-.563 1.02-.563 1.511 0 .282.035.528.176.703.105.211.281.282.562.282z" fill="#D9435D"/></svg><svg fill="none" viewBox="0 0 20 20" id="fb" xmlns="http://www.w3.org/2000/svg"><path d="M7.35 3.873v2.754H5.333v3.367H7.35V20h4.145V9.994h2.78s.26-1.614.387-3.38H11.51V4.313c0-.344.452-.807.899-.807h2.257V0h-3.07C7.249 0 7.35 3.37 7.35 3.873z" fill="#D9435D"/></svg><svg fill="none" viewBox="0 0 18 17" id="foot" xmlns="http://www.w3.org/2000/svg"><path d="M15.574 4.805c.703 0 1.301.28 1.758.773.422.527.668 1.16.668 1.899 0 .597-.176 1.195-.457 1.793a4.024 4.024 0 01-1.16 1.476c-.563.422-1.125.668-1.758.703.563.914.879 1.723.879 2.496 0 .774-.281 1.336-.844 1.688-.492.351-1.16.492-2.039.492a4.29 4.29 0 01-1.125-.14c-.246-.07-.598-.176-1.02-.317-.703-.211-1.195-.352-1.511-.352-.317 0-.844.141-1.547.352l-1.055.316a5.09 5.09 0 01-1.23.141c-.844 0-1.512-.176-1.969-.598-.457-.421-.668-.949-.668-1.582 0-.773.281-1.582.844-2.496a2.746 2.746 0 01-1.688-.668C1.125 10.36.703 9.867.422 9.27A4.18 4.18 0 010 7.477c0-.739.21-1.372.668-1.899.422-.492 1.02-.773 1.758-.773.386 0 .773.105 1.16.246a4.232 4.232 0 01-.316-1.582c0-.844.246-1.547.738-2.18C4.5.691 5.133.375 5.94.375c.668 0 1.301.246 1.864.703.492.422.914.984 1.195 1.652.281-.667.668-1.23 1.195-1.652.563-.457 1.16-.703 1.864-.703.773 0 1.441.316 1.933.914.492.633.738 1.336.738 2.18 0 .527-.105 1.054-.316 1.582.352-.14.738-.246 1.16-.246zM12.06 2.063c-.493 0-.88.28-1.23.808-.352.492-.493.984-.458 1.512 0 .351.07.668.246.949.14.281.387.422.738.422.422 0 .844-.246 1.196-.774.316-.492.492-.984.492-1.511a1.89 1.89 0 00-.281-.985c-.176-.28-.422-.421-.703-.421zM9 5.894c-.352.703-.809 1.195-1.441 1.406-.633.246-1.266.246-1.899-.035.211.527.317 1.02.317 1.511C7.03 8.074 8.016 7.723 9 7.723c.95 0 1.969.351 3.023 1.054 0-.492.106-.984.317-1.511-.668.28-1.3.28-1.934.035C9.773 7.09 9.316 6.598 9 5.895zM5.941 2.063c-.316 0-.562.14-.738.421-.176.282-.246.633-.246.985 0 .527.14 1.02.492 1.511.352.528.739.774 1.196.774.316 0 .562-.14.738-.422.176-.281.281-.598.281-.95 0-.527-.176-1.019-.492-1.51-.352-.528-.774-.81-1.23-.81zm-2.39 7.699c.246 0 .422-.07.562-.282.106-.175.176-.421.176-.703 0-.492-.21-.984-.562-1.511-.387-.493-.809-.774-1.301-.774-.317 0-.528.176-.633.457a1.41 1.41 0 00-.105.528c0 .527.175 1.054.562 1.546.387.493.809.739 1.3.739zm10.09 4.535c.21-.106.246-.422.07-.95a6.337 6.337 0 00-1.02-1.687c-.562-.633-1.125-1.16-1.722-1.582-.703-.457-1.371-.703-1.969-.703-.633 0-1.266.246-1.969.703a7.02 7.02 0 00-1.687 1.547c-.492.598-.844 1.16-1.055 1.652-.21.528-.176.88.07 1.02.211.14.598.176 1.09.105.281-.035.774-.14 1.477-.351.949-.281 1.617-.422 2.039-.422.422 0 1.09.14 2.004.422.633.21 1.125.316 1.441.351.492.106.88.07 1.23-.105zm.808-4.535c.457 0 .88-.246 1.266-.739.387-.492.598-1.02.598-1.546a1.41 1.41 0 00-.106-.528c-.14-.281-.352-.457-.633-.457-.492 0-.949.281-1.3.774-.387.527-.563 1.02-.563 1.511 0 .282.035.528.176.703.105.211.281.282.562.282z" fill="#D9435D"/></svg><svg fill="none" viewBox="0 0 20 19" id="foot-light" xmlns="http://www.w3.org/2000/svg"><path d="M17.578 5.555c.703 0 1.25.273 1.719.82.469.547.703 1.172.703 1.953 0 .781-.234 1.524-.664 2.227-.469.742-1.016 1.289-1.68 1.64-.742.39-1.445.47-2.148.235.508.625.898 1.25 1.172 1.875.273.625.43 1.21.43 1.758 0 .859-.352 1.484-1.055 1.835-.47.235-1.094.352-1.875.352-.39 0-.82-.04-1.25-.156-.274-.078-.625-.196-1.094-.352-.82-.273-1.445-.43-1.836-.43-.43 0-1.055.157-1.914.43-.547.156-.938.274-1.211.352a5.265 5.265 0 01-1.29.156c-1.093 0-1.835-.273-2.265-.86-.312-.35-.43-.78-.43-1.328 0-.546.118-1.132.391-1.757a7.255 7.255 0 011.211-1.875c-.703.234-1.445.156-2.148-.235-.703-.351-1.25-.898-1.68-1.64A3.904 3.904 0 010 8.328c0-.742.195-1.367.625-1.914.43-.547 1.016-.86 1.797-.86.703 0 1.328.235 1.953.704a4.55 4.55 0 01-.625-2.305c0-.86.234-1.64.742-2.265C4.961 1.063 5.625.75 6.484.75c.938 0 1.72.43 2.422 1.21.586.704.938 1.563 1.094 2.5.117-.937.469-1.796 1.094-2.5.664-.78 1.484-1.21 2.422-1.21.78 0 1.445.313 1.953.938s.781 1.406.781 2.265c0 .781-.234 1.563-.625 2.305a3.077 3.077 0 011.953-.703zM13.516 2c-.625 0-1.172.352-1.641 1.016a3.217 3.217 0 00-.664 1.992c0 .547.117 1.015.39 1.406.235.39.626.586 1.094.586.625 0 1.172-.352 1.64-1.055.43-.625.665-1.289.665-1.992 0-.508-.156-.976-.39-1.367-.274-.39-.626-.586-1.094-.586zM10 5.555c-.117.86-.43 1.484-.898 1.953-.508.469-1.094.742-1.72.742-.624.04-1.25-.156-1.796-.586.273.547.469 1.094.547 1.64.078.587.039 1.133-.156 1.641a8.862 8.862 0 012.07-1.25c.703-.312 1.328-.468 1.953-.468.586 0 1.25.156 1.953.468a9.74 9.74 0 012.07 1.25c-.234-.508-.273-1.054-.195-1.64a4.62 4.62 0 01.586-1.64c-.586.39-1.21.585-1.836.585-.625 0-1.21-.273-1.68-.742-.507-.469-.82-1.094-.898-1.953zM6.484 2c-.468 0-.859.195-1.093.586-.274.39-.391.86-.391 1.367 0 .703.195 1.367.664 1.992C6.133 6.648 6.68 7 7.304 7c.47 0 .821-.195 1.094-.586.235-.39.391-.86.391-1.406 0-.703-.234-1.367-.664-1.992C7.656 2.352 7.109 2 6.485 2zM1.25 8.29c0 .468.117.898.352 1.366.234.469.507.86.898 1.172.39.313.781.469 1.25.469.234 0 .43-.04.625-.195.352-.235.547-.665.547-1.29 0-.43-.117-.898-.352-1.367-.234-.468-.508-.86-.898-1.172-.39-.312-.82-.468-1.25-.468-.43 0-.742.195-.938.547a1.856 1.856 0 00-.234.937zM14.18 17c.703 0 1.172-.078 1.406-.273.156-.118.273-.352.273-.665 0-.703-.351-1.484-.976-2.382a9.612 9.612 0 00-2.305-2.227c-.937-.625-1.797-.976-2.578-.976-.781 0-1.64.351-2.578.976a9.115 9.115 0 00-2.344 2.227c-.625.898-.937 1.68-.937 2.383 0 .273.039.468.156.585.234.235.664.352 1.289.352.312 0 .664-.04 1.055-.156.234-.04.586-.157 1.054-.313.47-.156.82-.234 1.094-.312.43-.078.82-.157 1.211-.157.352 0 .742.079 1.172.157.234.078.547.156 1.015.312.47.157.782.274 1.016.313.352.117.664.156.977.156zm2.07-5.703c.43 0 .82-.156 1.21-.469.392-.312.704-.703.938-1.172.235-.469.352-.898.352-1.367 0-.351-.078-.664-.234-.937-.235-.352-.547-.547-.977-.547-.43 0-.82.156-1.21.468a3.46 3.46 0 00-.938 1.172 3.017 3.017 0 00-.313 1.367c0 .626.156 1.055.547 1.29.156.156.39.195.625.195z" fill="#fff"/></svg><svg fill="none" viewBox="0 0 16 14" id="foot-solid" xmlns="http://www.w3.org/2000/svg"><path d="M2.656 9.344c.5 0 .875-.188 1.188-.563.25-.312.375-.719.375-1.187 0-.469-.125-.938-.375-1.438s-.531-.906-.906-1.218c-.438-.344-.907-.532-1.407-.532S.656 4.625.375 5C.125 5.344 0 5.75 0 6.219c0 .468.094.937.344 1.437.25.5.562.875.937 1.188.438.344.875.5 1.375.5zm10.875 3.312c0-.687-.312-1.437-.906-2.312a8.2 8.2 0 00-2.156-2.125C9.563 7.594 8.75 7.28 8 7.28c-.75 0-1.594.313-2.469.938a7.87 7.87 0 00-2.187 2.125c-.594.844-.875 1.625-.875 2.312 0 .906.562 1.344 1.75 1.344.312 0 .656-.031 1.031-.125.188-.063.5-.156.906-.281.407-.125.719-.219.938-.281.312-.063.625-.126.906-.126.25 0 .563.063.875.126l.844.28c.375.126.687.22.906.282.313.094.625.125.938.125.593 0 1.03-.063 1.343-.25.406-.188.625-.563.625-1.094zM5.687 5.375c.563 0 1.032-.25 1.375-.75.282-.406.438-.906.438-1.5 0-.438-.125-.875-.313-1.375-.218-.5-.5-.906-.843-1.219C5.937.187 5.5 0 5 0c-.594 0-1.063.25-1.375.719-.313.437-.438.937-.438 1.5 0 .469.094.937.313 1.437.188.5.5.875.875 1.188.375.375.813.531 1.313.531zM8.5 3.125c0 .594.125 1.094.438 1.5.312.5.78.75 1.374.75.47 0 .907-.156 1.313-.531.375-.313.656-.688.875-1.188.188-.5.313-.969.313-1.437 0-.563-.157-1.063-.438-1.5C12.031.25 11.562 0 11 0c-.5 0-.969.188-1.344.531a2.855 2.855 0 00-.844 1.219c-.218.5-.312.938-.312 1.375zM16 6.219c0-.469-.125-.875-.375-1.219-.313-.375-.688-.594-1.188-.594s-.937.188-1.374.532a3.729 3.729 0 00-.938 1.218c-.25.5-.344.969-.344 1.438 0 .468.125.875.375 1.187.281.375.656.563 1.156.563.5 0 .97-.156 1.407-.5.375-.313.656-.688.906-1.188S16 6.688 16 6.22z" fill="#D9435D"/></svg><svg fill="none" viewBox="0 0 20 21" id="glass" xmlns="http://www.w3.org/2000/svg"><path d="M19.883 18.82a.444.444 0 01.117.313c0 .156-.04.273-.117.351l-.899.86a.477.477 0 01-.351.156c-.156 0-.235-.04-.313-.156l-4.765-4.727a.444.444 0 01-.117-.312v-.547a8.805 8.805 0 01-2.461 1.484 7.988 7.988 0 01-2.852.508c-1.484 0-2.852-.352-4.102-1.094a7.543 7.543 0 01-2.93-2.93C.353 11.477 0 10.11 0 8.626s.352-2.813 1.094-4.063c.703-1.25 1.68-2.226 2.93-2.968C5.273.89 6.64.5 8.124.5s2.813.39 4.063 1.094a8.315 8.315 0 012.968 2.968c.703 1.25 1.094 2.579 1.094 4.063a7.717 7.717 0 01-.547 2.852c-.351.937-.82 1.757-1.445 2.46h.547c.117 0 .234.04.312.118l4.766 4.765zM8.125 14.875a6.332 6.332 0 003.125-.82 6.113 6.113 0 002.266-2.305c.546-.938.859-1.992.859-3.125 0-1.094-.313-2.148-.86-3.125a6.297 6.297 0 00-2.265-2.266c-.977-.546-2.031-.859-3.125-.859A6.154 6.154 0 005 3.235 6.113 6.113 0 002.695 5.5a6.332 6.332 0 00-.82 3.125c0 1.133.273 2.188.82 3.125A5.941 5.941 0 005 14.055c.938.547 1.992.82 3.125.82z" fill="#fff"/></svg><svg fill="none" viewBox="0 0 20 21" id="glass-fixed" xmlns="http://www.w3.org/2000/svg"><path d="M19.883 18.82a.444.444 0 01.117.313c0 .156-.04.273-.117.351l-.899.86a.477.477 0 01-.351.156c-.156 0-.235-.04-.313-.156l-4.765-4.727a.444.444 0 01-.117-.312v-.547a8.805 8.805 0 01-2.461 1.484 7.988 7.988 0 01-2.852.508c-1.484 0-2.852-.352-4.102-1.094a7.543 7.543 0 01-2.93-2.93C.353 11.477 0 10.11 0 8.626s.352-2.813 1.094-4.063c.703-1.25 1.68-2.226 2.93-2.968C5.273.89 6.64.5 8.124.5s2.813.39 4.063 1.094a8.315 8.315 0 012.968 2.968c.703 1.25 1.094 2.579 1.094 4.063a7.717 7.717 0 01-.547 2.852c-.351.937-.82 1.757-1.445 2.46h.547c.117 0 .234.04.312.118l4.766 4.765zM8.125 14.875a6.332 6.332 0 003.125-.82 6.113 6.113 0 002.266-2.305c.546-.938.859-1.992.859-3.125 0-1.094-.313-2.148-.86-3.125a6.297 6.297 0 00-2.265-2.266c-.977-.546-2.031-.859-3.125-.859A6.154 6.154 0 005 3.235 6.113 6.113 0 002.695 5.5a6.332 6.332 0 00-.82 3.125c0 1.133.273 2.188.82 3.125A5.941 5.941 0 005 14.055c.938.547 1.992.82 3.125.82z" fill="#494A4C"/></svg><svg fill="none" viewBox="0 0 22 14" id="google" xmlns="http://www.w3.org/2000/svg"><path d="M13.32 6.266c.07.398.106.773.106 1.125 0 1.945-.598 3.539-1.793 4.78C10.438 13.392 8.879 14 6.957 14c-1.875 0-3.469-.656-4.781-1.969C.863 10.72.207 9.125.207 7.25c0-1.875.656-3.469 1.969-4.781C3.488 1.156 5.082.5 6.957.5c1.758 0 3.258.586 4.5 1.758L9.629 4.016c-.703-.68-1.594-1.02-2.672-1.02-.75 0-1.453.188-2.11.563a4.164 4.164 0 00-1.511 1.546 4.248 4.248 0 00-.563 2.145c0 1.172.41 2.18 1.23 3.023.821.82 1.806 1.23 2.954 1.23 1.172 0 2.074-.316 2.707-.948.633-.633 1.008-1.278 1.125-1.934H6.957V6.266h6.363zm6.504.246h1.969V8.48h-1.969v1.97h-1.969V8.48h-1.933V6.512h1.933V4.543h1.97v1.969z" fill="#DB4437"/></svg><svg fill="none" viewBox="0 0 20 20" id="inst" xmlns="http://www.w3.org/2000/svg"><path d="M14.48 0H5.52A5.525 5.525 0 000 5.52v8.96A5.525 5.525 0 005.52 20h8.96A5.526 5.526 0 0020 14.48V5.52A5.525 5.525 0 0014.48 0zm3.745 14.48a3.75 3.75 0 01-3.744 3.745H5.519a3.749 3.749 0 01-3.745-3.744V5.519A3.749 3.749 0 015.52 1.774h8.961a3.75 3.75 0 013.745 3.745v8.962z" fill="#D9435D"/><path d="M10 4.847A5.16 5.16 0 004.847 10 5.16 5.16 0 0010 15.153 5.16 5.16 0 0015.154 10 5.16 5.16 0 0010 4.847zm0 8.532a3.383 3.383 0 01-3.379-3.38 3.383 3.383 0 013.38-3.378A3.383 3.383 0 0113.378 10 3.383 3.383 0 0110 13.379zM15.37 3.342a1.306 1.306 0 00-1.302 1.301c0 .342.14.678.383.92.24.242.577.382.919.382.343 0 .678-.14.92-.381a1.307 1.307 0 000-1.84 1.307 1.307 0 00-.92-.382z" fill="#D9435D"/></svg><svg fill="none" viewBox="0 0 18 52" id="left-arrow" xmlns="http://www.w3.org/2000/svg"><path d="M17 1L1 26l16 25" stroke="#979899" stroke-width="2" stroke-linecap="round" stroke-linejoin="round"/></svg><svg fill="none" viewBox="0 0 110 23" id="letsrock_logo" xmlns="http://www.w3.org/2000/svg"><g clip-path="url(#aqclip0)" fill-rule="evenodd" clip-rule="evenodd" fill="#999"><path d="M22.406 18.232c1.201-3.626 2.34-6.016 3.571-9.486.43-1.205.8-1.893.668-2.567-.216-1.102-.98-1.42-1.741-.452a5.967 5.967 0 00-.337.483c-.477.75-.872 1.503-1.386 2.368-1.578 2.657-2.795 6.118-3.594 7.302-1.096 1.627-2.59 1.318-3.055-.319-1.211.837-2.683-.059-2.633-1.579.044-1.316.41-3.024.604-4.372.24-1.676.716-5.911.678-8.224-.004-.268-.031-.501-.1-.692-.284-.78-1.113-.892-1.812-.423-.415.279-.725.844-.918 1.554-.295 1.079-.414 2.222-.554 3.364-.093.749-1.408 7.564-1.71 8.14-.962 1.839-4.298-1.285-6.786-1.969-2.715-.746-4.432.6-2.418 1.768 1.377.797 5.85 4.174 6.97 5.319.268.274.339.293.6.537.394.366.661.72 1.064 1.073 2.517 2.207 6.941 3.233 10.259 1.584.672-.335.853-.487 1.329-.96.788-.784.974-1.462 1.301-2.45zM69.856 13.066l1.096-5.13c1.592-.036 4.226-.436 3.065 2.908-.83 2.391-2.403 2.24-4.161 2.222zm-5.75 9.375l3.63.004 1.494-6.66c1.993-.24 2.049 1.09 2.345 2.538l.814 4.124 3.665-.01-.892-4.22c-.216-1.025-.682-1.883-1.083-2.276-.24-.237-.47-.375-.752-.563.583-.348 1.037-.5 1.502-.762.752-.426 1.451-1.008 2.157-2.179.857-1.422 1.291-3.625.422-5.265-.873-1.648-2.261-1.992-4.78-1.99-2.282 0-4.568-.013-6.85.002l-.55 2.726 1.968.015-3.09 14.516zM98.143 22.45l3.193-.006 1.135-4.83c1.382-.117 1.524.582 1.812 1.981l.587 2.854 3.339-.03-.463-2.182c-.5-2.053-.288-2.413-1.57-3.714l3.821-5.284-3.45.023c-.861 1.12-1.607 2.494-2.38 3.637l-1.07.013c-.066-.964 1.766-7.809 2.04-9.732l-5.32.005-.506 2.739 1.915.002c-.318 2.3-3.068 13.345-3.083 14.523zM27.07 22.453l9.245-.032.685-2.856.29-1.62h-3.007l-.388 1.755-2.405.002L34.629 5.18l-5.766.056-.689 2.689 2.116-.003-3.219 14.532z"/><path d="M80.429 19.005c-.197-.708-.08-1.482.196-2.52.292-1.097 1.154-2.947 2.603-2.5 1.12.346 1.192 3.555-.003 5.247-.923 1.307-2.312 1.517-2.796-.227zm-1.01 3.71c.28.104.619.189 1.064.232 2.945.29 4.62-1.179 5.52-2.309.83-1.045.962-1.423 1.302-2.67.472-1.726.763-3.69-.367-5.143-1.204-1.55-3.623-2.07-5.93-1.141-1.8.725-3.12 2.188-3.787 4.191-.339 1.018-.549 2.23-.437 3.366.164 1.651 1.001 2.872 2.636 3.475zM41.84 16.772c.17-1.204.775-2.546 1.923-2.775.928-.185 1.211.44 1.082 1.197-.057.333-.238.654-.54.94-.557.529-1.419.68-2.465.638zm-3.405 3.989c.133.329.285.575.718 1.034 2.17 2.302 5.74.712 7.416.155l-.537-2.338c-1.505.5-3.707 1.55-4.302-.615 2.477.18 4.672-.555 5.888-2.616 3.059-5.188-4.567-7.03-7.825-2.891-1.146 1.456-1.74 2.98-1.763 4.976-.01.949.05 1.412.405 2.295zM56.449 13.486c-.321.64-.653 1.514-.367 2.548.508 1.84 3.289 2.11 3.628 2.94.643 1.577-2.355 1.764-4.076.467l-.41.606c-.094.214-.15.38-.244.601-.166.393-.325.784-.511 1.118.898 1.095 3.65 1.402 5.393 1.044 2.103-.433 3.312-2.063 3.407-4.063.043-.908-.156-1.378-.995-2.095-.74-.631-1.595-.807-2.259-1.233-.38-.244-.48-.308-.445-.746.062-.806.722-.771 1.749-.74L61.1 15.13l2.343-.012 1.54-4.53-2.89.025-.133.676c-1.447-.07-3.07-.058-4.264.75-.699.474-.879.712-1.248 1.447zM89.796 22.056c.326.273.784.53 1.46.728.757.22 1.66.24 2.488.136.558-.069.965-.172 1.328-.266a10.17 10.17 0 001.29-.443c.185-.074.384-.155.608-.247l-.548-2.326c-1.055.311-4.769 2.143-4.373-1.995.227-2.38 1.014-3.959 3.748-3.646l-.201 1.135 2.334-.025 1.545-4.514-2.846-.001-.22.782c-3.265-.3-5.027.563-6.43 2.354-1.12 1.427-1.636 3.5-1.473 5.583.08 1.03.449 2.04 1.29 2.745z"/><path d="M48.621 22.452l3.175.006 1.864-8.546 1.762.012.904-2.64-2.055.002.7-3.362h-2.813l-1.065 3.36-1.672-.002-.547 2.628 1.437-.007-1.69 8.55zM16.68 14.225c.607-1.261 1.037-3.096 1.183-4.248.143-1.127-.193-1.574-1.427-1.779-.333-.055-.67-.012-.966.206-.45.334-.41.92-.568 1.884-.33 2.016-.96 4.154-.065 4.85.942.732 1.49-.181 1.842-.913zM19.22 15.415c.996-1.556 2.228-4.29 1.592-5.204-.505-.724-1.934-1.106-2.36.052-.336.914-.651 2.311-.9 3.11-.265.852-.704 1.997-.338 2.594.648 1.054 1.597.087 2.005-.552zM56.215 9.712l2.293-.008 1.652-4.51-2.969-.015-.976 4.533z"/></g><defs><clipPath id="aqclip0"><path fill="#fff" d="M0 0h110v23H0z"/></clipPath></defs></svg><svg fill="none" viewBox="0 0 20 20" id="ok" xmlns="http://www.w3.org/2000/svg"><g clip-path="url(#arclip0)" fill="#D9435D"><path d="M9.015 14.087c-1.55-.162-2.948-.543-4.145-1.48-.148-.116-.302-.228-.437-.358-.524-.503-.577-1.08-.162-1.674.354-.508.95-.644 1.568-.352.12.057.234.127.344.203 2.23 1.533 5.294 1.575 7.533.07.222-.171.46-.31.734-.38.535-.138 1.033.059 1.32.526.327.534.323 1.055-.08 1.47-.62.635-1.364 1.095-2.192 1.416-.782.303-1.64.456-2.487.557.128.14.188.208.268.289 1.152 1.157 2.308 2.309 3.456 3.47.391.395.473.885.258 1.345-.236.503-.763.834-1.28.799-.327-.023-.582-.186-.81-.415-.868-.874-1.754-1.733-2.605-2.624-.248-.259-.367-.21-.586.015-.874.9-1.763 1.787-2.656 2.668-.402.395-.88.467-1.345.24-.494-.24-.81-.744-.785-1.252.017-.343.186-.605.421-.84 1.14-1.139 2.276-2.28 3.413-3.42.076-.075.146-.156.255-.273z"/><path d="M9.96 10.123c-2.767-.01-5.035-2.302-5.019-5.073A5.07 5.07 0 0110.021 0c2.798.007 5.045 2.297 5.03 5.127-.014 2.765-2.297 5.006-5.092 4.996zm2.513-5.066A2.465 2.465 0 0010 2.585a2.469 2.469 0 00-2.479 2.502 2.465 2.465 0 002.492 2.452 2.46 2.46 0 002.46-2.482z"/></g><defs><clipPath id="arclip0"><path fill="#fff" d="M0 0h20v20H0z"/></clipPath></defs></svg><svg fill="none" viewBox="0 0 1246 6" id="pagination-line" xmlns="http://www.w3.org/2000/svg"><path fill-rule="evenodd" clip-rule="evenodd" d="M0 4.5A1.5 1.5 0 001.5 6c3.6 0 5.536-.84 7.188-1.655l.276-.137h.001C10.342 3.525 11.4 3 13.444 3s3.102.525 4.479 1.208l.003.002.274.135C19.852 5.16 21.788 6 25.388 6c3.6 0 5.536-.84 7.188-1.655l.277-.137C34.23 3.525 35.287 3 37.334 3c2.044 0 3.101.525 4.478 1.208l.277.137C43.74 5.16 45.676 6 49.276 6c3.6 0 5.536-.84 7.188-1.655l.277-.137C58.119 3.525 59.177 3 61.222 3c2.044 0 3.102.525 4.478 1.208l.278.137C67.627 5.16 69.564 6 73.163 6s5.536-.84 7.188-1.655l.278-.137C82.006 3.525 83.064 3 85.108 3c2.045 0 3.103.525 4.479 1.208l.278.137c1.64.81 3.562 1.644 7.117 1.655h.088c3.555-.011 5.476-.845 7.118-1.655l.277-.137C105.842 3.525 106.899 3 108.944 3s3.102.525 4.479 1.208l.277.137C115.352 5.16 117.288 6 120.888 6c3.6 0 5.536-.84 7.188-1.655l.271-.134.004-.002.003-.001C129.73 3.525 130.788 3 132.832 3c2.045 0 3.102.525 4.479 1.208h.002c.09.046.182.091.275.137C139.24 5.16 141.176 6 144.776 6c3.6 0 5.536-.84 7.188-1.655l.271-.134.004-.002.003-.001C153.618 3.525 154.676 3 156.72 3c2.045 0 3.103.525 4.479 1.208l.002.001.275.136C163.128 5.16 165.064 6 168.664 6c3.6 0 5.536-.84 7.188-1.655l.278-.137C177.506 3.525 178.564 3 180.608 3c2.045 0 3.103.525 4.479 1.208h.002c.09.046.182.091.276.137C187.017 5.16 188.953 6 192.552 6c.076 0 .151-.006.224-.017.073.011.148.017.224.017 3.6 0 5.536-.84 7.188-1.655l.277-.137C201.842 3.525 202.899 3 204.944 3s3.102.525 4.479 1.208l.277.137C211.352 5.16 213.288 6 216.888 6c3.6 0 5.536-.84 7.188-1.655l.257-.127.014-.007.004-.002.003-.001C225.73 3.525 226.788 3 228.832 3c2.045 0 3.102.525 4.479 1.208h.002c.09.046.182.091.275.137C235.24 5.16 237.176 6 240.776 6c3.6 0 5.536-.84 7.188-1.655l.257-.127.014-.007.004-.002.003-.001C249.618 3.525 250.676 3 252.72 3c2.045 0 3.103.525 4.479 1.208l.277.137C259.128 5.16 261.064 6 264.664 6c3.6 0 5.536-.84 7.188-1.655l.278-.137C273.506 3.525 274.564 3 276.608 3c2.045 0 3.103.525 4.479 1.208l.008.004.01.005.26.128c1.533.757 3.312 1.535 6.44 1.642.064.009.129.013.195.013.093 0 .185 0 .276-.002l.276.002c.066 0 .132-.004.195-.013 3.128-.107 4.907-.885 6.441-1.642l.268-.133.009-.004C296.842 3.525 297.899 3 299.944 3s3.102.525 4.479 1.208l.009.004.154.077.114.056C306.352 5.16 308.288 6 311.888 6c3.6 0 5.536-.84 7.188-1.655l.156-.077.122-.06C320.73 3.525 321.788 3 323.832 3c2.045 0 3.102.525 4.479 1.208l.02.01.009.004.248.123C330.24 5.16 332.176 6 335.776 6c3.6 0 5.536-.84 7.188-1.655l.278-.137C344.618 3.525 345.676 3 347.72 3c2.045 0 3.103.525 4.479 1.208l.277.137C354.128 5.16 356.064 6 359.664 6c3.6 0 5.536-.84 7.188-1.655l.278-.137C368.506 3.525 369.564 3 371.608 3c2.045 0 3.103.525 4.479 1.208l.008.004.27.133C378.017 5.16 379.953 6 383.552 6c.076 0 .151-.006.224-.017.073.011.148.017.224.017 3.6 0 5.536-.84 7.188-1.655l.25-.123.018-.01.009-.004C392.842 3.525 393.899 3 395.944 3s3.102.525 4.479 1.208l.009.004.268.133C402.352 5.16 404.288 6 407.888 6c3.6 0 5.536-.84 7.188-1.655l.278-.137C416.73 3.525 417.788 3 419.832 3c2.045 0 3.102.525 4.479 1.208l.277.137C426.24 5.16 428.176 6 431.776 6c3.6 0 5.536-.84 7.188-1.655l.278-.137C440.618 3.525 441.676 3 443.72 3c2.045 0 3.103.525 4.479 1.208l.009.004.139.07.129.063C450.128 5.16 452.064 6 455.664 6c3.6 0 5.536-.84 7.188-1.655l.138-.068.14-.07C464.506 3.526 465.564 3 467.608 3c2.045 0 3.103.525 4.479 1.208l.082.04.075.038.121.06c1.533.756 3.312 1.534 6.44 1.641.064.009.129.013.195.013.093 0 .185 0 .276-.002l.276.002c.066 0 .132-.004.195-.013 3.128-.107 4.907-.885 6.441-1.642l.183-.09.094-.047C487.842 3.525 488.899 3 490.944 3s3.102.525 4.479 1.208l.009.004.129.065.139.068C497.352 5.16 499.288 6 502.888 6c3.6 0 5.536-.84 7.188-1.655l.123-.06.155-.077C511.73 3.525 512.788 3 514.832 3c2.045 0 3.102.525 4.479 1.208l.143.071.134.066C521.24 5.16 523.176 6 526.776 6c3.6 0 5.536-.84 7.188-1.655l.278-.137C535.618 3.525 536.676 3 538.72 3c2.045 0 3.103.525 4.479 1.208l.157.078.12.06C545.128 5.16 547.065 6 550.664 6c3.6 0 5.536-.84 7.188-1.655l.278-.137C559.506 3.525 560.564 3 562.608 3c2.045 0 3.103.525 4.479 1.208l.278.137C569.017 5.16 570.953 6 574.552 6c.076 0 .151-.006.224-.017.073.011.148.017.224.017 3.6 0 5.536-.84 7.188-1.655l.277-.137C583.842 3.525 584.899 3 586.944 3s3.102.525 4.479 1.208l.277.137C593.352 5.16 595.288 6 598.888 6c3.6 0 5.536-.84 7.188-1.655l.278-.137C607.73 3.525 608.788 3 610.832 3c2.045 0 3.102.525 4.479 1.208l.168.083.109.054C617.24 5.16 619.176 6 622.776 6c3.6 0 5.536-.84 7.188-1.655l.167-.082.111-.055C631.618 3.525 632.676 3 634.72 3c2.045 0 3.103.525 4.479 1.208l.277.137C641.128 5.16 643.065 6 646.664 6c3.6 0 5.536-.84 7.188-1.655l.278-.137C655.506 3.525 656.564 3 658.608 3c2.045 0 3.103.525 4.479 1.208l.278.137c1.533.757 3.312 1.535 6.44 1.642.064.009.129.013.195.013.093 0 .185 0 .276-.002l.058.001h.102l.116.001c.066 0 .132-.004.195-.013 3.128-.107 4.907-.885 6.441-1.642l.108-.053.169-.084C678.842 3.525 679.899 3 681.944 3s3.102.525 4.479 1.208l.159.079.118.058C688.352 5.16 690.288 6 693.888 6c3.6 0 5.536-.84 7.188-1.655l.278-.137C702.73 3.525 703.788 3 705.832 3c2.045 0 3.102.525 4.479 1.208l.277.137C712.24 5.16 714.176 6 717.776 6c3.6 0 5.536-.84 7.188-1.655l.153-.075.125-.062C726.618 3.525 727.676 3 729.72 3c2.045 0 3.103.525 4.479 1.208l.277.137C736.128 5.16 738.065 6 741.664 6c3.6 0 5.536-.84 7.188-1.655l.278-.137C750.506 3.525 751.564 3 753.608 3c2.045 0 3.103.525 4.479 1.208l.278.137C760.017 5.16 761.953 6 765.552 6c.076 0 .151-.006.224-.017.073.011.148.017.224.017 3.6 0 5.536-.84 7.188-1.655l.277-.137C774.842 3.525 775.899 3 777.944 3s3.102.525 4.479 1.208l.277.137C784.352 5.16 786.288 6 789.888 6c3.6 0 5.536-.84 7.188-1.655l.278-.137C798.73 3.525 799.788 3 801.832 3c2.045 0 3.102.525 4.479 1.208l.277.137C808.24 5.16 810.176 6 813.776 6c3.6 0 5.536-.84 7.188-1.655l.278-.137C822.618 3.525 823.676 3 825.72 3c2.045 0 3.103.525 4.479 1.208l.136.067.141.07C832.128 5.16 834.065 6 837.664 6c3.6 0 5.536-.84 7.188-1.655l.176-.087.102-.05C846.506 3.525 847.564 3 849.608 3c2.045 0 3.103.525 4.479 1.208l.278.137C856.017 5.16 857.953 6 861.552 6c.076 0 .151-.006.224-.017.073.011.148.017.224.017 3.6 0 5.536-.84 7.188-1.655l.112-.055.165-.082C870.842 3.525 871.899 3 873.944 3s3.102.525 4.479 1.208l.114.056.163.081C880.352 5.16 882.288 6 885.888 6c3.6 0 5.536-.84 7.188-1.655l.278-.137C894.73 3.525 895.788 3 897.832 3c2.045 0 3.102.525 4.479 1.208l.277.137C904.24 5.16 906.176 6 909.776 6c3.6 0 5.536-.84 7.188-1.655l.278-.137C918.618 3.525 919.676 3 921.72 3c2.045 0 3.103.525 4.479 1.208l.277.137C928.128 5.16 930.065 6 933.664 6c3.6 0 5.536-.84 7.188-1.655l.168-.083.11-.054C942.506 3.525 943.564 3 945.608 3c2.045 0 3.103.525 4.479 1.208l.278.137c1.533.757 3.312 1.535 6.44 1.642.064.009.129.013.195.013.093 0 .185 0 .276-.002l.096.001.18.001c.066 0 .132-.004.195-.013 3.128-.107 4.907-.885 6.441-1.642l.277-.137C965.842 3.525 966.899 3 968.944 3s3.102.525 4.479 1.208l.096.048.181.09C975.352 5.16 977.288 6 980.888 6c3.6 0 5.536-.84 7.188-1.655l.278-.137C989.73 3.525 990.788 3 992.832 3c2.045 0 3.102.525 4.479 1.208l.093.046.184.091C999.24 5.16 1001.18 6 1004.78 6s5.53-.84 7.18-1.655c.1-.046.19-.092.28-.137 1.38-.683 2.44-1.208 4.48-1.208 2.04 0 3.1.525 4.48 1.208l.16.082.12.055c1.65.815 3.58 1.655 7.18 1.655 3.6 0 5.54-.84 7.19-1.655.1-.046.19-.092.28-.137 1.38-.683 2.43-1.208 4.48-1.208 2.04 0 3.1.525 4.48 1.208.09.045.18.09.27.137 1.66.815 3.59 1.655 7.19 1.655.08 0 .15-.006.23-.017.07.011.14.017.22.017 3.6 0 5.54-.84 7.19-1.655.09-.046.18-.092.28-.137 1.37-.683 2.43-1.208 4.47-1.208 2.05 0 3.11.525 4.48 1.208l.02.01c.09.042.17.084.26.127 1.65.815 3.59 1.655 7.19 1.655 3.6 0 5.53-.84 7.19-1.655.08-.043.17-.085.25-.127l.02-.01c1.38-.683 2.44-1.208 4.48-1.208 2.05 0 3.1.525 4.48 1.208.09.045.18.09.28.137 1.65.815 3.59 1.655 7.19 1.655 3.6 0 5.53-.84 7.18-1.655l.15-.071.13-.066c1.38-.683 2.44-1.208 4.48-1.208 2.04 0 3.1.525 4.48 1.208l.02.01c.08.042.17.084.26.127 1.65.815 3.58 1.655 7.18 1.655 3.6 0 5.54-.84 7.19-1.655l.12-.057.16-.08c1.38-.683 2.43-1.208 4.48-1.208 2.04 0 3.1.525 4.48 1.208.09.045.18.09.27.137 1.54.757 3.32 1.535 6.44 1.642.07.009.13.013.2.013.09 0 .19 0 .28-.002l.27.002c.07 0 .13-.004.2-.013 3.13-.107 4.9-.885 6.44-1.642l.12-.06.16-.077c1.37-.683 2.43-1.208 4.47-1.208 2.05 0 3.11.525 4.48 1.208.09.045.19.09.28.137 1.65.815 3.59 1.655 7.19 1.655 3.6 0 5.53-.84 7.19-1.655l.17-.084.1-.053c1.38-.683 2.44-1.208 4.48-1.208 2.05 0 3.1.525 4.48 1.208.09.045.18.09.28.137 1.65.815 3.59 1.655 7.19 1.655 3.6 0 5.53-.84 7.18-1.655.09-.043.18-.085.26-.127l.02-.01c1.38-.683 2.44-1.208 4.48-1.208 2.04 0 3.1.525 4.48 1.208l.02.01c.08.042.17.084.26.127 1.65.815 3.58 1.655 7.18 1.655 3.6 0 5.54-.84 7.19-1.655.1-.046.19-.092.28-.137 1.38-.683 2.43-1.208 4.48-1.208 2.04 0 3.1.525 4.48 1.208.09.045.18.09.27.137 1.66.815 3.59 1.655 7.19 1.655a1.499 1.499 0 100-3c-2.99 0-4.47-.66-5.86-1.345-.1-.048-.19-.097-.29-.145-1.44-.718-3.04-1.51-5.79-1.51-2.76 0-4.35.792-5.79 1.51l-.02.006-.27.139c-1.39.685-2.87 1.345-5.87 1.345-2.99 0-4.47-.66-5.86-1.345-.09-.048-.19-.097-.29-.145-1.44-.718-3.03-1.51-5.79-1.51-2.76 0-4.35.792-5.79 1.51l-.01.006c-.1.047-.19.093-.28.139-1.39.685-2.87 1.345-5.86 1.345-3 0-4.47-.66-5.86-1.345a6.23 6.23 0 01-.28-.139l-.02-.006c-1.44-.718-3.03-1.51-5.79-1.51-2.75 0-4.35.792-5.79 1.51l-.01.006c-.1.047-.19.093-.28.139-1.39.685-2.87 1.345-5.86 1.345-3 0-4.47-.66-5.86-1.345a6.23 6.23 0 01-.28-.139l-.02-.006c-1.44-.718-3.03-1.51-5.79-1.51-2.75 0-4.34.792-5.79 1.51l-.01.006c-.09.047-.19.093-.28.139-1.35.664-2.77 1.304-5.58 1.343-2.82-.04-4.24-.68-5.59-1.343-.1-.048-.19-.097-.29-.145-1.44-.718-3.04-1.51-5.79-1.51-2.76 0-4.35.792-5.79 1.51-.1.048-.2.097-.29.145-1.39.685-2.87 1.345-5.87 1.345-2.99 0-4.47-.66-5.86-1.345-.09-.046-.18-.092-.28-.139l-.01-.006c-1.44-.718-3.03-1.51-5.79-1.51-2.76 0-4.35.792-5.79 1.51l-.01.006c-.1.047-.19.093-.28.139-1.39.685-2.87 1.345-5.86 1.345-3 0-4.47-.66-5.86-1.345a6.23 6.23 0 01-.28-.139l-.02-.006c-1.44-.718-3.03-1.51-5.79-1.51-2.75 0-4.35.792-5.79 1.51l-.01.006-.19.091-.09.048c-1.39.685-2.87 1.345-5.86 1.345-3 0-4.47-.66-5.86-1.345l-.3-.145c-1.44-.718-3.03-1.51-5.79-1.51-2.75 0-4.34.792-5.79 1.51l-.13.066-.16.079C1057.47 2.34 1056 3 1053 3c-.08 0-.15.006-.22.017-.08-.011-.15-.017-.23-.017-2.99 0-4.47-.66-5.86-1.345-.09-.046-.18-.092-.28-.139l-.01-.006c-1.44-.718-3.04-1.51-5.79-1.51-2.76 0-4.35.792-5.79 1.51l-.02.006-.27.139c-1.39.685-2.87 1.345-5.87 1.345-2.99 0-4.47-.66-5.86-1.345l-.24-.119-.01-.006-.03-.014-.01-.006c-1.44-.718-3.03-1.51-5.79-1.51-2.76 0-4.35.792-5.79 1.51l-.01.006c-.1.047-.19.093-.28.139-1.39.685-2.87 1.345-5.86 1.345-3 0-4.47-.66-5.865-1.345l-.292-.145C997.181.792 995.589 0 992.832 0c-2.756 0-4.348.792-5.791 1.51l-.013.006-.279.139C985.359 2.34 983.885 3 980.888 3s-4.471-.66-5.861-1.345l-.279-.139-.013-.006C973.292.792 971.701 0 968.944 0c-2.756 0-4.348.792-5.791 1.51l-.292.145c-1.347.664-2.772 1.304-5.585 1.343-2.812-.04-4.238-.68-5.585-1.343l-.279-.139-.013-.006C949.957.792 948.365 0 945.608 0c-2.756 0-4.348.792-5.791 1.51l-.292.145C938.135 2.34 936.661 3 933.664 3s-4.471-.66-5.861-1.345l-.238-.119-.014-.006-.027-.014-.013-.006C926.069.792 924.477 0 921.72 0c-2.756 0-4.348.792-5.791 1.51l-.013.006-.027.014-.014.006-.238.119C914.247 2.34 912.773 3 909.776 3s-4.471-.66-5.861-1.345l-.15-.075-.142-.07C902.181.792 900.589 0 897.832 0c-2.756 0-4.348.792-5.791 1.51l-.013.006-.027.014-.1.05-.152.075C890.359 2.34 888.885 3 885.888 3s-4.471-.66-5.861-1.345l-.16-.08-.119-.059-.013-.006C878.292.792 876.701 0 873.944 0c-2.756 0-4.348.792-5.791 1.51l-.13.064-.162.08C866.471 2.34 864.997 3 862 3c-.076 0-.151.006-.224.017a1.514 1.514 0 00-.224-.017c-2.997 0-4.471-.66-5.861-1.345l-.292-.145C853.957.792 852.365 0 849.608 0c-2.756 0-4.348.792-5.791 1.51l-.013.006-.007.004-.03.015-.242.12C842.135 2.34 840.661 3 837.664 3s-4.471-.66-5.861-1.345l-.292-.145C830.069.792 828.477 0 825.72 0c-2.756 0-4.348.792-5.791 1.51l-.013.006-.027.014-.014.006-.029.015-.209.104C818.247 2.34 816.773 3 813.776 3s-4.471-.66-5.861-1.345l-.125-.062-.154-.077-.013-.006C806.181.792 804.589 0 801.832 0c-2.756 0-4.348.792-5.791 1.51l-.013.006-.027.014-.014.007-.116.057-.122.06C794.359 2.34 792.885 3 789.888 3s-4.471-.66-5.861-1.345l-.292-.145C782.292.792 780.701 0 777.944 0c-2.756 0-4.348.792-5.791 1.51l-.013.006-.168.084-.111.055C770.471 2.34 768.997 3 766 3c-.076 0-.151.006-.224.017a1.514 1.514 0 00-.224-.017c-2.997 0-4.471-.66-5.861-1.345l-.188-.094-.091-.045-.013-.006C757.957.792 756.365 0 753.608 0c-2.756 0-4.348.792-5.791 1.51l-.013.006-.007.004-.272.135C746.135 2.34 744.661 3 741.664 3s-4.471-.66-5.861-1.345l-.114-.057-.138-.068-.027-.014-.013-.006C734.069.792 732.477 0 729.72 0c-2.756 0-4.348.792-5.791 1.51l-.013.006-.027.014-.014.006-.029.015-.209.104C722.247 2.34 720.773 3 717.776 3s-4.471-.66-5.861-1.345l-.292-.145C710.181.792 708.589 0 705.832 0c-2.756 0-4.348.792-5.791 1.51l-.292.145C698.359 2.34 696.885 3 693.888 3s-4.471-.66-5.861-1.345l-.292-.145C686.292.792 684.701 0 681.944 0c-2.756 0-4.348.792-5.791 1.51l-.013.006-.027.014-.252.125c-1.347.664-2.772 1.304-5.585 1.343-2.812-.04-4.238-.68-5.585-1.343a116.71 116.71 0 00-.252-.125l-.027-.014-.013-.006C662.957.792 661.365 0 658.608 0c-2.756 0-4.348.792-5.791 1.51l-.013.006-.279.139C651.135 2.34 649.661 3 646.664 3s-4.471-.66-5.861-1.345l-.292-.145C639.069.792 637.477 0 634.72 0c-2.756 0-4.348.792-5.791 1.51l-.013.006-.027.014-.112.056-.14.069C627.247 2.34 625.773 3 622.776 3s-4.471-.66-5.861-1.345l-.292-.145C615.181.792 613.589 0 610.832 0c-2.756 0-4.348.792-5.791 1.51l-.013.006-.279.139C603.359 2.34 601.885 3 598.888 3s-4.471-.66-5.861-1.345a40.325 40.325 0 01-.252-.125l-.027-.014-.013-.006C591.292.792 589.701 0 586.944 0c-2.756 0-4.348.792-5.791 1.51l-.292.145C579.471 2.34 577.997 3 575 3c-.076 0-.151.006-.224.017a1.514 1.514 0 00-.224-.017c-2.997 0-4.471-.66-5.861-1.345a93.72 93.72 0 01-.278-.139l-.014-.006C566.957.792 565.365 0 562.608 0c-2.756 0-4.348.792-5.791 1.51l-.292.145C555.135 2.34 553.661 3 550.664 3s-4.471-.66-5.861-1.345l-.216-.107-.024-.012-.038-.02-.014-.006C543.069.792 541.477 0 538.72 0c-2.756 0-4.348.792-5.791 1.51l-.013.006-.279.139C531.247 2.34 529.773 3 526.776 3s-4.471-.66-5.861-1.345l-.252-.125-.027-.014-.013-.006C519.181.792 517.589 0 514.832 0c-2.756 0-4.348.792-5.791 1.51l-.013.006a41.03 41.03 0 01-.279.139C507.359 2.34 505.885 3 502.888 3s-4.471-.66-5.861-1.345l-.292-.145C495.293.792 493.701 0 490.944 0c-2.756 0-4.348.792-5.791 1.51l-.013.006a41.03 41.03 0 01-.279.139c-1.347.664-2.772 1.304-5.585 1.343-2.812-.04-4.238-.68-5.585-1.343l-.292-.145C471.957.792 470.365 0 467.608 0c-2.756 0-4.348.792-5.791 1.51l-.013.006a41.03 41.03 0 01-.279.139C460.135 2.34 458.661 3 455.664 3s-4.471-.66-5.861-1.345l-.279-.139-.013-.006C448.069.792 446.477 0 443.72 0c-2.756 0-4.348.792-5.791 1.51l-.292.145C436.247 2.34 434.773 3 431.776 3s-4.471-.66-5.861-1.345l-.292-.145C424.181.792 422.589 0 419.832 0c-2.756 0-4.348.792-5.791 1.51l-.003.002-.007.003-.282.14C412.359 2.34 410.885 3 407.888 3s-4.471-.66-5.861-1.345a41.03 41.03 0 01-.279-.139l-.013-.006C400.293.792 398.701 0 395.944 0c-2.756 0-4.348.792-5.791 1.51l-.013.006a41.03 41.03 0 01-.279.139C388.471 2.34 386.997 3 384 3c-.076 0-.151.006-.224.017a1.514 1.514 0 00-.224-.017c-2.997 0-4.471-.66-5.861-1.345l-.292-.145C375.957.792 374.365 0 371.608 0c-2.756 0-4.348.792-5.791 1.51l-.013.006a41.03 41.03 0 01-.279.139C364.135 2.34 362.661 3 359.664 3s-4.471-.66-5.861-1.345l-.279-.139-.013-.006C352.069.792 350.477 0 347.72 0c-2.756 0-4.348.792-5.791 1.51l-.003.002-.007.003-.004.002-.008.004-.27.134C340.247 2.34 338.773 3 335.776 3s-4.471-.66-5.861-1.345l-.279-.139-.013-.006C328.181.792 326.589 0 323.832 0c-2.756 0-4.348.792-5.791 1.51l-.003.002-.007.003-.282.14C316.359 2.34 314.885 3 311.888 3s-4.471-.66-5.861-1.345a41.03 41.03 0 01-.279-.139l-.013-.006C304.293.792 302.701 0 299.944 0c-2.756 0-4.348.792-5.791 1.51l-.013.006a41.03 41.03 0 01-.279.139c-1.347.664-2.772 1.304-5.585 1.343-2.812-.04-4.238-.68-5.585-1.343l-.292-.145C280.957.792 279.365 0 276.608 0c-2.756 0-4.348.792-5.791 1.51l-.013.006a41.03 41.03 0 01-.279.139C269.135 2.34 267.661 3 264.664 3s-4.471-.66-5.861-1.345l-.292-.145C257.069.792 255.477 0 252.72 0c-2.756 0-4.348.792-5.791 1.51l-.292.145C245.247 2.34 243.773 3 240.776 3s-4.471-.66-5.861-1.345l-.292-.145C233.181.792 231.589 0 228.832 0c-2.756 0-4.348.792-5.791 1.51l-.004.002-.288.143C221.359 2.34 219.885 3 216.888 3s-4.471-.66-5.861-1.345l-.292-.145C209.292.792 207.701 0 204.944 0c-2.756 0-4.348.792-5.791 1.51l-.292.145C197.471 2.34 195.997 3 193 3c-.076 0-.151.006-.224.017a1.514 1.514 0 00-.224-.017c-2.997 0-4.471-.66-5.861-1.345l-.288-.143-.004-.002C184.957.792 183.365 0 180.608 0c-2.756 0-4.348.792-5.791 1.51l-.003.002-.289.143C173.135 2.34 171.661 3 168.664 3s-4.471-.66-5.861-1.345l-.277-.138-.011-.005-.004-.002C161.069.792 159.477 0 156.72 0c-2.756 0-4.348.792-5.791 1.51l-.003.002-.289.143C149.247 2.34 147.773 3 144.776 3s-4.471-.66-5.861-1.345l-.292-.145C137.181.792 135.589 0 132.832 0c-2.756 0-4.348.792-5.791 1.51l-.004.002h-.002l-.001.002-.285.14C125.359 2.34 123.885 3 120.888 3s-4.471-.66-5.861-1.345l-.292-.145C113.292.792 111.701 0 108.944 0c-2.756 0-4.348.792-5.791 1.51l-.292.145c-1.386.683-2.856 1.341-5.835 1.345-2.98-.004-4.449-.662-5.835-1.345L90.9 1.51C89.457.792 87.865 0 85.11 0c-2.757 0-4.35.792-5.792 1.51l-.292.145C77.635 2.34 76.161 3 73.165 3c-2.998 0-4.472-.66-5.862-1.345l-.292-.145C65.569.792 63.977 0 61.221 0c-2.757 0-4.35.792-5.792 1.51l-.292.145C53.747 2.34 52.273 3 49.277 3c-2.998 0-4.472-.66-5.862-1.345l-.292-.145C41.68.792 40.089 0 37.333 0c-2.757 0-4.35.792-5.792 1.51l-.292.145C29.859 2.34 28.385 3 25.389 3c-2.998 0-4.472-.66-5.862-1.345l-.292-.145C17.793.792 16.2 0 13.444 0c-2.757 0-4.348.792-5.79 1.51l-.293.145C5.97 2.34 4.497 3 1.5 3A1.5 1.5 0 000 4.5z" fill="#E0E0E0"/></svg><svg fill="none" viewBox="0 0 16 19" id="people" xmlns="http://www.w3.org/2000/svg"><path d="M11.04 10.938c.843 0 1.616.21 2.355.632.703.422 1.3 1.02 1.722 1.723.422.738.633 1.512.633 2.355v.915c0 .492-.176.878-.492 1.195a1.593 1.593 0 01-1.195.492H1.687c-.492 0-.878-.14-1.195-.492C.141 17.44 0 17.055 0 16.563v-.915c0-.843.21-1.617.633-2.355.422-.703.984-1.3 1.722-1.723a4.55 4.55 0 012.356-.633c.281 0 .703.106 1.195.247.317.105.598.175.809.21.351.07.738.106 1.16.106.422 0 .809-.035 1.16-.105.211-.036.457-.106.809-.211.492-.141.879-.246 1.195-.246zm3.023 5.624v-.914c0-.808-.317-1.511-.915-2.109-.597-.598-1.3-.914-2.109-.914-.14 0-.387.07-.703.14a7.87 7.87 0 01-2.461.422c-.773 0-1.617-.14-2.46-.421-.353-.07-.599-.141-.704-.141-.844 0-1.547.316-2.145.914a2.869 2.869 0 00-.878 2.11v.914h12.374zm-6.188-6.187c-.914 0-1.758-.21-2.531-.668A5.256 5.256 0 013.48 7.844c-.457-.774-.667-1.617-.667-2.532 0-.914.21-1.757.667-2.53.458-.774 1.09-1.372 1.864-1.829a4.902 4.902 0 015.062 0 5.063 5.063 0 011.828 1.828 4.903 4.903 0 010 5.063c-.457.773-1.054 1.406-1.828 1.863-.773.457-1.617.668-2.531.668zm0-8.438a3.29 3.29 0 00-2.39.985 3.265 3.265 0 00-.985 2.39c0 .95.316 1.758.984 2.391.633.668 1.442.984 2.391.984.914 0 1.723-.316 2.39-.984a3.29 3.29 0 00.985-2.39c0-.915-.352-1.723-.984-2.391-.668-.633-1.477-.985-2.391-.985z" fill="#D9435D"/></svg><svg fill="none" viewBox="0 0 18 19" id="play" xmlns="http://www.w3.org/2000/svg"><path d="M1.808 18.778a.923.923 0 01-.923-.923V1.701c0-.51.413-.923.923-.923l15 8.308s.692.692 0 1.384c-.692.693-15 8.308-15 8.308z" fill="#fff"/></svg><svg fill="none" viewBox="0 0 9 10" id="play-button-slider" xmlns="http://www.w3.org/2000/svg"><g clip-path="url(#avclip0)"><path d="M1.166 9.266a.431.431 0 01-.424-.437V1.17a.43.43 0 01.424-.437L8.055 4.67s.318.329 0 .657-6.889 3.938-6.889 3.938z" fill="#fff"/></g><defs><clipPath id="avclip0"><path fill="#fff" transform="translate(.336 .733)" d="M0 0h8.267v8.533H0z"/></clipPath></defs></svg><svg fill="none" viewBox="0 0 40 19" id="review" xmlns="http://www.w3.org/2000/svg"><path stroke="#D9435D" stroke-width="4" stroke-linecap="round" stroke-linejoin="round" d="M2 17v-3M11 17v-6M20 17V8M29 17V5"/><path stroke="#E0E0E0" stroke-width="4" stroke-linecap="round" stroke-linejoin="round" d="M38 17V2"/></svg><svg fill="none" viewBox="0 0 18 52" id="right-arrow" xmlns="http://www.w3.org/2000/svg"><path d="M1 1l16 25L1 51" stroke="#979899" stroke-width="2" stroke-linecap="round" stroke-linejoin="round"/></svg><svg fill="none" viewBox="0 0 20 20" id="twitter" xmlns="http://www.w3.org/2000/svg"><g clip-path="url(#ayclip0)"><path d="M20 3.8a8.193 8.193 0 01-2.356.645 4.12 4.12 0 001.804-2.268 8.272 8.272 0 01-2.608.996 4.103 4.103 0 00-6.991 3.74 11.648 11.648 0 01-8.456-4.286A4.072 4.072 0 00.84 4.689a4.1 4.1 0 001.824 3.415 4.103 4.103 0 01-1.858-.515v.05a4.107 4.107 0 003.29 4.024 4.155 4.155 0 01-1.08.144c-.266 0-.522-.027-.773-.077a4.105 4.105 0 003.832 2.85 8.232 8.232 0 01-5.095 1.753A8.73 8.73 0 010 16.277a11.598 11.598 0 006.289 1.846c7.547 0 11.673-6.251 11.673-11.673l-.014-.531A8.193 8.193 0 0020 3.799z" fill="#D9435D"/></g><defs><clipPath id="ayclip0"><path fill="#fff" d="M0 0h20v20H0z"/></clipPath></defs></svg><svg fill="none" viewBox="0 0 187 10" id="vector-bottom" xmlns="http://www.w3.org/2000/svg"><path d="M1.637 5.048c1.671-.988 3.732-1.354 5.339-2.377.486-.31-.038.436-.101.521-.575.777-1.115 1.589-1.71 2.35-.118.152-1.477 1.34-.665 1.837.919 0 1.184-.97 1.827-1.517.877-.747 1.788-1.775 2.88-2.203.8-.315 1.766-.478 2.504-.915.695-.412-.058.121-.274.33-.849.817-1.582 1.643-2.34 2.54C8.79 5.978 7.89 6.81 7.89 7.353c0 .06 2.564-1.293 2.779-1.408 1.943-1.042 3.723-2.254 5.906-2.76.244-.057 1.993-.445.822-.202-2.396.498-4.678 1.028-6.755 2.368-2.186 1.41 1.226.88 2.093.557 2.39-.888 4.749-1.731 7.186-2.486.788-.244 3.248-.512 2.422-.512-2.59 0-5.294 2.078-7.423 3.355-.653.392-2.267 1.14-.42 1.115 1.436-.02 2.569-.402 3.83-1.014 1.397-.679 2.84-1.274 4.26-1.902 1.243-.549 2.549-.889 3.821-1.353.55-.2 1.233-.622 1.829-.622.782 0-1.404.69-2.103 1.043-1.183.596-2.427 1.36-3.383 2.285-.893.865-2.067 1.913.246 1.27 2.507-.696 4.441-1.735 6.776-2.852 1.073-.513 2.23-.886 3.29-1.417 2.481-1.24-7.993 1.448-7.23 4.114.281.986 4.534-1.305 4.69-1.39 1.471-.797 3.366-1.556 4.57-2.76.203-.203-.605-.061-.86.073-.853.451-2.972 4.043-2.656 4.12.85.206 1.504-.231 2.108-.61 1.989-1.245 3.958-2.348 6.144-3.217.22-.088 1.05-.425.374-.147-.998.411-2.034.788-3.053 1.143-1.54.537-3.072.98-4.397 1.975-.176.132-.636.472.223-.059 1.726-1.066 2.307-1.393 4.21-2.144 1.324-.523 2.71-.814 4.06-1.244.287-.091-.544.265-.796.43a13.63 13.63 0 00-3.08 2.77c-.31.38-.543.752-.686 1.216-.032.104-.253.317-.146.292.84-.194 1.734-.823 2.495-1.197a60.922 60.922 0 014.708-2.076c.125-.048 3.291-1.064 3.291-1.28 0-.175-1.471-.074-1.59-.063-1.646.14-3.195.793-4.608 1.618-.732.427-1.654 1.107-1.5 2.075.17 1.062 1.125.92 1.912.612 2.171-.846 4.277-2.039 6.326-3.144.558-.302 2.06-.847 1.508-1.161-.686-.393-2.998 1.576-3.474 1.956-.142.113-2.505 2.36-2.139 2.596.283.182 1.4-.358 1.59-.439 1.349-.568 2.52-1.426 3.767-2.175.309-.186 3.986-2.505 4.206-2.286.07.07-.184.071-.275.11a7.236 7.236 0 00-.969.494 15.07 15.07 0 00-2.523 1.901c-.624.59-2.048.956-2.048 1.926 0 .588 1.438-.438 1.518-.494 1.554-1.083 3.134-1.22 4.809-2.108.927-.492 2.179-.651 3.025-1.244.213-.149-.8 1.096-.941 1.308-.463.693-1.156 1.752-1.307 2.587-.046.252.435-.273.63-.439.822-.7 1.636-1.4 2.514-2.03.099-.07 2.034-1.455 1.637-1.508-1.349-.18-2.6.811-3.538 1.646-.167.148-2.122 2.042-1.143 2.12 1.65.132 3.14-1.113 4.416-1.983 1.19-.812 2.698-1.575 3.739-2.578.246-.238-.128-.146-.238-.092-.926.457-1.725 1.221-2.432 1.957-.951.99-1.615 2.255-2.578 3.218-.168.168-.562.229-.768.073-1.125-.856.355-4.307-2.23-3.273-.697.278-3.673 3.144-2.066 3.803 1.142.468 2.695.109 3.775-.33 3.092-1.253 6.02-2.87 9.16-4.022.64-.234.896-.17.201-.384-.685-.21-1.046-.55-1.791-.164-1.526.79-2.703 2.166-3.968 3.3-.561.503-1.06 1.102.064.869 2.734-.568 5.28-2.193 7.899-3.145.014-.005 1.974-.61 1.974-.777 0-.162-2.45 1.586-2.614 1.728a38.145 38.145 0 00-2.194 2.03c-.044.043-.76.746-.165.493 2.167-.924 3.926-2.733 5.979-3.876.295-.165 1.05-.604.439-.037-1.294 1.201-2.911 1.94-3.456 3.662-.216.682.566.285.823.128.991-.605 1.878-.446 2.76-1.194l3.913-3.31c.509-.429-.017.434-.146.568-1.067 1.108-2.097 2.31-2.898 3.63-.622 1.024.824.088 1.106-.092 1.65-1.058 3.255-2.26 4.81-3.456 1.003-.772-.231.326-.522.759-.332.494-1.83 2.69-1.527 3.373.163.365 1.956-1.61 1.984-1.636 1.22-1.127 2.603-2.583 4.141-3.282.391-.178-.643.569-.96.86-.882.808-1.604 1.724-2.33 2.669-.726.943 1.79-.67 2.029-.796.68-.356 2.583-1.007 2.998-1.773.163-.302-.685-.144-1.024-.092-1.701.264-3.375.694-5.064 1.024-.208.04-1.723.357-.567.073 1.288-.316 2.552-.722 3.84-1.042.852-.212 2.754-.995 3.656-.713.205.064-.345.257-.53.366-.63.37-.922.539-1.536.987-.924.676-1.938 1.443-2.578 2.414-.09.136-.545.875-.018.75 1.024-.246 1.997-.973 2.852-1.537 1.396-.92 2.754-1.897 4.15-2.815 1.508-.991-1.468.759-1.791 1.042-.229.2-2.194 2.73-2.103 2.724.647-.042 1.493-.723 2.011-1.024 1.371-.794 2.755-1.554 4.15-2.304.582-.312 1.037-.696.184-.128a14.21 14.21 0 00-2.688 2.304c-.288.32-1.2 1.144-.786 1.024 1.136-.329 2.274-1.037 3.29-1.609 1.075-.604 2.17-1.247 3.127-2.03.364-.296.084-.273-.2-.127-1.333.68-2.546 1.741-3.657 2.724-.57.504-2.149 1.867-1.39 1.81.945-.07 2.095-.906 2.87-1.371 1.102-.66 2.137-1.424 3.292-1.993.646-.32 1.268-.708 1.865-1.024.283-.15.405-.303-.064-.082-1.768.832-2.81 1.584-3.663 3.36-.546 1.138.329 1.187 1.097.64 2.104-1.496 2.798-2.361 4.714-4.074.072-.064.306-.232.247-.155-.125.162-.845.996-.869 1.024-.576.67-1.173 1.32-1.7 2.03-.12.162-.844.984-.1.713 1.434-.525 2.721-1.66 3.949-2.533.67-.476 2.787-1.49 1.965-1.49-.572 0-1.388.71-1.755 1.051-.99.923-.888 2.085-1.487 3.3-.03.06-.52 1.111.01.823 1.9-1.032 2.477-2.93 4.219-4.223.294-.218 1.189-.85.878-.658-.962.594-1.78 1.466-2.505 2.322-.011.012-1.052 1.165-.75 1.371.323.22 1.437-.741 1.628-.878 1.393-.998 5.568-3.998 4.15-3.035-1.295.88-3.528 2.542-3.638 4.297-.03.483.795-.553 1.17-.86.96-.785 1.918-1.557 2.962-2.23.655-.423 2.662-1.626 1.993-1.225-.638.383-1.197.881-1.737 1.39-.819.77-1.693 1.577-2.34 2.504-.086.123-.459.68 0 .53 1.608-.526 3.07-1.727 4.598-2.459.763-.365 1.714-.688 2.258-1.38.053-.068.118-.284.037-.256-.252.088-.82.54-.933.63-.421.335-3.388 2.817-2.944 3.594.105.182 5.275-3.799 5.696-4.096.661-.467 1.174-.79.457.073-.69.831-1.417 1.631-2.121 2.45-.323.376-2.017 1.873-.576 1.152 1.976-.988 3.591-2.62 5.439-3.812.089-.057 1.446-.83 1.116-.704-1.398.533-3.138 2.155-3.721 3.529-.157.37-.282.98.311.603 1.11-.704 2.167-1.485 3.291-2.176.619-.38 1.763-.853 2.176-1.517.348-.56-.987.89-1.372 1.426-.364.507-1.862 2.45-1.426 3.2.227.389 3.064-2.076 3.2-2.176a30.522 30.522 0 013.73-2.34c.317-.17.485-.385.018-.202-1.844.727-3.248 2.949-4.114 4.626-.741 1.436 1.312-.572 1.609-.804 1.585-1.24 6.388-4.892 4.772-3.694-1.73 1.284-3.444 2.124-4.479 4.041-.718 1.33 1.357.565 1.554.42 1.786-1.306 3.728-2.582 5.75-3.492.132-.059.451-.336.311-.301-.697.174-1.356.765-1.838 1.261-.753.777-1.399 1.694-1.965 2.615-.293.475.086.292.384.146 2.172-1.06 4.092-2.61 6.271-3.684.276-.136 1.082-.57.786-.485-1.126.322-2.155 1.094-3.025 1.847-.791.683-1.527 1.463-2.057 2.368-.032.053-.119.214-.101.155.075-.245.158-.417.293-.658.245-.438 3.018-3.772 2.815-3.94-1.227-1.023-3.786 1.079-4.571 1.755-.72.62-1.395 1.334-2.175 1.883-.47.331.85-.773 1.298-1.133 1.321-1.065 2.632-1.804 4.296-2.176 1.052-.235 2.126-.316 3.2-.366.751-.034 1.277-.119.512.585-.957.881-1.929 1.733-2.797 2.706-.2.225-1.315 1.28-1.28 1.664.013.148.247-.165.365-.256a85.77 85.77 0 001.006-.786c1.092-.866 2.191-1.705 3.346-2.487.119-.08 1.3-.86 1.518-1.005.139-.093.453-.438.42-.274-.054.272-.903.925-1.06 1.097-.798.869-3.167 3.38-2.121 2.834 1.691-.883 3.051-2.458 4.644-3.52.043-.029.922-.7.228-.293-.93.547-1.723 1.405-2.468 2.167-.241.246-3.009 3.267-1.106 1.975 1.655-1.125 3.03-2.642 4.644-3.83.13-.097-.247.21-.357.328-.911.993-1.754 2.08-2.541 3.173-.334.463.288.9.821.694 1.008-.39.487-.617 1.263-1.334 1.143-1.056 3.957-4.788 3.109-3.483-.703 1.081-2.372 2.217-2.569 3.547-.071.479.585-.015.585.146 0 .38-.132.396 0 .759.199.548 1.233-.313 1.252-.339.781-1.022 1.436-2.127 2.24-3.135.275-.346 1.021-1.396.905-.97-.315 1.157-1.399 2.53-1.399 3.73 0 .536.917-.559 1.326-.904 1.149-.973 2.342-1.972 3.337-3.109.048-.055.127-.246.064-.21-.241.138-.604.475-.768.63-.771.73-1.367 1.544-1.911 2.45-.356.595-1.281 2.102-.037.943.67-.624 1.284-1.302 1.902-1.975.351-.383.979-1.079 1.353-1.481.152-.164.351-.662.475-.475.161.241-2.413 3.75-2.632 4.26-.293.68.4.233.639.055.912-.68 1.605-1.669 2.359-2.505.565-.628 1.158-1.377 1.828-1.902.604-.472-.826 1.291-1.206 1.956a12.218 12.218 0 00-.969 2.213c-.13.384-.203.515.146.128 1.126-1.248 4.852-4.638 3.529-3.602-1.091.853-2.041 2.5-2.066 3.913-.011.61.733-.367.749-.384 1.103-1.14 2.22-2.258 3.456-3.255.238-.192.98-.712.786-.475-.695.85-1.473 1.607-2.13 2.496-.109.147-1.171 1.384-1.015 1.736.048.108.243-.031.339-.1.427-.308.923-.784 1.289-1.125 1.273-1.184 2.565-2.4 4.113-3.227.131-.07-.969.85-.969.85-.857.796-1.638 1.645-2.294 2.615-.255.376-1.031 1.1-.594 1.225.225.065 1.298-1.111 1.353-1.16 1.462-1.33 2.946-2.658 4.196-4.197.582-.716-.135.398-.247.585-.744 1.248-1.506 2.475-2.267 3.712-.954 1.55 1.682-1.018 1.956-1.29.946-.938 3.705-3.804 2.925-2.724-1.019 1.415-2.362 2.943-2.852 4.644-.455 1.584 1.829-1.211 1.938-1.334.885-1.001 3.656-3.897 2.779-2.89-1.032 1.188-1.783 2.682-2.285 4.17-.196.58-.137.617.366.128.92-.896 1.812-1.82 2.724-2.725.373-.37.757-.722 1.143-1.078.234-.217-.517.388-.713.64-.728.932-1.428 2.008-1.893 3.099-.287.674.116.46.448.128 1.05-1.05 1.969-2.228 3.063-3.237.026-.024 1.335-1.168.795-.393-.742 1.067-1.398 2.137-1.966 3.31-.01.022-1.07 1.91-.274 1.28 1.856-1.471 7.081-6.293 5.321-4.709-1.159 1.044-2.096 2.378-2.916 3.694-.228.364-.8 1.453-.448 1.207 1.769-1.24 3.036-3.083 4.772-4.361.79-.583-.271.801-.284.823-.495.832-1.028 1.708-1.38 2.614-.206.529.371-.05.439-.11.834-.736 1.609-1.523 2.486-2.212.437-.342 1.744-1.373 1.298-1.042-.737.547-1.233 1.533-1.682 2.304-.296.51-1.263 1.47-.694 1.627.619.17 2.025-1.516 2.267-1.755 1.108-1.095 2.117-2.36 3.309-3.365.32-.27.015.304 0 .33-.749 1.299-2.56 2.094-2.56 3.675 0 2.222 6.568-5.76 5.449-3.84-.254.435-.755.848-1.061 1.234-.776.983-1.357 2.079-2.084 3.09-.169.236-.057-1.203-.475-1.362-.656-.249-2.077.441-1.911-.521.123-.71.634-.573 1.006-1.088.487-.675 1.256-1.09 1.737-1.755.902-1.25-2.886 1.244-4.014 2.294-.944.88-.088-1.323.028-1.618.669-1.703-1.104.559-1.445.978-.65.802-.327.356-.192-.246.363-1.62-2.259 1.493-2.121 1.499.462.02 1.556-.715 1.975-.878a123.07 123.07 0 013.2-1.206c.941-.337 1.872-.408 2.87-.293.83.096-.504 2.812-.621 3.09-.395.94-.201 1.107.621.31.887-.857 1.668-1.818 2.523-2.705.066-.068.516-.555.11-.073-.543.644-1.1 1.3-1.499 2.047-.305.57.115.212.347-.018.644-.636 1.323-1.298 1.884-2.011.946-1.204-3.811 4.669-2.524 3.84 1.713-1.103 2.666-3.161 4.334-4.352.892-.637.185.205-.092.512-.77.854-1.525 1.71-2.212 2.633-.345.463-.689.872.11.128a179.64 179.64 0 003.053-2.926c.068-.066.279-.257.219-.182-.278.348-.579.677-.859 1.023-.109.135-1.931 2.421-1.481 2.56.718.222 2.102-1.617 2.505-2.03a13.6 13.6 0 011.079-1.023c.164-.139.54-.58.53-.366-.031.645-1.462 2.013-1.81 2.505-.155.218-1.545 1.809-1.371 2.194.122.271 4.2-4.06 4.369-4.242" stroke="#EE5D67" stroke-width="2" stroke-linecap="round" stroke-linejoin="round"/></svg><svg fill="none" viewBox="0 0 20 20" id="vk" xmlns="http://www.w3.org/2000/svg"><g clip-path="url(#baclip0)"><path d="M19.894 14.305a1.36 1.36 0 00-.068-.13c-.347-.625-1.01-1.392-1.989-2.301l-.02-.021-.01-.01-.011-.01h-.01c-.445-.424-.726-.709-.844-.855-.216-.277-.264-.559-.146-.843.083-.216.396-.67.937-1.364.285-.368.51-.663.677-.885 1.201-1.597 1.722-2.618 1.562-3.062l-.062-.104c-.042-.062-.15-.12-.323-.172-.174-.052-.396-.06-.666-.026l-3 .021a.389.389 0 00-.208.005l-.135.032-.052.026-.042.031a.464.464 0 00-.114.11.716.716 0 00-.104.182c-.327.84-.698 1.62-1.114 2.343-.257.43-.493.803-.709 1.119a5.387 5.387 0 01-.541.698c-.146.149-.278.268-.396.359-.118.09-.208.128-.27.114a7.733 7.733 0 01-.178-.041.693.693 0 01-.234-.255 1.141 1.141 0 01-.12-.407 4.45 4.45 0 01-.036-.421 8.705 8.705 0 01.005-.5c.007-.216.01-.361.01-.438 0-.263.006-.55.016-.859l.026-.734c.007-.18.01-.371.01-.572 0-.202-.012-.36-.036-.474a1.62 1.62 0 00-.109-.334.561.561 0 00-.213-.25 1.203 1.203 0 00-.35-.14c-.367-.083-.836-.128-1.405-.135-1.291-.014-2.12.07-2.489.25-.146.076-.278.18-.396.312-.125.153-.142.236-.052.25.417.062.712.211.885.447l.063.126c.049.09.097.25.146.479.048.229.08.482.093.76.035.506.035.94 0 1.301-.034.361-.067.642-.098.844a1.689 1.689 0 01-.266.718.18.18 0 01-.052.052.78.78 0 01-.281.052c-.098 0-.216-.048-.354-.146a2.499 2.499 0 01-.432-.4 5.36 5.36 0 01-.506-.714A12.448 12.448 0 015.3 7.25l-.166-.302a25.963 25.963 0 01-.427-.848c-.18-.372-.34-.731-.48-1.078a.686.686 0 00-.249-.333l-.052-.032a.712.712 0 00-.167-.088 1.105 1.105 0 00-.24-.068l-2.852.02c-.292 0-.49.067-.594.199l-.042.062A.337.337 0 000 4.95c0 .076.02.17.063.281.416.979.869 1.923 1.358 2.832.49.91.915 1.642 1.276 2.197.36.556.729 1.08 1.104 1.573.375.493.623.809.744.947.122.14.217.243.287.313l.26.25c.167.166.411.366.734.598.323.233.68.462 1.073.688.392.225.848.41 1.37.552.52.142 1.027.2 1.52.172h1.197c.243-.021.427-.098.552-.23l.041-.052a.687.687 0 00.078-.192c.025-.087.037-.183.037-.287a3.429 3.429 0 01.067-.806c.052-.24.111-.42.178-.542a1.33 1.33 0 01.4-.458.691.691 0 01.084-.036c.166-.056.362-.002.588.161.226.163.438.365.636.604.197.24.435.509.713.807.278.299.52.52.729.667l.208.125c.139.083.32.16.542.229.221.069.416.086.583.052l2.665-.042c.264 0 .469-.044.614-.13.146-.087.233-.182.26-.287a.805.805 0 00.006-.354 1.311 1.311 0 00-.073-.276z" fill="#D9435D"/></g><defs><clipPath id="baclip0"><path fill="#fff" d="M0 0h20v20H0z"/></clipPath></defs></svg><svg fill="none" viewBox="0 0 20 20" id="yt" xmlns="http://www.w3.org/2000/svg"><g clip-path="url(#bbclip0)"><path d="M19.83 6.224c-.112-1.331-.906-3.01-2.537-3.07-4.555-.307-9.952-.39-14.59 0C1.264 3.315.278 5.068.171 6.399c-.228 2.796-.228 4.388 0 7.184.108 1.331 1.07 3.094 2.535 3.279 4.693.306 10.063.35 14.59 0 1.42-.246 2.426-1.948 2.534-3.279.227-2.798.227-4.563 0-7.359zM7.497 13.538v-7.17l6.25 3.586-6.25 3.584z" fill="#D9435D"/></g><defs><clipPath id="bbclip0"><path fill="#fff" d="M0 0h20v20H0z"/></clipPath></defs></svg></svg>